<?xml version="1.0" standalone="no"?>
<!DOCTYPE svg PUBLIC "-//W3C//DTD SVG 1.1//EN" "http://www.w3.org/Graphics/SVG/1.1/DTD/svg11.dtd" >
<svg xmlns="http://www.w3.org/2000/svg" xmlns:xlink="http://www.w3.org/1999/xlink" version="1.1">
<metadata></metadata>
<defs>
<font id="sweet_pearegular" horiz-adv-x="900" >
<font-face units-per-em="2048" ascent="1638" descent="-410" />
<missing-glyph horiz-adv-x="574" />
<glyph horiz-adv-x="0" />
<glyph unicode="&#xd;" horiz-adv-x="0" />
<glyph horiz-adv-x="0" />
<glyph horiz-adv-x="0" />
<glyph unicode=" "  horiz-adv-x="574" />
<glyph unicode="&#x09;" horiz-adv-x="574" />
<glyph unicode="&#xa0;" horiz-adv-x="574" />
<glyph unicode="!" horiz-adv-x="384" d="M66 1566q2 48 60 48h12q68 -4 110 -50q10 -10 16 -24t8 -30q-8 -2 -14 -28t-8 -72q-4 -80 -2 -212q0 -130 -2 -274q-2 -118 -10 -234t-28 -210q-16 -44 -44 -44q-6 0 -14 2q-38 10 -46 82q2 100 0 220t-6 240q-2 78 -6 154q-2 74 -6 140q-6 124 -12 206t-8 86zM76 44 q0 12 2 28q8 44 44 60q16 8 36 8t42 -12q42 -20 56 -46q6 -14 6 -30q0 -22 -12 -48q-18 -48 -60 -60q-18 26 -54 24q-38 -2 -52 32q-8 18 -8 44z" />
<glyph unicode="&#x22;" horiz-adv-x="458" d="M78 1396v4q0 54 6 104q6 52 -4 64q18 34 66 34h2q48 0 72 -30q12 -60 -2 -114t-30 -116q-14 -30 -42 -52q-6 -6 -14 -10q-4 -2 -8 -2q-14 0 -26 14q-10 20 -16 48q-4 28 -4 56zM282 1528q0 20 4 40q18 20 58 40q10 4 18 4q28 0 42 -48q8 -36 2 -102q-4 -68 -8 -106 q-6 -56 -34 -70q-4 0 -8 -2h-4q-20 0 -36 40q14 58 -14 118q-20 42 -20 86z" />
<glyph unicode="#" horiz-adv-x="852" d="M36 580q0 6 2 14q12 44 46 66q52 4 134 4h72l8 98q0 12 2 26q-24 -2 -48 -2q-102 -4 -114 -30q-66 14 -66 48v4q4 38 38 52q38 4 92 8q50 4 106 6l4 32q14 134 24 246t14 164q24 26 62 26q6 0 10 -2q46 -2 48 -44q2 -2 2 -6q0 -10 -4 -34q-2 -30 -8 -78q-12 -90 -32 -218 q-6 -42 -12 -82q64 2 128 2q2 4 2 8q10 160 20 242q12 18 32 18q4 0 8 -2q24 -4 38 -30q-2 -26 0 -170v-68q54 -2 98 -4q34 -22 34 -52v-2q-2 -34 -50 -42q-16 -2 -82 2q0 -64 2 -132q38 -4 72 -6q62 -4 102 -8q28 -14 28 -36v-4q-4 -26 -42 -38q-16 2 -108 0q-24 -2 -52 -2 q2 -74 4 -138v-64q0 -44 -2 -54q-6 -36 -34 -38q-8 0 -16 4q-44 12 -64 46q-4 44 -4 112v2v126h-38q-60 -2 -118 -2q-8 -74 -12 -138q-12 -128 6 -140q-8 -66 -44 -66h-2q-38 0 -62 32v12q0 46 6 138q6 74 12 160q-28 -2 -56 -2h-148q-38 6 -38 36zM388 660q74 -2 146 -6 q2 66 6 132q-36 0 -74 2h-62q-6 -44 -10 -86q-4 -22 -6 -42z" />
<glyph unicode="$" horiz-adv-x="640" d="M50 448v18q14 36 40 42t34 -26q-10 -56 36 -114q44 -58 112 -50q74 8 116 72q40 66 38 138q-2 86 -86 152q-84 64 -158 152q-40 48 -68 104q-26 58 -26 134q0 100 88 176q82 70 174 82q-4 38 -6 108q-2 32 -2 56q0 42 6 64q14 52 38 52q4 0 10 -2q30 -14 48 -34 q4 -24 4 -50q2 -44 -12 -90q-18 -58 -12 -106q38 -10 78 -32q70 -40 100 -104q14 -36 14 -74v-2q0 -42 -22 -84q-48 -36 -80 -22q-34 14 -18 62q22 74 -22 130q-44 58 -106 52q-56 -6 -114 -60t-56 -126q2 -54 34 -98t76 -86q84 -76 174 -158q92 -80 90 -206 q-2 -120 -96 -194q-58 -44 -116 -66q0 -16 2 -38q0 -28 2 -56q2 -54 8 -102q6 -46 16 -58q-28 -26 -56 -36q-8 -2 -14 -2q-20 0 -34 24q-8 40 -8 90q0 22 2 48q4 62 16 114h-16h-18q-86 0 -150 66q-60 64 -60 140z" />
<glyph unicode="%" horiz-adv-x="1100" d="M6 24v10q2 34 58 128q56 96 142 226q46 70 98 146q52 78 106 158q68 98 134 196q68 98 128 188q112 170 182 296q72 126 60 160q22 24 68 24h14q56 -4 58 -44q2 -2 0 -6q0 -4 -4 -8q-14 -34 -78 -132q-64 -96 -152 -226q-50 -72 -102 -148q-52 -78 -108 -156l-132 -192 t-124 -182q-110 -162 -180 -274t-60 -120q0 -68 -58 -70h-6q-44 0 -44 26zM52 1144q0 84 32 166q38 98 124 150q38 24 62 24t36 -22q26 -44 6 -72q-38 -32 -64 -76t-40 -92q-34 -110 -10 -212t94 -104q48 -2 86 28q38 32 64 80q36 74 40 168q2 94 -38 158q-18 28 -42 48 q-26 18 -60 26q-6 16 2 32q10 16 18 18q62 -8 104 -54q40 -46 58 -110q18 -56 18 -116q0 -46 -10 -94q-22 -114 -94 -180q-32 -28 -72 -44t-90 -16t-88 20q-40 20 -68 56t-46 84q-16 48 -20 102q-2 16 -2 32zM504 352v6q0 82 28 158q32 78 98 126q40 28 66 28q22 0 34 -20 q26 -42 10 -72q-46 -20 -74 -54q-30 -32 -46 -70q-16 -42 -20 -88t4 -90q12 -82 50 -142q40 -60 88 -58q42 2 76 22q32 20 54 50q56 74 56 186q2 112 -52 182q-20 26 -48 44q-26 16 -60 22q-8 14 2 46q8 30 16 32q108 -34 164 -132t56 -204v-4q0 -56 -14 -108 q-16 -54 -48 -96q-30 -40 -76 -66q-46 -24 -108 -28h-16q-108 0 -170 96q-68 106 -70 234z" />
<glyph unicode="&#x26;" horiz-adv-x="1120" d="M44 332v16q0 60 18 116q38 118 134 224q64 72 128 148q-44 108 -70 204q-18 68 -24 130q-6 60 2 104q18 88 56 148q40 62 90 98q76 54 162 54t144 -50q32 -28 50 -70q20 -42 22 -98q2 -98 -48 -200t-124 -202q-68 -96 -140 -188l30 -46q90 -132 196 -236q44 -44 88 -76 q2 6 6 14q48 98 62 230q-82 -4 -124 -6q-22 2 -16 20q8 16 20 26q54 4 142 6q90 4 150 4q16 -10 28 -30q12 -18 -16 -20q-22 -2 -64 -2h-76q-18 -154 -68 -274q36 -20 68 -34q50 -22 90 -22q40 -2 66 24q70 -14 70 -66q0 -6 -2 -12q-8 -62 -78 -92q-22 -10 -52 -14 q-28 -4 -62 2q-80 12 -166 80q-36 -56 -76 -100q-94 -102 -204 -138q-54 -18 -102 -18q-54 0 -104 20t-94 64q-42 44 -74 112q-34 80 -38 150zM212 378q-10 -52 6 -100q48 -140 182 -140q136 -2 254 118q16 16 30 34q-88 86 -168 202q-68 98 -126 208q-90 -110 -140 -210 q-28 -58 -38 -112zM302 1294q-24 -134 28 -286q20 -58 44 -112l8 10q76 94 130 200q56 106 54 238q0 106 -64 132q-64 28 -124 -28q-26 -24 -46 -62t-30 -92z" />
<glyph unicode="'" horiz-adv-x="228" d="M52 1454v2q0 56 6 106t-4 62q20 34 66 36h2q48 -2 72 -32q12 -60 -2 -114t-30 -116q-14 -30 -42 -52q-6 -6 -14 -8q-4 -2 -8 -2q-14 0 -24 12q-12 20 -16 48q-6 28 -6 58z" />
<glyph unicode="(" horiz-adv-x="470" d="M50 886q0 170 22 326q28 188 86 344t146 258q20 20 54 20q18 0 40 -6q62 -14 60 -58v-4q-76 -74 -130 -174q-56 -100 -92 -216q-70 -216 -76 -470q-8 -252 34 -494q34 -198 100 -372q64 -176 154 -296q-8 -52 -42 -58h-10q-28 0 -56 22q-66 118 -118 246q-50 130 -86 264 q-66 252 -82 510q-4 80 -4 158z" />
<glyph unicode=")" horiz-adv-x="540" d="M86 -240q116 116 186 288q68 170 96 368q32 238 10 492q-24 254 -92 474q-36 118 -84 220t-106 182q8 50 42 56h10q28 0 56 -22q102 -180 168 -386q66 -208 96 -418q18 -138 24 -274q2 -50 2 -98q0 -86 -6 -168q-16 -238 -78 -438q-64 -200 -170 -322q-20 -22 -54 -20 q-18 0 -40 4q-62 16 -60 58v4z" />
<glyph unicode="*" horiz-adv-x="608" d="M42 1346v6q0 36 68 78q72 46 72 64q-6 16 -32 74q-26 60 -12 86q2 4 8 8q8 2 14 0q26 -6 66 -42q40 -34 56 -40q16 12 62 62t48 64q0 18 10 18q4 0 6 -2q18 -8 24 -26q10 -22 -2 -90t4 -82q4 -12 60 -12q54 2 86 -18q6 -4 6 -18v-20q-28 -44 -80 -50q-50 -6 -74 -16 q-14 -18 -4 -88q8 -70 -8 -110q-2 -4 -8 -6q-6 -4 -8 -4q-38 0 -76 68q-40 70 -66 84q-14 0 -90 -8q-76 -6 -116 0q-4 0 -10 8q-4 8 -4 12z" />
<glyph unicode="+" horiz-adv-x="4178" d="M70 806q0 90 32 174q24 68 70 122q46 56 118 96q104 56 224 38q120 -16 248 -80q134 -68 270 -176q138 -106 268 -226q156 -142 296 -280q140 -136 244 -218q56 -44 100 -66q42 -24 72 -16q54 12 64 88q10 74 -10 182q-12 58 -30 122q-12 42 -26 88q-102 92 -190 192 q-150 168 -210 304q-32 72 -32 128q0 58 40 90q42 36 88 36h12q54 -6 108 -44q100 -70 192 -230q90 -158 144 -340q22 -80 36 -158l6 -36l12 -10q138 -110 278 -198q138 -90 256 -126q62 -20 116 -22q52 -2 92 16q84 44 84 186q-2 122 -34 260l-40 34q-134 114 -226 230 q-94 116 -110 208q-8 50 10 92q18 40 70 68q94 54 196 -56q102 -112 170 -290q50 -134 74 -282q104 -80 220 -154q166 -108 302 -164q72 -30 132 -40q58 -12 96 4q42 18 14 92q-30 76 -94 162q-82 108 -188 198t-176 82q-22 40 -8 76q16 34 38 40q64 -10 134 -40t138 -76 q126 -82 216 -200q86 -110 86 -216v-10q-2 -56 -36 -108q-34 -50 -108 -90q-34 -20 -100 -10q-64 10 -148 42q-154 58 -348 180q-84 52 -162 108q2 -96 -18 -176q-16 -68 -52 -122q-34 -52 -90 -84q-48 -26 -110 -26q-62 -2 -134 16q-134 34 -292 126q-128 76 -250 168v-6 q2 -136 -42 -236t-154 -128q-18 -6 -38 -6q-58 0 -128 38q-96 50 -208 142q-74 60 -152 132t-160 150q-150 142 -308 282q-156 138 -302 226q-116 68 -222 90q-104 22 -192 -26q-88 -50 -106 -182q-20 -134 12 -278q14 -62 36 -120t50 -108q54 -94 130 -142q74 -50 162 -18 q72 28 112 66t56 80q24 68 -6 126t-86 64q-26 2 -54 -8q-26 -10 -54 -34q-46 4 -50 30q-2 28 22 60q64 28 116 30q50 0 88 -20q72 -38 92 -132q18 -94 -24 -186q-24 -48 -66 -88q-42 -42 -104 -66q-100 -38 -196 -4t-174 114q-116 122 -168 308q-26 90 -26 172zM1650 1230 q10 -42 46 -102q70 -110 212 -258l38 -40q-34 80 -70 158q-68 144 -124 226q-30 44 -52 66q-24 20 -38 10q-24 -18 -12 -60zM2700 1200q2 -26 22 -64q36 -68 128 -162q50 -52 108 -106q-4 8 -6 16q-26 68 -52 128q-50 110 -100 178q-50 66 -78 50q-22 -12 -22 -40z" />
<glyph unicode="," horiz-adv-x="212" d="M42 -78q0 50 6 94q4 48 -4 58q18 32 60 32h2q44 -2 64 -28q6 -32 6 -60q-2 -22 -8 -44q-12 -48 -26 -106q-14 -26 -38 -46q-12 -10 -22 -10t-20 12q-12 18 -16 42q-4 26 -4 54v2z" />
<glyph unicode="-" horiz-adv-x="632" d="M40 722q0 48 48 54q2 2 4 2q22 0 90 -16q74 -16 152 -28q64 -10 114 -10t60 22q68 -14 66 -50v-2q-4 -38 -36 -54q-72 -6 -144 -8q-42 0 -84 4q-114 6 -236 18q-34 20 -34 68z" />
<glyph unicode="." horiz-adv-x="220" d="M30 12q6 40 36 74q28 28 54 28h8q36 -6 54 -48q12 -28 10 -54q0 -12 -2 -24q-10 -36 -44 -52q-28 -14 -52 -14q-6 0 -12 2q-34 4 -36 38t-16 50z" />
<glyph unicode="/" horiz-adv-x="1148" d="M40 -44q2 2 2 6q0 24 28 80q26 56 70 136q84 150 212 362l256 424q56 92 110 182q52 90 98 170q86 148 134 252q50 104 40 132q22 26 70 26h12q56 -4 60 -46q0 -16 -58 -114q-58 -100 -150 -252q-48 -80 -106 -172q-56 -92 -114 -188q-72 -118 -146 -236 q-72 -118 -138 -228q-122 -202 -202 -342q-80 -142 -68 -150q0 -66 -58 -68h-8q-44 0 -44 26z" />
<glyph unicode="0" horiz-adv-x="1060" d="M82 620v60q0 58 4 118q8 92 26 178q36 164 110 298t184 202q50 30 86 36q14 2 26 2q22 0 38 -6q50 -20 60 -74t-12 -90q-96 -80 -160 -232q-64 -150 -94 -316q-14 -88 -20 -176t-4 -166q6 -146 46 -244t112 -100q146 -4 250 150q102 152 144 358q36 162 28 328t-64 282 q-30 62 -76 106q-46 42 -108 56q-12 28 4 42q14 16 30 18q62 -8 110 -42q50 -34 86 -86q68 -100 94 -250q18 -98 18 -200q0 -56 -4 -112q-16 -166 -72 -322q-58 -156 -156 -260q-60 -64 -138 -102q-76 -38 -168 -38h-2q-76 0 -136 34t-104 90q-64 82 -98 202t-40 256z" />
<glyph unicode="1" horiz-adv-x="628" d="M24 1302v2q0 16 16 28q18 -6 64 24q46 28 92 70q24 22 44 46t32 46q6 42 56 42h2q52 -2 98 -44q18 -18 34 -44q14 -26 18 -58q-24 2 -36 -106q-10 -110 -10 -274q-2 -90 0 -188t4 -198q4 -190 8 -360t4 -260q32 -2 60 -2q26 2 54 2q16 -12 20 -20v-6q0 -6 -6 -14 q-160 2 -264 0t-228 -4q-6 4 -6 18t10 20q52 2 94 4q44 2 88 0q-30 198 -38 466q-8 266 2 508q4 130 14 244q8 114 20 196q-2 -18 -40 -52q-38 -36 -86 -64q-24 -16 -50 -28q-24 -12 -44 -18q-24 6 -26 24z" />
<glyph unicode="2" horiz-adv-x="1148" d="M96 196q0 22 8 46q24 80 130 114q52 16 112 6q52 -10 110 -28q18 38 38 82q26 64 50 134q24 72 44 146q48 170 74 340t18 284q-4 60 -20 100q-14 38 -44 44q-34 8 -68 -10q-32 -18 -60 -50q-40 -48 -58 -116q-18 -66 0 -118q-6 -60 -66 -88t-104 4q-14 10 -24 28t-12 46 q14 226 138 314q94 66 204 66q36 0 72 -6q72 -14 118 -60q46 -48 72 -120q48 -132 30 -324t-82 -382q-26 -84 -62 -164q-34 -80 -74 -148q-18 -28 -34 -56q60 -22 124 -48q134 -58 266 -50q44 -8 46 -40q0 -16 -10 -36q-28 -62 -100 -80q-78 8 -146 38q-70 30 -134 68 q-56 34 -108 66q-34 -38 -68 -70q-88 -80 -180 -80q-56 0 -96 16q-40 14 -64 40q-40 40 -40 92zM172 220q16 -68 114 -68q50 2 104 74q18 24 34 52q-94 60 -180 36q-86 -26 -72 -94z" />
<glyph unicode="3" horiz-adv-x="848" d="M46 248v20q0 86 28 140q20 32 54 28q32 -6 30 -44q-14 -24 -20 -82q-8 -58 -2 -118q4 -32 12 -60q6 -30 18 -48q10 -14 20 -22q12 -8 26 -8q80 -2 156 82q74 84 132 210q32 68 56 142q26 74 42 146q38 174 20 314q-18 138 -120 152q-74 12 -136 -32q-62 -42 -90 -56 q-34 4 -32 28q0 24 18 66q52 40 118 100t112 114q26 30 40 54q16 24 18 42q-6 10 -74 10t-150 -2h-104q-50 2 -82 6q-32 10 -42 52q-10 44 28 58q304 -14 456 -20q30 -10 54 -38q24 -26 20 -54q-4 -24 -16 -48q-14 -26 -30 -52q-32 -46 -70 -84q-38 -40 -56 -50 q144 16 244 -132q90 -136 88 -358v-42q-8 -236 -112 -382q-102 -146 -230 -212q-68 -36 -136 -50q-50 -10 -94 -10h-30q-38 4 -66 24q-28 18 -48 48q-48 68 -50 168z" />
<glyph unicode="4" horiz-adv-x="1148" d="M118 728q0 28 22 62q56 116 140 252q84 134 144 252q32 62 50 116q20 54 20 92q44 48 88 48q18 0 36 -6q64 -28 88 -136q-26 -54 -80 -134t-114 -166q-90 -128 -168 -236q-78 -110 -70 -130q20 -4 154 -2q100 2 216 2q2 68 4 134q2 110 4 204q0 94 2 162q20 64 58 80 q6 2 14 2q32 0 70 -64q-28 -24 -32 -128t0 -246q4 -68 6 -142q58 0 114 2q82 2 148 2q18 -10 18 -26q0 -6 -2 -10q-6 -24 -30 -50q-118 -2 -244 -10q4 -48 8 -94q8 -162 10 -310t-14 -242q-6 -76 -54 -76h-2q-48 2 -90 66q4 202 8 438q2 108 2 208q-24 -2 -50 -4 q-92 -8 -176 -8q-114 0 -212 16q-50 6 -76 46q-10 16 -10 36z" />
<glyph unicode="5" horiz-adv-x="958" d="M70 302q0 32 8 64q12 54 48 104q28 30 52 20q22 -10 22 -50q-26 -42 -36 -84q-8 -44 -2 -84q10 -74 58 -124q50 -52 116 -50q58 2 106 26t86 66q60 66 96 162t46 198q14 152 -32 278q-44 126 -152 134q-56 6 -106 -26q-52 -32 -92 -68q-22 -18 -42 -34q-18 -16 -32 -24 q-36 0 -52 26q-16 28 -18 48q-6 28 -14 96q-8 70 -12 154q-6 126 2 244q10 120 50 142q16 8 30 8q20 0 34 -14q26 -24 54 -26q156 -10 280 -18t174 26q62 32 74 -18q12 -52 -56 -62q-128 -36 -260 -26q-134 12 -206 16q-4 -258 -4 -386q162 52 292 44q128 -10 204 -126 q40 -62 62 -158q22 -98 22 -238v-2q0 -258 -154 -404q-134 -128 -322 -128q-32 0 -64 4q-98 10 -170 82t-86 166q-4 20 -4 42z" />
<glyph unicode="6" horiz-adv-x="928" d="M124 536v30q0 68 10 132t28 138t48 152q52 142 142 278t224 218q38 24 106 28q10 2 20 2q52 0 74 -24q8 -10 8 -24q2 -14 -8 -32q-16 -36 -92 -78q-76 -40 -158 -140q-44 -54 -84 -130q-42 -78 -70 -186q106 64 224 36q116 -26 194 -126q42 -52 68 -124t28 -160v-12 q0 -58 -12 -118q-16 -64 -42 -124q-52 -112 -140 -190q-84 -72 -188 -72h-8q-142 4 -230 110t-122 254q-18 78 -20 162zM332 488q0 -44 2 -90q10 -132 50 -236q38 -102 114 -104h6q108 0 178 144q70 146 70 338v6q0 146 -96 246q-76 84 -174 84q-22 0 -44 -4q-20 -4 -36 -26 q-18 -24 -30 -62q-26 -70 -36 -174q-4 -60 -4 -122z" />
<glyph unicode="7" horiz-adv-x="820" d="M30 1460v10q-2 50 66 68q18 -22 122 -12q104 8 234 14q50 4 102 4q20 0 40 -2q72 0 134 -12q26 0 40 -24q6 -14 6 -28q0 -10 -4 -22q-12 -30 -48 -148q-36 -116 -80 -276q-24 -86 -48 -180q-26 -94 -48 -190q-36 -148 -64 -288t-40 -250q4 -60 -32 -88q-18 -14 -38 -14 q-16 0 -32 10t-28 32t-18 56q-6 38 16 158q20 120 54 276q18 82 40 170q20 90 40 176q48 200 86 352t38 162q-12 2 -52 0t-92 -8q-80 -6 -170 -14q-90 -6 -144 2q-72 8 -80 66z" />
<glyph unicode="8" horiz-adv-x="744" d="M48 1154v14q0 46 10 88q20 86 74 142q54 58 108 90q44 24 86 -6q42 -32 18 -62q-28 -4 -72 -50q-42 -46 -66 -118q-12 -38 -14 -82t12 -90q10 -36 56 -76t108 -92l4 -4q74 88 126 166q34 48 56 90q20 42 22 78q4 38 -6 70q-10 34 -30 60q-34 50 -82 80q-50 30 -82 34 q-22 36 -2 58q12 10 28 10t40 -10q88 -34 164 -102q78 -70 66 -212q-4 -42 -26 -90q-22 -46 -54 -96q-62 -94 -150 -198q4 -4 8 -6q44 -38 82 -84q72 -84 118 -196q34 -80 34 -178q0 -40 -6 -82q-10 -76 -40 -132t-74 -96t-100 -60q-56 -22 -112 -22h-2q-104 0 -190 70 q-88 70 -98 214q-8 102 30 200q36 100 98 194q34 54 72 106q-34 40 -68 78q-100 106 -124 182q-20 64 -22 120zM152 282q6 -90 86 -120t146 26q30 24 50 64q20 42 26 102q6 68 -20 136t-68 134q-24 36 -50 70q-20 -30 -40 -58q-60 -88 -98 -178q-40 -90 -32 -176z" />
<glyph unicode="9" horiz-adv-x="858" d="M38 1050q0 38 4 78q10 66 32 128q42 116 126 200q82 82 190 88h16q66 0 124 -26q62 -30 112 -82q90 -98 132 -252q32 -118 32 -234q0 -32 -2 -66q-10 -120 -48 -272t-116 -290q-42 -74 -96 -140t-122 -116q-38 -26 -104 -36q-18 -2 -34 -2q-40 -2 -60 18q-10 10 -12 24 q-2 12 6 32t34 44q26 26 64 60q68 66 150 182t120 320q-54 -38 -116 -54t-122 -8q-112 12 -202 102q-90 88 -106 250q-2 26 -2 52zM224 1092q0 -48 8 -96q18 -120 110 -194q60 -50 134 -50q36 0 76 12q30 10 50 76q18 66 22 156v50v52q-2 54 -10 104q-16 120 -60 208 q-42 86 -110 86q-4 -2 -10 -2q-62 -4 -116 -76q-52 -72 -78 -178q-12 -56 -16 -118v-30z" />
<glyph unicode=":" horiz-adv-x="222" d="M16 52q0 26 12 52q18 40 54 46h8q26 0 52 -28q32 -32 38 -72q-14 -18 -16 -52t-36 -38h-12q-26 0 -52 12q-34 16 -44 52q-4 14 -4 28zM34 786q0 24 26 56q30 34 68 32q6 -26 38 -34t34 -40q2 -30 -16 -64q-10 -18 -26 -28q-10 -8 -26 -10h-8q-30 0 -56 26q-28 30 -32 54 q-2 4 -2 8z" />
<glyph unicode=";" horiz-adv-x="228" d="M44 778v8q-2 26 24 56q30 34 68 34q8 -28 40 -36t34 -40q0 -30 -16 -64q-12 -20 -28 -30q-12 -6 -24 -6q-4 -2 -8 -2q-32 0 -58 26q-28 30 -32 54zM50 -96q0 50 6 96q4 46 -4 58q18 32 60 32h2q46 0 68 -28q4 -28 4 -54q0 -28 -6 -52q-12 -50 -28 -108q-14 -28 -38 -48 q-12 -10 -22 -10q-12 0 -22 12q-12 18 -16 44t-4 54v4z" />
<glyph unicode="&#x3c;" horiz-adv-x="628" d="M20 648q2 18 60 68q60 52 136 116q96 76 184 154q90 76 102 114q14 4 26 4q6 0 12 -2q16 -4 28 -14q30 -26 42 -78q4 -26 4 -48q0 -20 -4 -36q-38 -28 -88 -62l-104 -68q-98 -64 -180 -120q-84 -56 -90 -74q14 -16 74 -84q60 -66 130 -142q40 -40 78 -80q36 -38 68 -68 q14 -34 4 -68q-8 -30 -34 -28h-12q-14 24 -72 90q-60 66 -132 144q-86 94 -160 180q-72 82 -72 102z" />
<glyph unicode="=" horiz-adv-x="664" d="M22 500q0 6 2 14q12 44 48 66q86 8 188 8q42 0 88 -2q154 -4 268 -16q28 -14 28 -36v-6q-4 -24 -40 -36q-18 0 -84 -4q-68 -4 -152 -8q-100 -6 -194 -12q-72 -4 -100 -4h-14q-38 6 -38 36zM30 734v4q4 38 38 52q114 14 268 18h86q104 0 190 -6q32 -20 34 -60q0 -4 -2 -8 q-2 -46 -50 -54h-4q-26 0 -104 10q-88 12 -182 18q-76 6 -138 2q-60 -4 -70 -24q-66 14 -66 48z" />
<glyph unicode="&#x3e;" horiz-adv-x="650" d="M26 962q0 22 6 50q10 50 40 76q12 12 28 16h12q12 0 26 -4q10 -30 74 -88t142 -124q96 -78 180 -148t86 -92h2q0 -14 -50 -74q-52 -62 -122 -138q-84 -94 -168 -184q-82 -90 -98 -118q-6 -2 -10 -2q-28 0 -36 28q-10 36 4 70q32 28 70 68q36 38 76 78q70 76 130 144 q60 66 74 84q-6 16 -90 72q-82 56 -180 120q-52 36 -104 68q-50 34 -88 62q-4 16 -4 36z" />
<glyph unicode="?" horiz-adv-x="766" d="M20 1190v14q0 122 104 220q110 104 250 116q12 2 26 2q46 0 92 -14q58 -16 110 -60q68 -60 96 -132q22 -60 22 -122q0 -16 -2 -30q-12 -144 -110 -274q-100 -130 -224 -178q-36 -12 -56 -38q-18 -26 -26 -56q-16 -58 -8 -122q10 -64 14 -98q-10 -50 -50 -52q-8 0 -16 2 q-54 10 -58 58q20 26 16 104q-2 76 16 156q10 42 30 78t60 60q50 30 106 90t100 132q66 110 88 220q20 110 -58 160q-58 38 -132 8q-74 -32 -130 -92q-36 -40 -58 -86q-20 -48 -16 -90q-4 -32 -18 -52t-32 -28q-42 -18 -88 14q-46 34 -48 90zM186 74q6 40 36 74q26 28 52 28 h10q36 -6 54 -48t6 -78q-2 -10 -6 -18q-12 -22 -38 -34q-26 -14 -50 -14q-6 0 -14 2q-32 4 -34 38t-16 50z" />
<glyph unicode="@" horiz-adv-x="1402" d="M38 742v26q0 216 72 374q78 168 206 264q70 52 152 82q80 30 168 36q38 2 74 2q170 0 296 -62q152 -74 236 -206q46 -72 70 -158q24 -84 26 -178v-22q0 -96 -24 -182q-26 -94 -68 -172q-80 -146 -188 -220q-108 -76 -168 -50q-34 16 -54 44q-22 28 -32 62q-22 84 -10 178 q14 96 10 132q-4 -26 -18 -98q-16 -74 -44 -140q-18 -44 -42 -76t-56 -36q-84 -12 -156 36q-72 50 -92 128q-14 64 -12 126q2 64 18 124q30 110 90 196t114 118q64 36 142 32q80 -4 116 -48q4 -6 0 -22q-6 -16 -14 -18q-56 46 -106 14q-48 -34 -86 -110q-20 -40 -34 -88 q-16 -48 -28 -96q-24 -116 -18 -212q4 -94 50 -92q22 2 48 62q24 60 48 140q30 96 52 188t24 104q8 20 48 38q42 16 80 4q18 -6 32 -18q12 -12 20 -34q-10 -8 -30 -80q-18 -74 -34 -166q-18 -112 -26 -216q-8 -102 14 -112q40 -20 116 58q74 76 130 204q30 70 50 148 q18 78 16 158q-4 136 -74 268q-68 134 -190 214q-66 42 -146 62q-80 22 -174 12q-60 -4 -120 -32q-60 -26 -114 -72q-102 -86 -166 -242q-64 -154 -56 -376q2 -56 16 -118q12 -62 38 -124q44 -114 128 -218q82 -102 200 -158q98 -46 222 -50q122 -4 268 56q56 8 48 -28 q-6 -36 -44 -62q-168 -46 -304 -46h-40q-152 8 -266 60q-138 62 -224 174q-88 110 -132 238q-22 70 -34 140t-14 136z" />
<glyph unicode="A" d="M40 776v60q6 302 34 504q18 129 18 185q0 32 -6 41q14 24 36 24q14 0 34 -10q46 -26 50 -56q8 -32 14 -98q6 -64 10 -138q6 -114 10 -212q4 -100 10 -102q2 10 10 36q6 26 16 60q20 66 48 154q30 86 68 166t84 136q42 54 91 54h3q100 -4 154 -126t80 -300q14 -96 20 -202 t8 -214q2 -84 2 -166v-146q-4 -150 -6 -252v-96q0 -40 4 -56q-22 -40 -86 -40q-14 0 -30 2q-88 10 -118 70q-16 95 -16 254v36q0 76 2 156q-10 0 -20 -2q-100 -12 -202 -38q-42 -10 -78 -20q0 -6 2 -12q18 -166 26 -368q-10 -29 -60 -29q-20 0 -46 5q-92 16 -108 82 q-36 192 -48 374q-10 150 -10 284zM258 828q8 -194 22 -342q46 12 96 24q102 20 206 32h2q2 92 6 188q4 104 6 208q4 104 6 198v67q0 130 -6 223q-6 116 -36 120h-2q-31 0 -74 -76q-44 -78 -88 -188q-54 -132 -94 -268q-42 -138 -44 -186z" />
<glyph unicode="B" horiz-adv-x="976" d="M72 702v34q2 298 14 498q8 108 12 182q2 30 2 52q0 34 -4 54q5 49 35 49q8 0 17 -3q46 -14 64 -42q26 -74 40 -148t22 -142q16 -126 18 -214q2 -90 14 -98q10 10 32 138q22 126 66 260q30 90 70 160q40 72 94 92q30 12 60 12q68 0 130 -52q86 -73 86 -182v-10 q-2 -96 -30 -180q-30 -86 -70 -158q-76 -134 -164 -214q-86 -80 -98 -94q34 6 82 6q48 -2 100 -12q96 -20 182 -86q84 -66 90 -210v-32q0 -192 -112 -264q-65 -40 -153 -40q-78 0 -175 32q-36 12 -36 54q2 40 18 66h14q8 -2 14 -12q-1 -5 -1 -10q0 -50 73 -58q12 -1 24 -1 q64 0 106 37q34 28 40 114q1 18 1 37q0 68 -17 135q-14 58 -42 106t-68 70q-52 28 -116 28q-18 0 -36 -2q-86 -10 -124 -30q4 -154 14 -326q6 -136 6 -239v-49q-12 -28 -58 -28q-16 0 -38 4q-80 12 -124 56q-12 12 -18 24q-8 14 -10 28q-46 326 -46 608zM340 698 q14 -4 28 -4q16 0 34 6q30 12 42 30q44 66 84 166q42 100 72 206q44 158 56 292q2 26 2 48q0 88 -38 96q-2 2 -4 2q-32 0 -90 -108q-60 -118 -112 -300q-28 -98 -48 -208q-20 -112 -26 -226z" />
<glyph unicode="C" horiz-adv-x="772" d="M48 770v22q0 148 38 326q44 192 136 316q50 68 116 104q52 30 114 30q16 0 32 -2q146 -16 190 -128q35 -84 35 -199q0 -35 -3 -73q-10 -26 -38 -38q-30 -12 -36 20q9 48 9 108q0 20 -1 42q-2 84 -36 144q-18 34 -44 54q-28 20 -68 24h-2q-63 0 -100 -128 q-38 -130 -54 -294q-10 -90 -14 -176q-4 -88 -4 -160q0 -60 10 -140q10 -78 28 -160q32 -152 90 -274q56 -124 122 -124q34 0 56 56t32 128q8 46 10 94q1 24 1 45t-1 39q8 16 30 12q24 -6 28 -28q0 -50 -6 -160t-50 -186q-18 -32 -48 -52q-28 -22 -68 -22h-12q-80 0 -146 30 q-70 32 -128 90q-104 110 -160 288q-54 180 -58 372z" />
<glyph unicode="D" horiz-adv-x="1012" d="M92 742v98q0 206 10 370q6 112 6 210q0 78 -4 148q14 24 38 24q16 0 34 -10q50 -26 54 -56q10 -32 18 -98t16 -144q12 -114 24 -216q10 -102 14 -104q8 26 38 134t80 224q26 62 58 116q30 56 66 92q26 26 54 40t56 12q124 -12 188 -120t92 -262q14 -84 20 -174 q4 -90 6 -180v-10q0 -88 -16 -212q-14 -130 -54 -250q-22 -64 -52 -120t-68 -96q-48 -50 -110 -68q-28 -9 -60 -9q-38 0 -80 13q-34 10 -42 50q-3 15 -3 28q0 20 7 36q8 2 16 0q6 -2 14 -8q-4 -16 8 -36q12 -22 28 -24q11 -2 21 -2q64 0 101 96q42 110 60 254q12 94 16 184 q1 45 1 82t-1 66q-4 66 -10 150q-6 82 -14 166q-12 156 -32 282t-46 128h-3q-31 0 -77 -74q-46 -78 -94 -188q-60 -132 -106 -268q-46 -138 -48 -186q26 -232 46 -424q15 -159 15 -321q0 -36 -1 -73q-10 -28 -62 -28q-12 0 -24 2q-76 6 -124 46l-20 20q-8 12 -10 26 q-24 190 -32 354q-10 166 -12 310z" />
<glyph unicode="E" horiz-adv-x="728" d="M62 598v40q0 234 42 466q48 252 136 464q26 20 52 20q12 0 22 -4q38 -10 64 -32q30 -12 107 -12h23q96 2 174 12q14 0 18 -10v-6q0 -6 -4 -12q-76 -34 -166 -40q-92 -4 -128 -14q-4 -8 -10 -42q-6 -32 -12 -80q-10 -92 -22 -228t-20 -274q-12 -172 -18 -310 q-1 -46 -1 -79q0 -66 5 -79q7 -7 30 -7q25 0 70 9q84 18 142 52q22 0 24 -22t-12 -38q-64 -42 -138 -50q-76 -10 -102 -16q-8 -10 -2 -54q8 -44 22 -92q10 -38 26 -66q14 -30 28 -32h3q28 0 107 28q84 30 144 58q4 -6 6 -16t-6 -22q-64 -38 -150 -72q-84 -36 -114 -42 q-24 -4 -50 -4q-46 0 -100 12q-88 20 -116 68q-36 122 -54 256q-18 132 -20 270z" />
<glyph unicode="F" horiz-adv-x="660" d="M48 604q0 226 36 454q38 258 100 478q12 30 80 30h6q74 0 154 -10q54 -4 102 -8q18 -2 33 -2q22 0 35 4q24 2 24 -14v-2q-2 -18 -22 -26q-27 -5 -63 -5t-81 5q-31 4 -54 4q-41 0 -56 -12q-8 -18 -14 -66q-6 -50 -10 -116q-6 -128 -8 -290q-4 -162 -10 -286q6 -6 25 -6 q24 0 69 10q80 18 118 36q28 10 42 -10q12 -22 -6 -30q-36 -22 -118 -36t-124 -22q-4 -7 -4 -45q0 -25 2 -63q2 -96 16 -212q10 -76 26 -148t40 -122q0 -32 -20 -58q-20 -24 -50 -40q-40 -18 -86 -18h-14q-56 4 -92 42q-36 120 -54 252t-20 270q-2 32 -2 62z" />
<glyph unicode="G" horiz-adv-x="910" d="M68 748q0 26 2 54q4 108 26 210q22 104 58 194q66 168 172 274q100 102 220 102h10q134 -4 174 -110q40 -99 40 -255v-15q0 -24 -22 -38q-22 -12 -36 14l-6 144q-4 96 -40 160q-16 30 -40 46q-24 18 -58 20h-3q-64 0 -107 -86q-46 -86 -72 -224q-14 -74 -22 -160 q-8 -84 -10 -172q-1 -29 -1 -58q0 -173 21 -344q24 -198 76 -326q26 -68 62 -106t80 -38q26 2 44 80q18 80 28 184q12 126 14 242q2 58 2 88.5t-2 33.5q-18 4 -52 0t-62 -4q-48 -6 -46 26q0 34 44 44q45 8 90 8q22 0 44 -2q33 -3 66 -3l66 3q42 2 42 -30v-2q0 -34 -38 -36 q-26 -2 -62 0q-34 0 -46 -4q3 -23 3 -64q0 -21 -1 -46q-4 -78 -10 -168q-12 -134 -34 -258q-20 -122 -52 -136q-20 -14 -64 -14q-8 0 -14 2q-56 2 -114 20q-30 8 -56 22q-28 14 -46 30q-154 144 -214 346q-54 174 -54 352z" />
<glyph unicode="H" horiz-adv-x="870" d="M64 594q0 142 20 274q28 178 62 316q30 114 54 192q24 80 26 112q18 26 48 26q18 0 42 -12q56 -30 60 -92q-61 -303 -61 -585q0 -61 3 -121q4 -118 14 -228q70 6 142 10q88 4 172 20l2 56q8 226 30 464q24 236 44 524q14 22 42 20q12 0 26 -2q44 -12 44 -44v-8 q-22 -138 -38 -302q-16 -162 -26 -324q-10 -196 -12 -374v-84q0 -121 4 -210q2 -64 8 -106q4 -42 12 -54q-14 -28 -54 -34h-8q-34 0 -56 42q-12 128 -16 250q-2 58 -2 118v28q-82 -20 -166 -22q-72 -4 -144 -10q20 -188 56 -360q0 -16 -12 -30q-16 -18 -52 -38 q-42 -22 -80 -22q-20 0 -40 6q-18 6 -32 20q-16 14 -24 38q-40 110 -60 222t-24 218q-4 54 -4 106z" />
<glyph unicode="I" horiz-adv-x="608" d="M26 1540q0 10 10 20q44 2 86 2q78 0 146 -2q106 -2 166 -2q24 0 18 -14t-16 -24q-19 -1 -36 -1q-34 0 -58 3q-38 4 -48 0q22 -144 44 -276t42 -260q34 -236 50 -462q6 -90 6 -184q0 -140 -14 -286q20 0 58 -6q40 -6 88 -12q12 -4 12 -14q0 -2 -2 -4q-4 -12 -18 -18 q-188 12 -286 22q-45 5 -92 5q-56 0 -112 -7q-8 8 -8 20q0 10 8 18q32 0 64 4q16 2 32.5 2t33.5 -2q-8 150 -10 304v308q4 280 8 512q2 87 2 156q0 115 -6 180q-14 -1 -31.5 -1t-38.5 1q-42 2 -88 2q-12 6 -10 16z" />
<glyph unicode="J" horiz-adv-x="854" d="M44 372v16q2 130 14 256q2 34 36 18q34 -14 38 -50q-6 -28 -20 -114q-12 -77 -12 -157v-23q0 -64 12 -120q12 -58 42 -92q24 -30 62 -40q13 -3 28 -3q31 0 68 13q24 8 44 48t34 104q26 118 38 300t18 380q4 164 8 324q2 160 8 290q-12 1 -29 1q-35 0 -91 -3 q-84 -2 -124 -8q-10 8 -18 26t24 22q72 2 146 2q86 0 176 -2q166 -4 238 -8q30 2 30 -12v-2q-2 -18 -24 -26q-66 2 -134 6t-104 4q22 -94 44 -214t38 -252q20 -169 20 -340q0 -80 -4 -160q-12 -254 -120 -416q-22 -36 -56 -60q-36 -26 -74 -42q-76 -32 -152 -36h-26 q-54 0 -80 14q-28 18 -48 54q-18 38 -30 90q-20 90 -20 212z" />
<glyph unicode="K" horiz-adv-x="1080" d="M44 150q22 106 36 272q12 168 18 344q2 86 2 168.5t-2 161.5q-2 156 -12 256q-6 52 -14 82q-6 32 -16 32v10q0 64 50 80q18 4 32 4q32 0 52 -28q0 -18 10 -58t22 -100q26 -108 56 -268q28 -156 38 -334q82 6 158 112q92 128 160 288q38 86 66 170q30 84 48 146 q8 42 34 42q10 0 20 -6q42 -18 68 -68q5 -39 5 -77q0 -70 -17 -133q-26 -100 -74 -184q-32 -56 -68 -104q-38 -48 -74 -90q-68 -74 -122 -120q-56 -46 -62 -56q12 -16 48 -124q38 -110 96 -230q38 -80 86 -150q46 -70 100 -104q43 -28 88 -28h6q50 2 102 52q42 22 48 -16 q2 -6 2 -12q0 -30 -32 -50q-54 -32 -110 -32h-16q-64 6 -124 42q-94 56 -176 164t-144 224q-32 62 -58 122q-26 58 -42 108h-14q-2 -104 -14 -212q-16 -162 -72 -316q-4 -10 -8 -18q-26 -48 -82 -48h-14q-76 8 -84 86z" />
<glyph unicode="L" horiz-adv-x="684" d="M54 40q58 558 106 946q35 271 35 441q0 75 -7 131q16 26 42 26q22 0 54 -18q68 -40 86 -144q24 -102 30 -242q5 -93 6 -191q0 -49 -2 -99q-4 -96 -8 -194q-6 -96 -14 -186q-14 -166 -30 -290q-14 -122 -20 -156q84 12 180 22q44 5 74 5q36 0 54 -7q14 -10 14 -22t-10 -18 q-20 0 -78 -2t-116 -8q-34 -2 -60 -8q-28 -4 -46 -12q-26 -14 -58 -22q-32 -10 -64 -14q-20 -2 -38 -2q-38 0 -72 10q-50 14 -58 54z" />
<glyph unicode="M" horiz-adv-x="1378" d="M46 508q0 110 6 224q8 194 22 378q14 182 22 304q2 66 2 108q0 44 -8 54q12 36 52 36q10 0 24 -2q62 -12 88 -68q6 -70 12 -170q4 -100 8 -204q6 -156 8 -282q4 -126 6 -138q6 44 38 172q34 128 76 260q28 88 58 160q28 74 54 110q16 24 60 24q42 0 78 -30q18 -16 32 -40 q14 -26 18 -60q2 -52 4 -158q0 -104 2 -224q0 -62 2 -124v-120q2 -104 4 -176t4 -74q4 4 12 28q6 26 18 68q18 80 50 204q34 124 80 254q48 134 114 252q64 118 148 178q22 16 47.5 16t54.5 -16q58 -32 78 -96q10 -50 10 -132q0 -32 -2 -70q-4 -132 -18 -288 q-8 -84 -16 -170t-14 -170q-14 -156 -20 -286q-1 -26 -1 -48q0 -91 13 -138q1 -5 1 -9q0 -47 -59 -55q-12 -2 -22 -2q-50 0 -92 34q-16 14 -28 34t-16 46q-5 101 -5 196t5 184q10 178 28 326q36 274 78 432q29 111 29 148q0 16 -5 18q-5 1 -9 1q-33 0 -75 -59 q-46 -70 -96 -182q-26 -60 -52 -130q-26 -68 -50 -140q-46 -138 -82 -274q-38 -136 -56 -230q-8 -30 -22 -46q-14 -18 -32 -26q-17 -6 -34 -6q-26 0 -54 14q-46 26 -56 62q-24 96 -28 224q-1 43 -1 86q0 86 3 172q4 126 12 240q8 112 8 182q0 38 -4 60t-12 22h-2 q-24 0 -68 -114q-46 -120 -88 -262q-34 -118 -60 -222q-24 -106 -26 -144q6 -102 14 -186q8 -86 10 -184q-6 -30 -18 -54q-14 -26 -30 -46q-56 -60 -128 -68q-8 -1 -16 -1q-57 0 -64 53q-20 116 -22 270q-2 44 -2 90z" />
<glyph unicode="N" horiz-adv-x="930" d="M40 378v6q0 172 12 362q6 100 14 200q8 98 16 188q12 168 20 284q2 39 2 67q0 56 -8 65q26 46 70 46q10 0 18 -2q58 -10 80 -64q22 -212 24 -400v-60q0 -143 -8 -226q6 12 18 46t32 84q38 92 106 218q70 128 182 252q22 22 46 30q26 6 50 2q48 -10 86 -52t44 -92 q10 -72 12 -154q1 -27 1 -54q0 -55 -3 -112q-6 -158 -22 -320q-16 -160 -20 -292q-1 -27 -1 -52q0 -75 9 -134q12 -80 50 -110q4 -12 4 -22t-4 -20q-4 -18 -16 -30q-28 -34 -86 -34h-18q-72 6 -102 52q-56 84 -64 246q-2 44 -2 90q0 122 12 254q16 180 40 350q26 170 38 278 q6 58 6 92q-2 34 -12 34h-6q-47 0 -120 -114q-76 -120 -142 -266q-46 -98 -76 -186q-32 -90 -40 -140q-1 -20 -1 -44t1 -52q0 -58 4 -122q4 -120 6 -236q1 -24 1 -44q0 -83 -13 -118q-21 -41 -85 -41q-11 0 -23 1q-84 8 -106 80q-26 98 -26 266z" />
<glyph unicode="O" horiz-adv-x="962" d="M56 644q0 114 8 212q6 102 22 200q16 96 44 180q52 156 158 250q90 76 232 76q32 0 64 -2q44 -6 86 -42q44 -36 80 -94q70 -110 114 -280q46 -170 48 -346v-14q0 -88 -12 -180q-12 -100 -36 -192q-46 -172 -136 -292q-90 -122 -224 -124h-10q-114 0 -190 42 q-82 44 -132 116q-34 48 -54 106q-22 56 -36 120q-24 116 -24 242q-2 12 -2 22zM300 752q0 -44 2 -94q4 -86 14 -176q20 -164 66 -298q48 -134 132 -140h16h3q104 0 163 118q62 128 90 296q14 90 20 180t6 166q2 2 2 6q-2 68 -10 146q-8 82 -26 166q-30 152 -80 272 q-52 120 -110 126h-8q-66 0 -126 -106q-62 -114 -102 -268q-22 -84 -34 -170q-14 -86 -16 -164q-2 -28 -2 -60z" />
<glyph unicode="P" horiz-adv-x="972" d="M80 474v56q0 140 6 268q14 282 42 478q21 158 21 228q0 16 -1 28q6 46 34 46q8 0 20 -4q44 -20 60 -48q22 -74 30 -144q10 -72 12 -136q3 -59 3 -109t-3 -91q-2 -27 -2 -45q0 -37 8 -43q10 8 42 128q32 118 84 240q36 84 80 148q46 66 100 84q20 6 42 6q47 0 96 -28 q72 -40 116 -106q26 -38 38 -78q12 -32 12 -66q0 -6 -2 -14q-6 -90 -62 -192q-56 -100 -134 -190q-114 -138 -240 -230q-110 -83 -155 -83q-6 0 -11 1q-1 -28 -1 -55q0 -123 15 -241q12 -100 12 -186q0 -38 -2 -74q-4 -38 -46 -38q-44 0 -92 24q-38 18 -70 48q-30 28 -32 60 q-18 186 -20 358zM312 662q10 -18 28 -18q14 0 34 10q44 26 60 40q56 48 108 144t90 202q22 58 36 116q16 58 26 110q12 70 12 126q0 24 -2 44q-6 72 -48 88h-4q-32 0 -100 -112q-72 -124 -138 -312q-36 -102 -62 -214q-28 -112 -40 -224z" />
<glyph unicode="Q" horiz-adv-x="932" d="M48 718v32q0 72 4 152q8 98 26 196q36 180 132 318q94 140 284 146h6q68 0 118 -36q52 -38 90 -102q72 -120 100 -302q28 -184 34 -350v-50q0 -68 -6 -136q-8 -94 -26 -180q-34 -158 -98 -270q-6 -8 -10 -16q16 -18 32 -38q52 -64 114 -110q30 -26 32 -44q0 -12 -16 -22 q-18 -12 -34 -10q-14 0 -26 10q-32 20 -68 60q-38 40 -74 84l-8 8q-40 -40 -84 -46q-36 -4 -72 -4q-126 0 -214 66q-112 84 -170 242q-32 84 -48 186t-18 216zM316 738q2 -80 18 -164q14 -86 38 -166q42 -148 102 -252q55 -98 98 -98h2h4q26 4 50 30q-36 44 -66 82 q-41 50 -52 50h-2q-16 20 -16 34q0 10 8 18q10 10 24 10t34 -10q16 -6 36 -26t42 -48q16 -20 34 -42q8 16 14 32q50 120 78 272q16 82 26 164q8 78 8 142v8q-2 138 -26 302t-88 278q-34 60 -80 98q-46 36 -108 36h-2q-80 0 -116 -118q-38 -120 -52 -270q-8 -102 -8 -198 v-164z" />
<glyph unicode="R" horiz-adv-x="1100" d="M62 590q0 110 6 214q16 282 50 486q28 165 28 236q0 17 -2 28q8 46 34 46q8 0 20 -4q44 -18 60 -48q38 -134 42 -266q1 -66 1 -121t-1 -99q-1 -24 -1 -43t1 -33q0 -30 6 -36q10 10 46 122q38 112 96 230q38 78 86 140q46 62 100 80q21 6 43 6q46 0 95 -26 q72 -40 116 -108q24 -36 38 -76q10 -32 10 -64v-14q-6 -68 -40 -134q-34 -68 -86 -130q-42 -50 -94 -94q-50 -46 -102 -84q-66 -50 -130 -86q58 -38 106 -112q60 -94 116 -192q28 -52 60 -100q30 -48 62 -82q40 -44 86 -60q17 -6 35 -6q30 0 63 16q13 5 22 5q26 0 26 -37v-2 q-2 -52 -74 -64q-30 -6 -58 -6q-54 0 -100 24q-70 34 -128 98q-72 76 -132 174q-60 96 -120 174q-34 40 -68 70q-24 20 -50 32q-14 -4 -24 -2v-21q0 -140 24 -287q14 -84 14 -158q0 -63 -10 -118q-2 -38 -46 -38t-92 24q-40 18 -70 48q-32 28 -34 60q-24 170 -28 336 q-2 52 -2 102zM310 704h16q24 0 50 10q36 14 52 28q56 48 110 134q54 88 96 184q64 144 84 274q6 32 6 58q-2 78 -48 96q-4 2 -6 2q-16 0 -42 -24q-32 -30 -72 -86q-72 -106 -148 -286q-76 -182 -98 -390z" />
<glyph unicode="S" horiz-adv-x="872" d="M62 290q0 62 14 134q39 40 74 40q18 0 34 -10q32 -21 32 -54q0 -19 -10 -42q-21 -52 -21 -113q0 -14 1 -29q6 -78 48 -132q22 -30 56 -48q34 -16 78 -18q38 0 72 16q32 16 56 44q50 50 74 124q26 74 30 132q1 10 1 19q0 38 -13 75q-14 48 -42 94q-50 88 -128 176 t-142 182q-56 78 -90 162q-28 68 -28 141q0 17 2 35q14 174 146 262q130 86 280 86q136 0 206 -106q54 -82 54 -172q0 -26 -4 -52q-22 -42 -58 -42h-3q-33 0 -41 44q9 32 9 70q0 22 -3 46q-6 68 -42 114q-18 26 -48 40q-25 14 -59 14h-9q-42 0 -76 -16q-36 -18 -64 -46 q-52 -50 -80 -124t-32 -132q0 -42 14 -84q16 -42 42 -84q50 -80 124 -168q76 -86 140 -184q52 -82 86 -172q27 -77 27 -163q0 -16 -1 -33q-2 -56 -24 -104t-54 -88q-64 -72 -154 -110q-88 -36 -170 -38q-4 0 -6 2q-164 2 -244 118q-54 76 -54 194z" />
<glyph unicode="T" horiz-adv-x="684" d="M30 1536q-2 14 30 20h112q100 0 200 -2q158 -2 268 -16v-12q0 -8 -4 -14q-4 -10 -30 -12q-70 6 -206 18q54 -392 62 -780q1 -40 1 -80q0 -343 -47 -624q-24 -26 -66 -26h-6q-46 2 -88 26q-26 16 -46 40t-24 52q12 4 20 40q8 38 14 98q12 114 20 290t16 360q6 188 14 352 q8 166 20 248q-20 3 -47.5 3t-62.5 -3t-70 -3l-70 3q-10 10 -10 22z" />
<glyph unicode="U" horiz-adv-x="1030" d="M52 1538q16 46 60 56q16 2 32 2q28 0 56 -10q30 -10 54 -30q26 -22 38 -48q24 -114 32 -294q8 -178 8 -368q2 -184 2 -356q0 -170 12 -276q6 -56 16 -90q10 -32 26 -34h2q49 0 120 96q74 98 130 216q38 78 64 150q24 70 24 112q2 24 4 74q2 52 6 116q6 124 18 276 q12 154 40 280q12 46 74 46h4q59 0 90 -56q-40 -364 -64 -624q-17 -184 -17 -331q0 -62 3 -117q4 -100 22 -184q18 -82 50 -152q-16 -24 -46 -24q-18 0 -44 10q-59 26 -59 53q0 3 1 5q-8 28 -16 66q-10 40 -18 84q-16 82 -28 170q-14 90 -14 150q-10 -30 -52 -132 q-44 -104 -108 -196q-42 -62 -90 -104q-44 -38 -91 -38h-9q-46 2 -86 28q-38 26 -70 70q-56 82 -90 216q-32 134 -50 286q-10 102 -16 206t-8 202q-4 135 -4 246v72q0 138 -8 176z" />
<glyph unicode="V" horiz-adv-x="1078" d="M58 1502q2 18 6 32q6 18 20 30q26 24 68 24q16 0 32 -2q64 -12 120 -56q30 -22 52 -56q24 -32 32 -72q26 -90 46 -234q22 -142 40 -298q10 -80 18 -160t16 -154q14 -136 24 -230q10 -96 16 -114q6 0 18 32q10 32 24 88q24 102 62 264q36 160 84 330q48 176 108 334 q60 156 132 242q14 12 36 -4q10 -8 10 -18q0 -14 -14 -34q-34 -8 -70 -92t-74 -210q-20 -68 -40 -144q-20 -78 -40 -158q-26 -98 -50 -198t-46 -192q-42 -170 -78 -290t-60 -130q-44 -18 -78 -18q-12 0 -22 2q-40 10 -64 38q-46 54 -56 146q-8 92 -22 140q-8 36 -26 150 t-40 258q-12 76 -26 158t-30 160q-28 148 -60 266t-66 156q-2 8 -2 14z" />
<glyph unicode="W" horiz-adv-x="1372" d="M34 1570q22 56 96 56h2q74 0 122 -44q18 -16 28 -36t12 -44q-30 -164 -40 -326q-7 -116 -7 -224q0 -43 1 -86q4 -272 32 -456q30 -184 32 -184q10 0 18 20t16 58q14 68 32 182t42 238q24 130 56 254q34 126 80 212q18 36 70 46q16 4 31 4q34 0 61 -20q18 -12 28 -34 q12 -20 12 -50q-2 -48 -2 -107.5t2 -130.5q4 -140 16 -286q8 -76 16 -148q10 -74 22 -140q20 -120 50 -198q29 -78 66 -78h2q10 2 12 52q0 50 2 140q4 168 32 458q26 290 134 654q6 18 20 32q12 16 28 26q45 29 96 29q22 0 46 -5q64 -16 64 -54q0 -12 -4 -22 q-28 -52 -56 -176q-26 -124 -54 -276q-16 -84 -30 -170t-30 -170q-28 -162 -58 -298q-28 -136 -60 -202q-34 -60 -98 -76q-18 -4 -34 -6q-40 0 -66 30q-68 78 -102 208q-36 132 -52 272q-16 138 -18 266t-4 212v70q-2 26 -4 30q-2 0 -8 -22q-8 -22 -18 -60q-18 -68 -46 -176 q-26 -108 -54 -222q-30 -116 -56 -218t-40 -152q-8 -24 -24 -42q-16 -20 -38 -34q-64 -46 -144 -46h-6q-75 0 -90 48q-26 74 -44 238q-18 166 -30 356q-6 102 -12 202q-4 102 -10 194q-8 174 -18 296t-22 136z" />
<glyph unicode="X" horiz-adv-x="1030" d="M56 1452q0 30 20 60q26 38 60 38q12 0 26 -6q18 -28 74 -100q58 -72 136 -178q92 -128 200 -300q12 -22 24 -42q76 126 150 248q88 144 158 256q14 22 40 22q10 0 22 -4q36 -10 36 -36q0 -4 -2 -8q-88 -116 -162 -240t-142 -248q-24 -44 -46 -86q60 -110 112 -232 q46 -106 80 -220q34 -112 52 -228q2 -12 2 -22q0 -18 -4 -32q-8 -22 -24 -40q-34 -38 -90 -44q-10 -2 -16 -2q-42 0 -54 24q-30 100 -68 218q-40 118 -88 244l-36 92l-68 -120q-120 -216 -286 -368q-20 -20 -40 -20q-10 0 -18 4q-24 8 -26 30q0 4 2 10q24 8 98 116 q72 108 168 266q52 86 110 182q4 8 10 18q-56 134 -122 270q-122 242 -276 432q-12 22 -12 46z" />
<glyph unicode="Y" horiz-adv-x="838" d="M38 1468v28q0 24 2 40q26 58 90 78q18 6 34 6q32 0 40 -28q8 -82 22 -194q14 -114 32 -228q28 -174 64 -310q38 -136 78 -138h3q54 0 103 78q48 78 54 142q6 32 22 112q18 80 40 172q12 50 24 98q14 50 26 92q20 60 78 68q6 1 11 1q48 0 55 -49q-32 -84 -52 -242 q-20 -160 -38 -346q-8 -98 -18 -196q-10 -100 -22 -194q-20 -176 -50 -316t-78 -200q-10 -12 -38 -12q-32 0 -88 16q-89 29 -89 78q0 6 1 12q4 -1 8 -1q43 0 76 85q36 92 64 218q20 100 34 202q14 104 22 180q4 40 8 70q2 28 2 40q-12 -32 -46 -94t-120 -62q-74 2 -132 76 q-60 74 -104 182q-42 106 -70 226t-40 218q-6 52 -8 92z" />
<glyph unicode="Z" horiz-adv-x="874" d="M56 136q0 12 2 24q20 80 84 232q66 152 144 324l84 184q44 90 82 174q72 158 122 274q48 116 48 144q-8 2 -20 2q-37 0 -108 -24q-94 -30 -220 -38q-48 0 -56 48q-2 7 -2 14q0 29 36 28h8q42 -8 84 -8q60 0 122 16q106 28 242 36h2q34 0 82 -44q28 -26 28 -62 q0 -28 -18 -62q-56 -98 -128 -256t-140 -330q-36 -90 -68 -178q-34 -90 -62 -172q-52 -150 -80 -258q-18 -74 -18 -107q0 -15 4 -21q6 -8 60 -6q52 4 120 14q84 10 164 24q82 14 100 20q14 -4 24 -20q10 -14 -12 -26q-136 -12 -288 -30q-150 -18 -284 -40q-16 -4 -32 -4 q-48 0 -76 40q-30 42 -30 88z" />
<glyph unicode="[" horiz-adv-x="4598" d="M12 1028q0 42 10 82q18 82 82 152t184 116q70 26 166 22q98 -4 216 -32q220 -52 504 -170q282 -120 594 -264q256 -120 524 -244q266 -124 522 -230q318 -130 602 -212q286 -82 502 -72q116 6 208 44t156 116q94 116 126 244q30 126 16 248q-12 80 -38 154 q-28 74 -68 138q-72 118 -178 190q-104 74 -210 70q-120 -2 -214 -78q-92 -74 -136 -174q-22 -52 -30 -108q-6 -54 10 -102q14 -46 48 -84t92 -58q30 -12 54 -12t42 8q54 26 48 96q-6 68 -82 98q-44 42 -14 70q30 26 86 10q42 -14 72 -40q30 -28 48 -62q32 -62 20 -134 q-10 -72 -68 -114q-38 -28 -96 -34q-60 -8 -140 18q-82 26 -134 74q-54 48 -80 110q-46 112 -4 246q40 134 156 228q58 46 134 76q78 30 170 36h26q70 0 138 -20q78 -24 144 -68q126 -86 206 -232q82 -146 98 -318q2 -36 2 -74q0 -106 -28 -216q-38 -146 -138 -280 q-122 -160 -336 -192q-78 -12 -164 -12q-150 0 -324 36q-284 58 -616 190q-330 132 -666 288q-218 104 -432 208t-412 198q-370 176 -660 282q-290 104 -430 58q-74 -24 -118 -66t-64 -92q-38 -100 2 -218t124 -200q46 -44 98 -74q54 -28 112 -32q42 -4 72 6q32 8 54 26 q66 52 54 130q-14 80 -86 58q-54 0 -64 82t38 96q50 14 86 8q38 -6 62 -26q50 -36 60 -112q8 -76 -18 -154q-12 -42 -36 -78q-24 -38 -56 -66q-30 -26 -68 -42q-38 -14 -82 -12q-72 2 -142 30q-68 28 -128 76q-108 86 -168 216q-40 88 -40 174z" />
<glyph unicode="\" horiz-adv-x="1148" d="M28 1680q2 42 58 46h14q46 0 68 -26q-6 -14 8 -52q12 -38 40 -96q50 -104 140 -260q90 -154 194 -328l256 -424q130 -212 212 -360q46 -82 72 -138t26 -80q2 -4 2 -6q0 -26 -44 -26h-6q-58 2 -60 68q6 4 -8 36t-44 84q-52 100 -148 256q-94 158 -202 336 q-72 116 -146 234q-72 120 -140 230q-124 202 -210 348q-82 140 -82 158z" />
<glyph unicode="]" horiz-adv-x="3724" d="M52 422v6q0 108 90 186q48 42 108 32q62 -8 86 -66q14 -18 -6 -46q-22 -30 -48 -18q4 46 -36 62t-62 -16q-42 -56 -26 -134q14 -76 70 -128q30 -28 70 -44q40 -18 88 -16q106 6 230 82t238 198l20 22q-16 38 -28 76q-66 192 -88 394q-22 204 6 376q18 116 60 190t94 112 q44 30 92 36q16 4 32 4q32 0 62 -10q84 -28 146 -124t60 -246q-2 -138 -46 -286q-44 -146 -116 -284q-58 -110 -132 -210q34 -86 76 -164q84 -158 196 -262q114 -104 250 -114q106 -10 204 36q100 46 186 128q34 32 66 72q-122 184 -172 378q-30 110 -34 214q-6 104 12 196 q26 118 74 190t106 100q108 54 218 -28q108 -82 128 -270q12 -120 -14 -254q-28 -134 -86 -262q-40 -90 -94 -172q94 -130 226 -232q160 -126 354 -168q104 -22 214 -16t222 50q144 54 242 238q98 186 120 398q10 112 -4 222q-16 110 -62 198q-44 86 -118 144t-184 78 q-94 16 -168 -42q-76 -56 -64 -144q12 -84 82 -86q70 -4 134 76q12 12 24 12q10 2 18 -4q24 -16 22 -70q-2 -52 -38 -60q-100 -76 -198 -32q-100 44 -112 160q-12 118 80 208t216 70q130 -20 222 -84t152 -156q40 -62 64 -136q26 -74 36 -152q8 -62 8 -122q0 -90 -16 -180 q-28 -154 -98 -286q-58 -108 -144 -192q-84 -86 -194 -126q-214 -82 -398 -82q-32 0 -64 2q-210 16 -374 108q-182 102 -304 266q-100 -118 -218 -186q-72 -42 -146 -62q-74 -22 -150 -18q-146 10 -264 88q-120 78 -212 202q-60 80 -108 176q-8 14 -14 28 q-114 -126 -240 -202q-74 -46 -150 -72t-152 -28q-78 -2 -138 22q-62 26 -104 68q-76 78 -80 188zM904 1090q12 -156 50 -310q12 -54 28 -108q50 72 94 150q72 128 116 266t42 270q-2 152 -82 214q-78 64 -150 6q-32 -24 -56 -74q-24 -48 -34 -124q-20 -134 -8 -290z M1958 1028q-26 -150 12 -308q36 -158 122 -298q2 -6 4 -10q14 22 26 44q74 138 110 292t22 292q-8 80 -32 130q-22 50 -54 72q-56 42 -122 -12q-64 -54 -88 -202z" />
<glyph unicode="^" horiz-adv-x="862" d="M24 1100v6q0 14 8 32q38 6 106 86q70 78 136 162q56 68 100 120q46 54 62 52q18 0 76 -84q60 -84 124 -182q54 -80 100 -148q46 -66 68 -82v-6q0 -32 -32 -36q-36 -6 -68 12q-26 34 -52 76t-50 86q-46 80 -84 148q-36 68 -52 82q-18 -2 -58 -78q-40 -74 -94 -164 q-28 -48 -60 -94q-30 -44 -62 -78q-10 -2 -22 -2q-28 0 -62 12q-50 16 -72 50q-10 14 -12 30z" />
<glyph unicode="_" horiz-adv-x="842" d="M18 4v4q0 28 32 48q44 4 106 8q64 2 136 6q134 4 274 6h24q122 0 190 -8q34 -14 44 -50q2 -6 2 -10q0 -28 -60 -42q-12 14 -100 16q-86 2 -196 0q-134 -4 -258 -12q-100 -4 -132 -4h-12q-48 8 -50 38z" />
<glyph unicode="`" horiz-adv-x="314" d="M40 1590q0 28 28 54q30 28 62 28h10q50 -36 78 -84t58 -106q8 -22 8 -46v-20q-4 -30 -32 -30h-4q-22 6 -46 22q-22 18 -42 40q-40 40 -70 82q-32 40 -48 42q-2 8 -2 18z" />
<glyph unicode="a" horiz-adv-x="1056" d="M28 252v22q0 140 44 268q48 136 118 234q38 52 78 90t78 58q18 10 44 16q28 6 58 8h24q46 0 92 -12q60 -14 86 -50q6 -8 4 -18q-2 -8 -12 -12q-36 36 -72 38h-6l-66 -20q-62 -40 -116 -146q-52 -104 -86 -222q-42 -150 -44 -276q0 -124 58 -124q26 0 64 84q38 86 76 196 q48 136 84 264t40 142q12 30 78 40q21 4 39 4q38 0 57 -18q8 -6 10 -16q4 -8 2 -20h-1q-14 0 -37 -104q-24 -106 -46 -246q-18 -110 -32 -222q-16 -110 -20 -182q-2 -38 0 -60t8 -24h2q30 0 86 90q60 96 118 210q48 94 88 178q38 82 54 112q14 4 30 2t32 -12 q-14 -26 -54 -116q-38 -90 -92 -192q-66 -126 -138 -232q-70 -100 -122 -100h-6q-48 6 -76 34t-42 72q-12 36 -16 80q-3 29 -3 60q0 15 1 30q4 86 18 170l20 130q-6 -22 -18 -64q-14 -48 -36 -106q-34 -86 -74 -164q-42 -78 -80 -82q-17 -2 -34 -2q-87 0 -166 44 q-94 52 -96 166z" />
<glyph unicode="b" horiz-adv-x="1022" d="M56 1492v12q4 24 16 40q30 44 94 44q10 0 22 -2q82 -8 106 -64q-2 -48 -4 -124q-4 -78 -8 -170q-8 -168 -16 -350q-10 -180 -18 -276q38 164 138 214q42 20 82 20q57 0 110 -40q50 -36 88 -106q38 -72 54 -176q8 -61 8 -117t-8 -107l-8 -48q52 42 104 94q76 78 124 182 q18 10 34 10t32 -10q-58 -124 -136 -212q-76 -86 -156 -148q-18 -14 -36 -26q-6 -12 -10 -24q-68 -150 -174 -206q-50 -26 -88 -26q-48 0 -80 36q-22 24 -20 44q4 22 26 44q42 40 132 86q6 4 14 6q8 32 16 70q12 64 16 136q1 21 1 41q0 50 -7 97q-36 226 -116 266 q-13 7 -25 7q-63 0 -105 -187q-2 -22 -2 -58q2 -34 2 -78q2 -80 6 -176q4 -94 4 -174q-14 -45 -56 -45q-12 0 -26 3q-64 14 -72 84q-18 126 -24 276q-6 152 -6 306q-1 62 -1 122q0 120 3 234q1 57 1 107q0 100 -3 175q-2 60 -6 100q-6 40 -16 50q-6 24 -6 44zM352 -62 q12 -15 26 -15q24 0 50 47q10 16 18 34q-34 -16 -60 -28q-48 -20 -34 -38z" />
<glyph unicode="c" horiz-adv-x="934" d="M20 458v24q4 196 86 354q30 56 68 90q40 34 82 48q36 14 72 14q60 0 116 -38q88 -58 90 -178q0 -22 -2 -42t-6 -40q-16 -16 -42 -4q-26 14 -28 34q5 28 5 60q0 16 -1 32q-6 52 -38 56h-3l-73 -102q-38 -106 -58 -250q-14 -100 -14 -202v-26q2 -116 30 -194q14 -44 38 -72 t58 -36q10 -2 20 -2q61 0 136 82q86 94 162 214q42 66 74 128q34 64 58 112q16 10 32 10q16 -2 30 -16q-24 -54 -58 -124q-36 -68 -80 -140q-80 -130 -184 -232q-86 -84 -180 -84q-18 0 -36 2q-96 16 -166 70q-70 56 -114 134q-74 136 -74 318z" />
<glyph unicode="d" horiz-adv-x="1144" d="M30 400q0 36 4 74q8 84 38 178q26 80 70 132q46 52 98 78q55 26 109 26q43 0 85 -16q96 -38 118 -138q6 38 20 124q16 86 30 186q8 52 16 106t12 102q8 77 8 135v23q-2 66 -24 78q12 56 66 78q22 8 44 10q28 0 56 -16q18 -12 34 -34t22 -56q3 -13 2 -42v-32 q-4 -54 -12 -128q-16 -140 -48 -336q-32 -194 -64 -386q-16 -84 -28 -164q-14 -78 -24 -148q-20 -128 -30 -210q-4 -36 -4 -57q0 -26 6 -27q7 -2 14 -2q48 0 118 90q80 104 152 228q48 82 84 152q38 72 54 104q14 10 30 8q18 -2 34 -14q-14 -30 -52 -106q-36 -76 -86 -166 q-28 -48 -58 -96t-62 -92q-60 -82 -124 -134q-50 -40 -96 -40q-14 0 -26 4q-32 8 -54 32q-20 26 -34 64q-26 70 -30 172l-2 68q-28 -60 -62 -108q-46 -66 -92 -68q-14 -1 -27 -1q-107 0 -179 71q-80 78 -100 212q-6 40 -6 82zM270 346q2 -106 28 -176q24 -70 54 -70 q26 0 60 56t64 122q12 30 24 56q0 6 2 14q8 106 20 196t18 132q-44 122 -108 122h-6q-70 -4 -124 -202q-18 -66 -26 -130q-6 -62 -6 -120z" />
<glyph unicode="e" horiz-adv-x="916" d="M16 476v30q8 186 88 330q36 64 82 100q44 36 90 46q20 4 40 4q60 0 112 -44q68 -60 70 -170v-6q0 -170 -110 -262q-52 -44 -120 -76v-2q-3 -39 -3 -77q0 -19 1 -39q4 -102 32 -180q30 -78 92 -92q11 -3 23 -3q60 0 133 69q88 80 164 190q40 60 74 118q34 60 56 108 q16 14 32 12t32 -18q-26 -54 -60 -120q-36 -64 -80 -128q-80 -122 -184 -210q-86 -72 -178 -72q-18 0 -38 2q-98 18 -166 70t-110 128q-72 126 -72 292zM272 484q58 36 96 80q80 94 82 194v9q0 91 -38 101q-3 1 -5 1q-33 0 -69 -91q-38 -100 -58 -234z" />
<glyph unicode="f" horiz-adv-x="890" d="M40 -226q0 110 6 244q8 200 28 410q22 212 54 406q32 196 74 318q26 96 116 134q44 18 84 18q42 0 80 -22q22 -14 42 -38q18 -24 26 -58q18 -69 18 -157q0 -29 -2 -61q-8 -124 -46 -248q-20 -68 -48 -130q-28 -64 -62 -118q-56 -82 -126 -136q-28 -20 -58 -34 q-2 -56 -4 -110l-4 -44q82 14 178 44q118 36 222 108q56 38 104 88q48 52 80 116q16 10 32 10t32 -12q-42 -84 -94 -146t-110 -106q-104 -82 -208 -112q-95 -26 -150 -26h-8q72 -40 118 -106t70 -144q27 -86 27 -173q0 -56 -11 -113q-28 -146 -112 -204q-38 -28 -102 -28h-6 q-66 2 -124 28q-30 14 -54 36t-36 50q-10 26 -16 82q-6 54 -10 132v102zM212 -188q2 -176 12 -284q6 -58 16 -90t22 -30q30 2 54 84q26 84 28 194v25q0 49 -6 99q-8 62 -28 120q-20 54 -50 102q-20 26 -44 48q-4 -140 -4 -268zM230 360q6 4 10 6q48 28 86 72q62 70 98 172 q38 102 54 206q15 100 15 188q0 51 -5 98q-16 128 -60 134h-5q-51 0 -91 -144q-42 -154 -68 -380q-16 -122 -26 -254q-4 -48 -8 -98z" />
<glyph unicode="g" horiz-adv-x="1020" d="M32 426q0 24 2 50q10 124 48 218q36 94 88 158q94 120 208 142q26 4 48 4q78 0 122 -58q2 -12 -4 -22t-22 -4q-39 26 -71 26h-9q-36 -2 -66 -28q-54 -48 -88 -160q-32 -112 -42 -234q-5 -61 -5 -117q0 -90 13 -169q20 -128 76 -130h2q39 0 64 94q28 98 44 218 q12 80 18 156q8 78 10 128q6 18 16 30q10 10 22 18q20 10 42.5 10t47.5 -10q48 -18 56 -56q-10 -2 -14 -32q-4 -28 -6 -80q-1 -31 -1 -69q0 -75 3 -175v-222q62 58 132 138q96 112 166 256q14 10 30 8t34 -16q-100 -186 -206 -302q-86 -96 -158 -160v-12q-6 -136 -22 -266 q-16 -128 -50 -228q-34 -94 -90 -152q-52 -54 -129 -54h-5h-4q-32 0 -54 16q-22 14 -34 40q-18 39 -18 95q0 42 10 93q22 118 76 224q30 56 64 102q28 36 56 58q2 42 4 82q0 108 6 180q-14 -64 -44 -102q-28 -38 -64 -50q-24 -9 -49 -9q-44 0 -91 29q-76 48 -122 146 q-22 52 -34 114q-6 40 -6 84zM320 -552q-1 -13 -1 -24q0 -60 19 -60q52 2 70 140q18 136 22 306v58q-18 -28 -34 -74q-30 -76 -48 -158q-24 -104 -28 -188z" />
<glyph unicode="h" horiz-adv-x="1036" d="M30 290q0 58 4 130q6 150 18 312l12 168q4 84 8 158q6 112 6 198v42q-2 98 -24 116q16 52 50 58q8 2 18 2q24 -2 46 -10q22 -12 38 -82q14 -70 24 -170q6 -54 10 -112q4 -60 6 -118q6 -110 10 -208q2 -96 6 -144q10 46 52 124q40 76 96 132q30 30 62 48q31 16 60 16h6 q36 -2 58 -30q22 -26 34 -72q19 -69 19 -172q0 -19 -1 -38q-4 -128 -16 -258q-18 -162 -34 -290q-7 -53 -7 -85q0 -44 13 -47q5 -1 10 -1q38 0 92 79q64 90 124 202q38 74 72 142q32 68 50 108q16 10 32 8q16 -4 34 -14q-20 -42 -54 -116t-76 -156q-66 -122 -144 -220 q-68 -82 -130 -82q-12 0 -22 2q-102 24 -126 156q-19 97 -19 207q0 42 3 87q4 68 12 136q8 70 18 132q16 116 28 194q6 36 6 56q0 23 -8 24h-2q-33 0 -80 -56q-46 -58 -86 -132q-22 -42 -42 -82q-18 -42 -28 -76q-2 -74 -6 -162q-2 -88 -8 -156q-4 -34 -8 -60t-8 -36 q-37 -62 -96 -62h-4q-62 2 -104 94q-4 50 -4 116z" />
<glyph unicode="i" horiz-adv-x="694" d="M22 200v22q0 72 8 146q16 160 46 298q17 84 17 127q0 27 -7 37q14 40 68 60q28 10 50 10q24 0 40 -10q12 -8 20 -20q6 -12 6 -30q-2 -10 -20 -124t-32 -258q-14 -114 -20 -226q-5 -64 -5 -114q0 -38 3 -68q2 -40 10 -62t22 -24h1q32 0 107 102q76 104 148 222 q46 78 84 144t50 92q16 8 32 6q14 -2 30 -16q-6 -14 -20 -42t-34 -64q-38 -66 -90 -154t-108 -164q-58 -80 -112 -134q-52 -50 -90 -50h-6q-72 6 -114 44q-42 40 -62 102q-20 66 -22 148zM100 1234q0 32 32 68q36 42 82 42q10 -32 48 -44q40 -10 42 -50v-6q0 -32 -20 -70 q-20 -42 -62 -46q-6 -2 -12 -2q-38 0 -68 32q-36 36 -40 66q-2 6 -2 10z" />
<glyph unicode="j" horiz-adv-x="850" d="M26 -542q0 38 10 86q26 116 80 224q38 72 82 130q30 42 60 68q-4 190 -10 402q-4 120 -6 244q0 122 2 244q4 20 14 32t24 18t28 6q30 0 64 -22q54 -32 62 -70q-18 -2 -18 -92q2 -90 8 -228q2 -74 6 -160q4 -84 4 -172v-74q76 58 154 144q50 56 96 122q48 66 86 144 q14 6 28 6q16 -2 34 -14q-98 -186 -204 -298t-192 -178l-2 -2v-68q-4 -110 -14 -212q-22 -186 -80 -312t-176 -128h-2q-44 2 -72 18t-44 44q-22 40 -22 98zM138 -562q0 -92 32 -92h2q41 0 60 68q20 68 26 186q4 94 4 213v81q-24 -30 -46 -84q-32 -80 -52 -170 q-24 -110 -26 -202zM256 1254q0 26 10 54q20 46 62 52q6 2 12 2q32 0 72 -26q48 -30 56 -78q-30 -6 -36 -36q-4 -30 -14 -54q-4 -10 -10 -18q-6 -6 -18 -8q-8 -2 -16 -2q-30 0 -62 16q-40 20 -52 62q-4 18 -4 36z" />
<glyph unicode="k" horiz-adv-x="996" d="M16 374v40q0 130 4 256q6 178 16 332q8 154 10 248q0 52 -4 80q-2 30 -12 32q14 82 72 86h8h4q47 0 72 -48q18 -18 22 -112q4 -96 4 -212q-2 -142 -6 -268v-55q0 -71 4 -75q6 18 34 76q26 60 70 116q24 30 52 56q28 24 60 36q35 11 72.5 11t77.5 -11q78 -22 78 -122v-2 q0 -48 -20 -92q-20 -46 -52 -88q-76 -98 -184 -162q24 -22 40 -66q22 -64 36 -144q20 -122 30 -236q12 -114 46 -122q2 -1 4 -1q29 0 94 95q70 100 138 218q46 80 82 150q38 70 54 104q16 4 34 4q16 -2 28 -14q-22 -52 -62 -132t-90 -162q-72 -124 -154 -220 q-74 -90 -128 -90q-4 0 -10 2q-52 8 -84 44t-52 88q-30 78 -44 176q-12 96 -34 168q-12 40 -30 66q-8 12 -16 20q-30 -8 -50 -4q0 -36 2 -78l8 -80q8 -78 14 -144q2 -22 2 -40q0 -36 -8 -54q-18 -20 -70 -30q-20 -4 -36 -4q-34 0 -62 14q-18 10 -32 26t-18 40 q-14 132 -14 284zM226 498q4 -2 8 -2q20 0 52 12q38 12 48 22q32 32 62 72t52 84q40 80 48 148q0 10 2 18q0 52 -42 56h-2q-34 0 -116 -108q-84 -112 -112 -302z" />
<glyph unicode="l" horiz-adv-x="782" d="M54 358v70q0 132 18 272q26 180 76 346t112 274q32 40 86 54q46 12 74 12h12q88 -8 100 -138q2 -26 3 -54q0 -109 -39 -230q-26 -84 -68 -162t-96 -136q-32 -34 -68 -60q-2 -12 -2 -24q-8 -82 -12 -158t-4 -146v-31q0 -106 12 -181q14 -86 48 -96q5 -2 11 -2q38 0 101 78 q72 88 140 198q46 74 84 142q38 70 58 112q16 8 32 8q16 -2 32 -14q-24 -50 -62 -126q-38 -78 -86 -158q-72 -120 -158 -212q-72 -74 -144 -74q-16 -2 -34 2q-58 14 -100 54q-40 40 -68 102q-50 112 -58 278zM272 688l10 10q40 44 72 104q32 58 56 122q20 52 32 106 q14 52 20 100q10 63 10 112q0 21 -2 40q-6 62 -30 66h-2q-29 0 -62 -106q-34 -112 -64 -278q-14 -88 -28 -186q-6 -46 -12 -90z" />
<glyph unicode="m" horiz-adv-x="1442" d="M10 910v2q0 30 38 30t86 -42q24 -24 48 -60q24 -38 42 -90q30 46 86 122q56 72 116 72h2q60 0 100 -48t62 -106q10 -32 18 -64q6 -30 10 -56q20 70 96 152q74 80 156 80h4q72 -2 100 -84q28 -80 32 -198q1 -21 1 -42q0 -43 -3 -90q-4 -68 -10 -136q-14 -158 -26 -284 q-4 -39 -4 -66q0 -59 18 -62q2 -1 5 -1q32 0 97 89q68 96 138 218q36 64 70 128q34 66 58 116q16 10 32 8t30 -12q-36 -82 -106 -216q-68 -134 -146 -238q-52 -70 -102 -114q-42 -34 -78 -34q-10 0 -18 2q-92 20 -114 148q-18 98 -18 211q0 38 2 77q2 68 8 136t12 130 q10 114 12 192v10q0 66 -24 68q-48 0 -118 -88q-68 -90 -86 -194q-3 -56 -3 -111q0 -28 1 -55v-31q0 -59 -6 -93q-13 -34 -80 -34h-8q-74 0 -96 46q0 56 2 134q0 78 2 158q0 120 -8 214q-8 96 -36 96q-24 -2 -60 -42q-38 -40 -68 -90q-20 -34 -34 -64q-14 -32 -14 -54 q14 -120 14 -256v-246q-44 -84 -112 -92q-10 -2 -20 -2q-53 0 -80 48q-12 64 -12 146v42q0 64 4 130q8 164 16 310q1 26 1 49q0 102 -29 131z" />
<glyph unicode="n" horiz-adv-x="1054" d="M10 244q0 42 4 84q6 90 18 176q22 158 40 280q6 41 6 72q0 61 -24 80q20 32 52 44q24 8 48 8q10 0 18 -2q22 -2 36 -20t22 -46q16 -54 18 -134q2 -78 6 -156q12 46 52 124q40 76 96 132q30 30 64 48q29 16 59 16h7q84 -6 104 -134q14 -90 15 -198q0 -43 -3 -90 q-4 -70 -10 -140t-12 -136q-14 -120 -20 -204q-2 -23 -1 -40q0 -45 11 -48q5 -1 10 -1q38 0 94 79q64 90 126 200q40 74 74 142q36 68 54 108q16 8 32 8q16 2 34 -14q-20 -42 -54 -116q-36 -76 -80 -158q-68 -122 -150 -222q-68 -84 -132 -84q-10 0 -22 2q-46 12 -74 46 q-30 34 -48 86q-28 82 -28 194v37q0 94 8 191q16 170 36 306q12 71 12 106q0 31 -10 32h-2q-33 0 -78 -56q-48 -58 -88 -134q-22 -40 -40 -80q-18 -42 -30 -78q-2 -38 -2 -82q-2 -44 -4 -86q-4 -80 -10 -144q-6 -66 -14 -84q-52 -54 -112 -74q-11 -4 -21 -4q-47 0 -83 74 q-4 44 -4 90z" />
<glyph unicode="o" horiz-adv-x="1014" d="M22 440v2q0 174 64 298t162 172q52 24 112 24q58 0 120 -30q22 -8 8 -18t-28 -6q-25 8 -47 8q-55 0 -95 -50q-56 -72 -84 -180q-16 -58 -22 -120q-6 -50 -6 -97v-23q0 -42 6 -92q6 -48 18 -94q22 -88 64 -152q43 -62 108 -62h4q30 2 60 22t56 54q40 50 70 130 q-58 18 -114 72q-62 58 -106 130q-68 112 -82 228q-2 18 -2 34q0 89 66 128q62 36 114 36q59 0 106 -46q88 -84 108 -330q2 -31 2 -61q0 -75 -14 -143q12 0 24 2q36 8 68 26q62 32 108 90q48 58 66 100q18 6 34 4q16 0 32 -6q-28 -66 -86 -138q-56 -70 -132 -108 q-42 -22 -86 -28q-22 -4 -44 -2q-30 -96 -84 -158q-34 -38 -78 -58q-42 -22 -92 -22h-2q-186 0 -282 122q-94 122 -94 342zM390 590q26 -80 78 -162q34 -54 74 -94q36 -38 68 -50q15 60 15 126q0 30 -3 60q-16 134 -92 194q-48 37 -89 37q-24 0 -47 -13q-17 -9 -17 -36 q0 -24 13 -62z" />
<glyph unicode="p" horiz-adv-x="982" d="M42 864q10 82 76 82h4q70 -4 112 -50q12 -50 14 -110q2 -58 8 -114q22 110 110 160q50 28 99 28q34 0 67 -14q36 -14 64 -46q30 -30 48 -78q40 -104 40 -228v-19q0 -86 -16 -167q34 22 70 46q110 70 146 144q20 12 36 12t30 -8q-18 -46 -48 -82q-28 -34 -62 -62 q-64 -54 -136 -92q-26 -14 -50 -28q-14 -50 -30 -94q-22 -54 -46 -96q-46 -80 -104 -112q-25 -15 -51 -15l-65 25q-20 16 -20 39q0 16 10 35q26 44 74 92q30 30 62 58q6 52 6 112q0 92 -14 184q-14 94 -44 162q-38 86 -82 98q-5 1 -9 1q-41 0 -75 -113v-29q0 -172 22 -373 q22 -220 48 -404q14 -100 24 -180q12 -82 18 -134q-4 -48 -20 -84q-18 -36 -38 -58q-34 -38 -72 -38q-6 0 -12 2q-44 6 -54 72q-24 132 -36 318q-12 188 -20 380q-8 188 -16 360q-6 170 -22 280q-8 60 -20 96q-10 36 -26 42zM394 -20q10 -7 19 -7q29 0 49 75q6 22 12 48 q-42 -36 -70 -68q-30 -36 -10 -48z" />
<glyph unicode="q" horiz-adv-x="1036" d="M36 378v16q2 88 30 168q26 80 70 144q66 98 154 154q88 58 168 58h2q42 -2 80 -20q36 -20 62 -60q4 -14 -6 -22q-10 -10 -28 -14q-31 46 -64 46q-16 0 -32 -10q-52 -32 -98 -116q-24 -46 -46 -100q-22 -56 -40 -114q-40 -136 -48 -258q-1 -14 -1 -26q0 -95 41 -106 q14 -4 27 -4q55 0 99 68q54 84 94 212q22 68 40 142q18 76 32 146q6 36 52 56q23 11 41 11q20 0 35 -13q10 -8 14 -22t2 -34q-22 -98 -46 -262q-20 -140 -34 -288q56 40 112 90q110 96 206 264q20 20 36 20q14 2 34 -14q-78 -160 -208 -284q-96 -90 -186 -136q-2 -36 -6 -70 q44 -40 78 -96q54 -92 78 -194q16 -73 16 -141q0 -76 -20 -147q-38 -134 -160 -136h-4q-62 0 -94 68q-34 72 -48 182q-8 60 -10 126q-1 33 -1 66.5t1 67.5q4 130 18 254q12 124 26 202q-22 -50 -72 -126q-48 -74 -120 -78q-10 -1 -20 -1q-136 0 -196 107q-60 106 -60 224z M614 -254v-35q0 -136 14 -225q10 -56 26 -86q16 -32 40 -34q24 0 24 66v10q0 76 -22 178q-26 126 -74 248q-2 6 -4 10q-2 -68 -4 -132z" />
<glyph unicode="r" horiz-adv-x="916" d="M16 488q22 44 56 114t68 146q14 34 28 66q-40 34 -58 74q-19 39 -19 76q0 45 29 86q40 54 96 54q18 0 40 -6q38 -11 38 -64q0 -25 -8 -58q-16 -66 -44 -138q12 0 44 2q19 1 38 1q38 0 76 -3q34 -2 62 -8q30 -6 50 -16q14 -8 24 -20q10 -10 12 -26q0 -10 -22 -76 q-22 -68 -50 -160q-16 -50 -30 -104q-14 -56 -26 -108q-24 -117 -24 -210v-14q4 -98 72 -106h4q38 0 104 94q70 100 136 214q42 76 78 144q34 66 50 98q16 6 30 6q16 0 32 -14q-18 -36 -52 -108t-80 -152q-68 -120 -150 -224q-78 -94 -148 -96q-4 0 -10 2q-114 10 -166 138 q-48 123 -48 268v12q4 102 30 200q26 96 72 160q-78 18 -132 46q-4 -14 -10 -26q-36 -80 -72 -154q-36 -72 -56 -116q-16 -6 -32 -8q-16 0 -32 14zM184 888q0 -16 4 -28q22 52 40 100q22 61 22 86q0 16 -8 18q-16 4 -30 -22t-22 -64q-7 -33 -7 -65q0 -12 1 -25z" />
<glyph unicode="s" horiz-adv-x="856" d="M6 750v12q0 34 12 62q14 36 42 62q48 50 120 64q20 6 40 6q46 0 86 -26q26 -20 46 -54q18 -32 22 -84q-8 -18 -42 -28q-36 -10 -48 20q0 48 -10 78t-26 44q-17 16 -36 16q-21 0 -46 -20q-39 -32 -39 -99q0 -9 1 -19q4 -32 22 -60t44 -54q52 -46 126 -88q72 -42 142 -96 q56 -44 98 -100q14 -18 24 -40q12 8 26 16q104 60 156 162q18 6 32 6t30 -12q-18 -44 -48 -80q-28 -34 -64 -64q-52 -46 -108 -82q6 -20 10 -42q6 -32 6 -63q0 -36 -8 -71q-12 -64 -42 -118q-24 -44 -56 -80q-34 -36 -72 -60q-70 -48 -146 -52h-12q-70 0 -122 50 q-26 26 -26 58q0 23 14 50q32 60 102 128q38 36 82 72l38 30q-2 20 -6 38q-18 72 -104 150q-84 76 -160 164q-40 46 -68 98q-28 50 -32 106zM186 -96q-6 -18 6 -28q9 -8 21 -8q21 0 51 28q46 46 78 120q18 42 26 92l-56 -52q-68 -62 -102 -108q-18 -24 -24 -44z" />
<glyph unicode="t" horiz-adv-x="842" d="M16 1182v4q4 18 16 34q84 2 166 4l4 24q6 52 8 86q0 34 -8 42q14 44 74 74q38 20 68 20q14 0 26 -6q12 -4 20 -16q6 -10 6 -30q0 -2 -4 -32q-2 -28 -8 -76q-4 -40 -8 -88q64 -4 132 -10q26 -10 26 -28v-2q0 -16 -18 -16h-4q-52 6 -140 8q-4 -44 -8 -94q-12 -142 -24 -302 q-12 -196 -22 -388q-5 -128 -5 -226q0 -49 1 -90q2 -66 10 -106t20 -44q3 -1 6 -1q39 0 106 89q72 96 142 214q56 96 102 182t60 116q16 6 30 6q16 -2 32 -16q-8 -14 -22 -44t-34 -68q-36 -74 -88 -170q-54 -94 -112 -178q-58 -86 -118 -142q-52 -48 -96 -48h-14 q-68 14 -112 62q-44 50 -70 124q-40 118 -42 284q-2 20 -2 40q0 148 16 300q14 168 38 320q16 102 26 182q-80 -2 -154 -10q-22 2 -22 16z" />
<glyph unicode="u" horiz-adv-x="1110" d="M22 872q16 50 56 50h6q46 -6 92 -52q24 -24 44 -60q22 -36 36 -80q0 -13 1 -28q0 -45 -5 -106q-6 -82 -12 -170q-7 -93 -7 -176q0 -33 1 -64q2 -108 50 -110q50 0 108 124q56 124 92 284q20 86 30 172q8 70 8 132v24q8 35 56 35q13 0 30 -3q76 -14 80 -74 q-4 -54 -16 -148q-12 -96 -24 -202q-6 -54 -10 -110q-4 -54 -6 -104q-1 -31 -1 -59q0 -56 5 -99q10 -64 40 -72h5q36 0 97 86q66 94 128 204q40 74 74 138q34 66 48 100q16 4 32 2q16 0 32 -12q-6 -14 -18 -40t-30 -62q-30 -66 -76 -152q-44 -86 -96 -160q-52 -76 -106 -124 q-44 -40 -84 -40q-10 0 -18 2q-48 12 -78 46t-48 78q-34 84 -34 180q-2 96 -2 142q-10 -26 -34 -98q-26 -74 -66 -138q-28 -44 -60 -74q-32 -28 -66 -28q-72 2 -118 34q-44 32 -72 86q-28 56 -40 128q-12 74 -14 152q-1 41 -1 80q0 99 7 194q3 36 3 65q0 77 -19 107z" />
<glyph unicode="v" horiz-adv-x="764" d="M20 850q14 32 34 48q22 14 46 18h9l107 -42q58 -46 74 -86q12 -52 26 -120q12 -68 26 -136q26 -130 48 -238q22 -106 34 -110q10 8 50 136t92 284q26 86 56 168t56 146q8 20 24 20q6 0 16 -2q18 -6 18 -18q0 -6 -6 -14q-68 -204 -136 -416q-66 -210 -144 -404 q-28 -64 -100 -92q-20 -8 -36 -8q-44 0 -62 56q-24 64 -46 146t-42 168q-38 162 -74 306q-34 146 -70 190z" />
<glyph unicode="w" horiz-adv-x="1440" d="M42 422v34q0 94 6 188q6 112 10 188v66q0 24 -6 30q6 18 18 28q12 12 26 16q16 8 34 8q28 -2 60 -16q52 -24 66 -60q1 -26 1 -54q0 -56 -5 -118q-8 -94 -22 -188q-24 -176 -42 -314q-7 -50 -7 -83q0 -59 23 -61q5 -1 9 -1q50 0 125 75q84 82 114 190q16 84 24 170 q10 84 22 126q16 28 66 28q14 0 30 -2q76 -10 94 -62q-8 -56 -18 -136t-18 -162q-12 -122 -12 -222q0 -98 30 -104q32 -6 58 10t46 48q38 58 58 158t30 208q12 138 12 256q2 120 4 156q11 64 52 64q13 0 28 -6q64 -26 66 -122q4 -64 40 -140q38 -78 90 -132q26 -28 56 -48 q30 -18 58 -20q26 -2 50 14t44 54q18 6 36 6q20 2 28 -10q-38 -70 -80 -100q-40 -30 -82 -30q-28 -2 -56 10q-26 10 -52 28q-58 40 -98 98q-38 52 -44 68q1 -21 1 -43q0 -44 -5 -93q-8 -76 -28 -150q-36 -138 -116 -238q-66 -82 -164 -82q-22 0 -44 2q-32 6 -62 24 q-28 18 -50 46q-42 48 -64 114q-22 59 -22 105v7q-30 -70 -120 -144q-75 -62 -149 -62q-12 0 -25 2q-72 12 -98 124q-24 110 -26 254z" />
<glyph unicode="x" horiz-adv-x="1272" d="M34 500q10 20 32 74t52 116q44 96 96 180q50 78 92 78h4q44 -6 82 -36q38 -32 70 -80q44 -68 78 -162q22 -64 40 -130q70 104 126 190q78 118 74 136q12 24 40 28q2 2 6 0q22 0 26 -42q-106 -210 -240 -426q10 -42 20 -82q16 -66 28 -124q26 -108 48 -182q20 -72 44 -74 h1q32 0 107 102q76 104 148 222q48 78 84 144q38 66 52 92q14 10 30 8q16 -4 30 -18q-6 -14 -20 -42t-34 -64q-38 -68 -90 -154q-52 -88 -108 -164q-58 -80 -112 -134q-52 -52 -90 -52q-2 0 -4 2q-50 4 -94 32q-42 28 -78 74q-48 62 -86 152q-8 20 -18 38 q-94 -148 -184 -288q-18 -22 -58 -26h-8q-32 -2 -40 26v2q0 10 14 40q16 30 44 74q50 82 130 200q30 44 62 88q-6 16 -10 32q-34 116 -56 226q-24 110 -42 180q-8 38 -18 60q-8 22 -16 24h-2q-20 0 -54 -58q-36 -64 -68 -136q-22 -50 -40 -90q-18 -42 -24 -60 q-16 -16 -38 -14q-20 2 -28 18z" />
<glyph unicode="y" horiz-adv-x="1012" d="M42 668q0 96 4 208q12 60 82 76q10 2 20 2h3q56 0 89 -72q-14 -74 -26 -178q-14 -104 -18 -210q-1 -34 -1 -66q0 -119 17 -216q22 -122 98 -122h2q48 2 94 114t74 252q18 94 26 184q6 58 6 104q0 28 -2 52q4 26 12 42q10 16 24 22q13 7 27 7q19 0 41 -13q38 -24 44 -58 q-16 -4 -18 -90q-1 -44 -1 -99.5t1 -122.5q2 -72 4 -154v-170q0 -28 -2 -56q66 62 140 146q96 110 166 254q14 8 32 10q16 2 32 -18q-54 -100 -110 -180q-56 -78 -110 -140q-82 -90 -152 -148q-6 -126 -20 -254q-20 -192 -80 -312q-34 -66 -80 -102t-108 -36h-4 q-32 2 -54 16q-22 16 -34 42q-18 39 -18 95q0 42 10 93q24 118 76 222q30 58 64 102q36 46 72 70q6 4 12 10l4 140q2 118 2 188q-22 -110 -74 -182t-120 -72q-144 0 -202 192q-44 144 -44 428zM336 -550q-1 -12 -1 -22q0 -62 21 -62q18 0 32 22q16 22 28 60q22 70 36 186 q12 114 20 236l2 30l-2 -2q-32 -28 -60 -104q-28 -74 -48 -158q-24 -102 -28 -186z" />
<glyph unicode="z" horiz-adv-x="932" d="M44 934v20q0 64 38 116q42 58 120 58h2q28 0 46 -14q16 -14 24 -38q10 -28 10 -66q0 -48 -16 -110q-12 -48 -26 -94q12 2 28 6q56 10 120 18q34 4 68 4t62 -4q28 -6 50 -16q20 -12 32 -32q4 -20 -4 -58q-8 -36 -24 -80q-30 -80 -84 -170q-52 -90 -104 -142h3 q110 0 173 -134q2 -8 6 -16l26 26q70 68 144 144q72 78 98 136q16 6 32 6t32 -8q-20 -42 -54 -86q-32 -46 -72 -92q-74 -84 -152 -160q-16 -16 -30 -28q36 -108 44 -236q2 -30 2 -60q0 -45 -4 -92q-6 -76 -24 -146q-30 -130 -98 -218q-66 -86 -170 -86h-4q-118 2 -132 134 q-2 21 -2 43q0 118 54 263q34 92 88 186q30 58 68 108q-12 90 -34 162q-28 84 -66 94q-32 10 -56 8q-22 0 -44 -4q-14 18 -20 48q-4 32 18 52q24 16 50 40q24 22 50 52q46 52 78 114q28 50 28 94q0 10 -2 20q-16 -1 -31 -1q-84 0 -145 19q-14 4 -26 8q-6 -20 -14 -40 q-22 -58 -44 -106t-38 -78q-16 -8 -32 -8q-16 2 -34 8q24 42 54 114q28 66 52 140q-20 12 -36 28q-36 32 -56 74q-18 40 -22 80zM154 970q-2 -21 -2 -42q0 -35 6 -68q6 -38 18 -52q30 94 44 176q6 32 6 54q0 49 -28 50q-18 0 -30 -36q-12 -34 -14 -82zM266 -566v-5 q0 -105 73 -105h5q48 2 70 120t22 272q0 66 -4 134l-4 56q-10 -18 -20 -38q-46 -84 -78 -166q-60 -154 -64 -268z" />
<glyph unicode="{" horiz-adv-x="552" d="M10 792q32 22 106 54q74 30 122 76q20 20 32 44q12 22 8 48q-6 40 -24 72q-16 34 -40 66q-44 58 -92 124t-58 166q-14 162 68 288q84 126 232 134q56 -6 64 -34t-22 -44q-56 14 -112 -32t-88 -122q-18 -40 -26 -86q-10 -44 -4 -92q4 -42 18 -78q16 -38 38 -74 q38 -66 80 -134q42 -66 44 -160q2 -64 -38 -106q-42 -42 -94 -66q-28 -14 -54 -24q-28 -10 -48 -18q68 -28 138 -72t92 -110q18 -46 14 -106q-4 -58 -20 -122q-28 -116 -72 -226t-42 -160q2 -30 18 -54q18 -24 42 -40q48 -32 112 -38q66 -8 112 10q6 -26 6 -48 q0 -58 -44 -96q-38 -34 -96 -34q-36 -2 -78 12q-88 42 -146 106q-56 66 -58 150q-2 38 16 90q20 50 46 106q52 106 102 220t26 196q-8 26 -28 50q-22 24 -50 46q-52 40 -114 70q-60 32 -88 48z" />
<glyph unicode="|" horiz-adv-x="3626" d="M54 1022v22q4 62 36 130q72 152 228 212q150 58 348 58h22q222 -4 488 -62q268 -56 542 -136q180 -52 356 -106q178 -56 342 -104q86 -26 168 -50q6 4 12 10q180 156 350 268t324 100q78 -8 134 -38q58 -30 94 -74q28 -36 44 -78q14 -44 14 -88v-2q0 -82 -48 -160 q-50 -78 -148 -120q-114 -50 -308 -32q-192 16 -432 70q-32 6 -64 14q-14 -12 -26 -24q-54 -48 -108 -98q40 -16 78 -34q186 -86 312 -204q68 -64 116 -134q48 -72 70 -148q38 -136 -12 -242q-50 -108 -148 -166q-54 -34 -118 -50q-58 -14 -120 -14h-12q-72 2 -130 22 q-56 20 -98 54q-82 66 -102 160q-22 96 20 174q24 42 64 74q42 34 102 48q80 20 144 -48q62 -70 44 -148q-18 -40 -48 -46q-30 -8 -52 42q16 50 -10 100q-26 48 -68 40q-76 -18 -110 -108q-36 -92 14 -170q26 -42 82 -70q56 -30 148 -32q42 -2 82 12t74 40q66 48 102 126 q36 76 26 160q-10 90 -86 172q-76 80 -192 146q-76 44 -166 80q-66 28 -136 50q-90 -76 -182 -140q-132 -92 -266 -142q-134 -48 -264 -24q-90 16 -158 54q-66 36 -108 84q-66 74 -76 160q-10 84 36 150q24 34 64 60q42 26 98 36q158 30 330 22q174 -8 344 -46 q116 -26 224 -66q32 28 66 58q30 26 60 54l-108 28q-140 38 -282 78q-216 60 -434 120q-220 60 -424 108q-248 56 -462 80t-364 -12q-82 -18 -140 -58q-60 -38 -92 -102q-40 -76 -14 -150q24 -74 90 -114q34 -22 78 -32q44 -8 94 2q66 12 72 80t-68 68q-48 0 -40 62 q8 64 50 64q50 20 90 -12q40 -34 58 -90q10 -36 8 -78t-22 -78q-16 -30 -46 -54q-30 -22 -76 -34q-128 -32 -228 20q-98 52 -132 152q-14 42 -14 94zM1376 614q-22 -76 42 -136q26 -26 70 -44q42 -20 98 -26q152 -16 306 60q146 72 294 182q-154 40 -314 58q-188 18 -348 -2 q-124 -18 -148 -92zM2672 962q158 -40 294 -68q242 -48 358 2q50 20 76 52q28 32 36 68q22 84 -48 166q-68 82 -186 90q-142 10 -312 -128q-106 -84 -218 -182z" />
<glyph unicode="}" horiz-adv-x="594" d="M42 1704q0 56 44 96q38 34 96 34q34 0 78 -12q88 -42 146 -108q56 -64 58 -150q2 -38 -18 -88q-18 -50 -46 -108q-50 -106 -100 -218q-50 -114 -26 -198q8 -26 28 -48q22 -24 50 -46q52 -40 112 -72q62 -30 90 -48q-32 -20 -106 -52q-74 -30 -122 -78q-20 -18 -32 -42 q-12 -22 -8 -50q10 -72 58 -126q46 -56 92 -124q22 -36 40 -80t24 -98q14 -162 -70 -288q-82 -126 -230 -134q-56 8 -64 36q-10 28 22 42q30 -6 60 4q30 12 60 36q50 46 84 126t26 166q-4 42 -20 80q-14 38 -36 72q-38 66 -80 134t-44 160q-2 34 10 62q14 28 34 50 q38 42 94 66t96 36q-68 30 -138 74t-94 110q-16 46 -12 104q4 60 20 122q28 118 72 228t40 158q0 32 -18 54q-16 24 -42 42q-46 30 -110 38q-66 8 -112 -10q-6 26 -6 48z" />
<glyph unicode="~" horiz-adv-x="882" d="M30 646v12q0 48 34 114q38 72 114 84q6 2 14 2q28 0 74 -16q58 -18 126 -46q102 -42 196 -84q94 -40 114 -30q32 16 4 52t-46 50q-8 30 26 48q36 18 74 8q38 -18 60 -54q24 -36 32 -76q4 -24 4 -46q0 -38 -12 -76q-22 -58 -72 -76q-34 -14 -70 -14q-8 0 -16 2 q-46 2 -92 18q-90 32 -178 94q-86 60 -150 106q-34 26 -58 40q-26 14 -38 12q-30 -6 -52 -54q-20 -48 12 -66q-8 -42 -46 -42q-38 2 -54 38z" />
<glyph unicode="&#xa1;" horiz-adv-x="302" d="M52 26q2 6 8 88q4 82 12 204q2 68 6 142q4 76 6 154q4 120 6 240t0 220q8 70 46 82h12q30 0 46 -42q20 -94 26 -210q8 -118 12 -236v-150v-142q0 -124 4 -206t22 -88q-2 -16 -8 -28q-6 -14 -16 -26q-42 -44 -110 -48q-8 -2 -12 -2q-58 2 -60 48zM62 1550q0 24 8 44 q14 34 50 32q38 -2 56 24q40 -14 60 -62q12 -26 12 -46q0 -18 -8 -30q-12 -26 -54 -46q-22 -12 -44 -12q-18 0 -36 8q-36 16 -42 58q-2 16 -2 30z" />
<glyph unicode="&#xa2;" horiz-adv-x="562" d="M52 790v40q10 158 74 288q26 52 62 84t76 44q24 8 48 10q-2 36 -6 100q-2 32 -2 56q0 42 6 64q16 52 38 52q6 0 10 -2q32 -14 50 -34q4 -24 4 -50q0 -44 -14 -90q-16 -60 -12 -108q26 -8 52 -26q84 -58 84 -168q0 -22 -4 -40q-2 -18 -6 -38q-16 -14 -40 0q-24 12 -24 30 q8 40 0 94q-10 54 -40 56q-50 4 -94 -78q-44 -84 -68 -196q-10 -48 -16 -98q-6 -48 -6 -94q2 -84 28 -146q26 -60 84 -68q38 -6 84 34q44 40 46 66q18 12 40 12q22 2 32 -22q-2 -50 -68 -106q-50 -42 -104 -50v-14q0 -28 2 -56q2 -54 8 -102t16 -58q-28 -26 -56 -36 q-8 -2 -14 -2q-20 0 -34 24q-8 40 -8 88q0 24 2 50q4 60 16 110q-62 14 -106 46q-54 42 -88 102q-52 100 -52 232z" />
<glyph unicode="&#xa3;" horiz-adv-x="1022" d="M44 142q0 44 24 86q18 28 46 52q28 22 68 34q72 22 158 2q8 68 10 152q2 76 -2 160q-2 54 -4 110q-40 2 -76 2q-86 0 -90 -22q-42 0 -56 28q-4 8 -4 16q0 16 20 28q64 10 164 14l40 2q-4 128 -4 254q0 130 18 234q16 98 54 166q40 66 110 82q34 8 64 8q62 0 110 -32 q70 -48 100 -136q16 -46 18 -102q2 -54 -10 -112q-2 -30 -12 -46t-26 -20q-26 -8 -58 12q-34 22 -48 48q10 20 18 48q8 26 10 58q6 60 -6 120t-46 92q-16 16 -40 22t-54 -4q-62 -18 -80 -122q-16 -102 -12 -248q2 -80 8 -166q4 -76 8 -154q20 2 40 2q54 0 106 2q50 0 94 2 q32 -20 32 -48v-4q-4 -32 -48 -40q-18 -4 -86 2q-62 4 -134 8q6 -112 6 -220q0 -132 -24 -238q100 -38 206 -76q70 -26 144 -44q72 -16 142 -12q44 -8 44 -42q0 -14 -8 -34q-28 -64 -100 -82q-78 8 -146 38q-70 30 -134 70q-90 54 -168 104q-20 -56 -50 -100 q-48 -70 -138 -88q-44 -10 -78 -4q-36 6 -60 22q-48 32 -58 90q-2 14 -2 26zM120 198q-6 -54 36 -80q14 -8 34 -10q18 -2 42 4q68 18 92 116q4 14 6 30q-72 32 -140 14q-64 -18 -70 -74z" />
<glyph unicode="&#xa4;" horiz-adv-x="972" d="M84 958q2 26 14 54q6 12 20 12q16 0 44 -18t78 -82q48 -64 70 -94q18 -36 6 -46q-6 -6 -18 -8q-12 -4 -34 -4q-26 50 -88 90q-60 42 -92 96zM92 116v10q28 48 78 100q52 52 100 86q26 -10 22 -16t18 -22q-30 -34 -72 -90q-6 -10 -14 -20q-52 -68 -50 -90h-12q-28 0 -50 8 q-22 10 -20 34zM162 532q0 66 24 136q40 114 134 170q48 30 110 38q16 2 34 2q48 0 102 -16q32 -10 42 -50q10 -38 -14 -68q-10 -14 -28 -22q-16 -10 -42 -10q-28 18 -54 20t-50 -8q-54 -24 -86 -104t-26 -160q4 -54 26 -100q22 -44 68 -64q78 -36 160 8q80 44 130 122 q26 42 40 90q14 46 8 92q-6 44 -32 84t-76 70q-38 22 -18 62q18 38 50 14q74 -40 114 -96q38 -56 48 -120q6 -28 6 -54q0 -92 -54 -182q-68 -116 -186 -158q-50 -18 -106 -18q-14 0 -26 2q-72 4 -148 46q-56 30 -92 80q-34 50 -48 108q-10 42 -10 86zM664 284q0 8 4 12 q14 10 52 12q26 -50 86 -92q62 -40 92 -94q0 -26 -12 -54q-6 -12 -20 -12q-16 0 -46 18q-28 18 -76 82t-70 94q-10 22 -10 34zM678 806q36 40 86 110q52 68 50 90h12q28 0 50 -8q22 -10 22 -34q0 -4 -2 -10q-26 -48 -78 -100t-100 -86q-26 10 -22 16t-18 22z" />
<glyph unicode="&#xa5;" horiz-adv-x="910" d="M40 1476q0 18 2 32q24 54 82 72q18 6 32 6q30 0 36 -26q8 -66 20 -150t26 -170q28 -162 64 -296q38 -132 78 -138q58 -8 116 52q56 62 64 122q4 46 20 176q14 130 46 242q20 56 74 62q52 6 60 -44q-30 -78 -48 -224q-18 -148 -34 -320q-8 -74 -16 -150q108 0 182 -6 q34 -22 34 -52v-4q-2 -32 -50 -40q-16 -2 -90 4q-40 2 -84 4l-10 -92q-2 -10 -2 -22h14q56 -4 108 -8q52 -2 92 -8q28 -12 28 -34v-6q-4 -24 -42 -36q-16 0 -88 -2q-58 -2 -126 -4q-12 -96 -30 -178q-16 -68 -34 -122q-18 -52 -42 -82q-10 -10 -38 -10t-78 14q-94 28 -82 82 q44 -6 80 80t62 204q0 4 2 6h-88q-64 -2 -94 -2h-26q-46 8 -48 44v2q2 40 36 60q70 6 164 6h26h52q12 56 20 110q-82 2 -156 -2q-102 -4 -114 -30q-66 14 -66 48q0 2 2 4q4 38 36 52q40 4 94 8q52 4 112 6l104 4q14 116 16 146q-12 -30 -50 -78q-40 -46 -112 -34 q-68 12 -124 78q-56 68 -96 160q-64 142 -92 296q-24 122 -24 188z" />
<glyph unicode="&#xa7;" horiz-adv-x="610" d="M64 1254q0 94 70 162q80 78 174 92q18 4 34 4q68 0 124 -46q70 -58 72 -138q-10 -34 -32 -42q-24 -10 -34 20q4 52 -36 112q-38 60 -120 46q-68 -10 -96 -88q-30 -76 -20 -142q10 -78 94 -130q82 -52 160 -124q40 -38 72 -88q30 -50 36 -120q2 -8 2 -16q0 -76 -70 -154 q-50 -56 -102 -86q24 -20 48 -42q40 -36 68 -82q28 -44 34 -106q2 -10 2 -20q0 -72 -52 -134q-58 -72 -154 -86q-14 -2 -28 -2q-42 0 -90 20q-60 28 -90 78q-16 26 -20 60q-2 34 12 70q36 36 64 26q28 -8 20 -50q-12 -62 20 -112t104 -42q68 8 104 68q38 62 30 120 q-6 44 -38 78q-32 32 -74 62q-80 56 -166 112q-86 58 -92 162v8q0 36 14 66q18 36 46 64q52 54 126 84q22 8 40 16q-72 48 -140 104q-44 36 -76 82t-38 108q-2 12 -2 26zM204 704q8 -70 86 -118q18 -12 38 -24q36 26 82 78q60 68 52 124q-10 68 -64 116q-64 -4 -128 -46 q-76 -50 -66 -130z" />
<glyph unicode="&#xa8;" horiz-adv-x="498" d="M28 1500v6q0 26 26 56q28 36 66 34q8 -26 40 -34q32 -10 34 -42q2 -28 -16 -62q-16 -28 -42 -36q-4 0 -10 -2h-8q-32 0 -58 26q-28 28 -32 54zM268 1520q0 24 12 50q18 42 54 48h8q26 0 52 -28q32 -34 38 -74q-14 -16 -16 -50t-36 -38q-2 -2 -4 -2h-8q-24 0 -52 14 q-34 16 -44 52q-4 14 -4 28z" />
<glyph unicode="&#xa9;" horiz-adv-x="1104" d="M46 1048q0 122 60 230q44 76 120 138q76 64 192 100q46 16 80 16h6q30 0 48 -6q40 -16 46 -54q4 -36 -14 -66q-130 -34 -210 -100q-78 -68 -116 -150q-56 -126 -32 -264q26 -138 102 -228q42 -50 94 -78q52 -30 110 -28q80 0 152 40q72 38 130 102q108 118 148 286 t-34 294q-38 64 -112 110q-72 44 -186 54q-10 24 -6 44q4 18 34 8q116 -8 196 -54q82 -48 130 -116q72 -108 72 -244q0 -38 -6 -78q-26 -186 -150 -318q-68 -72 -162 -114q-94 -44 -210 -44q-98 -2 -182 36q-82 38 -144 100q-114 118 -146 290q-10 48 -10 94zM370 954v28 q6 122 58 222q20 40 46 64q28 24 58 34q24 8 48 8q46 0 88 -28q64 -46 64 -130q0 -16 -2 -30q-2 -16 -6 -30q-12 -10 -30 0t-20 24q8 30 0 72q-6 42 -30 42q-46 4 -86 -88q-40 -94 -52 -200q-8 -88 8 -158q18 -70 74 -78q30 -2 64 28q36 30 36 50q14 10 32 10q16 0 24 -18 q0 -38 -52 -82q-48 -38 -96 -38h-14q-62 8 -104 40q-42 30 -68 78q-42 76 -40 180z" />
<glyph unicode="&#xab;" horiz-adv-x="1052" d="M42 644q2 22 86 92t180 148q78 66 142 124t76 88q12 4 24 4h12q16 -4 28 -16q30 -26 42 -76q4 -28 4 -50q0 -20 -4 -36q-38 -28 -88 -62q-50 -32 -104 -68q-98 -64 -180 -120q-84 -56 -88 -72q12 -18 72 -84q60 -68 130 -144l78 -78q36 -40 68 -68q14 -34 4 -70 q-8 -28 -34 -28q-6 0 -12 2q-12 22 -72 88t-130 144q-88 96 -162 180q-72 84 -72 102zM412 598q2 18 64 72t144 120q98 78 192 150t110 90q18 6 32 6q38 0 48 -48q8 -32 8 -60t-6 -52q-44 -32 -110 -68q-66 -38 -136 -74q-104 -54 -190 -98q-84 -44 -90 -60q12 -16 78 -70 q64 -54 138 -116q42 -34 80 -68q40 -34 72 -64q48 -32 22 -66q-22 -28 -48 -28q-8 0 -14 2q-16 20 -70 74q-54 56 -116 120q-78 80 -144 150q-62 70 -64 88z" />
<glyph unicode="&#xad;" horiz-adv-x="572" d="M20 696q0 48 48 56h2q18 0 68 -10q54 -12 118 -24q78 -14 150 -18q70 -6 84 20q66 -14 64 -50v-2q-4 -38 -36 -54q-72 -6 -144 -6q-42 0 -84 2q-114 6 -236 18q-34 20 -34 68z" />
<glyph unicode="&#xae;" horiz-adv-x="960" d="M54 1116q0 104 52 200q38 68 106 122q66 54 166 86q62 20 96 20q30 0 38 -16q20 -34 -6 -74q-124 -28 -198 -86q-72 -60 -102 -134q-26 -62 -28 -128q-2 -68 14 -132q30 -118 112 -204q80 -86 176 -84q66 0 126 26q60 28 110 74q42 36 74 82q32 48 54 98q40 96 40 196 q0 102 -54 178q-38 56 -108 92q-72 34 -178 38q-10 20 -6 36q4 18 30 8q102 -8 174 -48t114 -102q70 -98 70 -226q0 -28 -4 -58q-18 -164 -124 -280q-58 -64 -140 -102q-80 -40 -184 -40q-84 0 -158 34q-72 32 -126 88q-100 102 -128 254q-8 42 -8 82zM354 994q0 34 2 66 q6 106 16 178q6 40 10 68q2 26 2 38q2 16 12 16h6q16 -8 22 -18q22 -74 16 -142t2 -72q4 4 18 62t46 102q12 16 24 26q14 10 30 16q36 10 74 -26q34 -34 34 -72v-4q-2 -34 -22 -66t-50 -62q-32 -32 -68 -58q32 -22 52 -74q24 -66 54 -104q12 -16 28 -22q14 -6 34 2 q18 8 18 -12q-2 -18 -28 -22q-10 -2 -20 -2q-20 0 -36 8q-26 12 -46 34q-40 42 -72 98q-22 38 -48 56q-14 -4 -22 -4q0 -54 8 -104q10 -52 2 -94q0 -14 -16 -14q-10 -2 -28 6q-42 18 -44 42q-10 78 -10 154zM456 1054h8q4 0 10 2q8 2 14 6q50 44 82 124q16 38 16 60 q0 28 -20 36h-4q-18 0 -54 -54q-40 -58 -52 -174z" />
<glyph unicode="&#xaf;" horiz-adv-x="920" d="M58 1502v2q4 38 36 54q74 8 214 14q140 8 276 8q30 2 60 2q38 0 74 -2q64 0 106 -4q32 -20 34 -60q0 -4 -2 -8q-2 -46 -50 -54q-16 0 -104 6q-88 8 -196 14q-132 6 -252 6q-118 -2 -132 -28q-66 14 -64 50z" />
<glyph unicode="&#xb0;" horiz-adv-x="452" d="M20 1452q0 50 24 94q18 30 48 52q32 22 78 32q20 6 36 -14v4q-2 26 16 28q4 0 8 -2q52 0 90 -20t64 -52q46 -58 42 -138q-2 -82 -54 -138q-28 -30 -68 -48q-18 -8 -40 -14q-24 -4 -52 -4h-2q-38 0 -70 16q-34 16 -58 42q-46 50 -58 124q-4 18 -4 38zM146 1484 q-6 -44 12 -92q16 -38 44 -66q26 -28 60 -26q74 8 98 96q26 88 -24 146q-16 20 -42 32q-24 12 -60 12q-8 0 -12 2q10 -32 -26 -56q-44 -4 -50 -48z" />
<glyph unicode="&#xb4;" horiz-adv-x="312" d="M26 1456q2 24 8 46q32 58 60 106q26 48 76 84h12q32 0 62 -28q36 -32 24 -72q-14 -2 -46 -42q-32 -42 -70 -82q-22 -22 -44 -38q-22 -18 -44 -24h-4q-28 0 -32 32q-2 10 -2 18z" />
<glyph unicode="&#xb5;" horiz-adv-x="814" d="M124 554v76q2 148 20 220q20 60 84 66q62 6 78 -36q20 -46 -4 -128q-26 -84 -22 -168q6 -38 18 -108q14 -70 34 -148q32 -118 82 -218q52 -102 124 -102q8 0 12 20q2 22 2 58q0 70 -6 182q-8 112 -8 230q0 120 16 232q14 110 56 170q24 36 78 40h16q42 0 64 -24 q8 -10 12 -24v-12q2 -10 -2 -20q-54 -42 -54 -160q-2 -116 2 -268q2 -80 0 -166t-14 -170q-8 -60 -66 -100t-98 -38q-54 0 -94 26q-42 24 -72 64q-58 76 -84 186q-26 112 -30 208q4 -48 0 -198q-6 -150 -8 -320v-182q2 -88 8 -162q0 -24 -42 -50q-12 -8 -24 -8q-30 0 -58 44 q10 20 6 132q-2 110 -8 264q-4 84 -8 172q-4 90 -6 180q-4 126 -4 240z" />
<glyph unicode="&#xb6;" horiz-adv-x="868" d="M38 1190q0 82 62 154q60 72 188 120q126 50 334 54q38 -4 54 -44q4 -10 4 -18q0 -26 -34 -40q-166 -6 -270 -42t-158 -88q-78 -80 -50 -170q28 -92 132 -138q54 -24 130 -30q16 -2 32 -2q-4 100 -6 188q-6 126 -6 172q22 24 64 24q40 0 44 -32q2 -8 2 -44q2 -34 2 -88 q2 -86 2 -206l26 6q20 -10 20 -38t-22 -28l-24 -8l4 -272q2 -188 10 -334q6 -146 24 -154q-4 -60 -38 -62h-4q-32 0 -52 24l-6 66q-2 46 -6 110q-6 114 -14 272t-14 310q-2 12 -2 24h-34q-22 0 -42 2q-92 10 -164 44q-132 64 -174 190q-14 40 -14 78zM638 1314q0 34 2 54 q10 18 28 18h6q22 -4 34 -26q0 -18 12 -172q12 -152 26 -344l12 -164q8 -84 14 -160q10 -142 18 -242q6 -100 6 -112q-4 -36 -32 -36h-10q-40 8 -60 38q-4 22 -8 70q-4 46 -8 108q-8 116 -16 272q-6 156 -12 304q-6 154 -10 278q-2 70 -2 114z" />
<glyph unicode="&#xbb;" horiz-adv-x="1022" d="M26 928q0 28 6 60q12 48 50 48q14 0 32 -6q12 -14 80 -66q66 -52 150 -118q100 -78 188 -152t90 -96h2q0 -14 -44 -66q-46 -52 -108 -114q-76 -80 -150 -154t-92 -98q-6 -2 -14 -2q-28 0 -48 28q-26 34 22 66q32 30 70 64l80 68q76 62 140 116t78 70q-6 16 -92 60 t-190 98q-68 36 -134 74q-66 36 -110 68q-6 24 -6 52zM398 958q0 22 6 50q10 50 40 76q14 12 30 14q6 2 12 2q12 0 24 -4q12 -30 76 -88t142 -124q94 -78 180 -148q84 -70 86 -92q0 -14 -50 -74q-52 -62 -120 -138q-86 -94 -168 -184t-98 -118q-6 -2 -12 -2q-26 0 -34 28 q-10 36 4 70q30 28 68 68q38 38 76 78q72 76 132 142q60 68 72 86q-4 16 -88 72q-82 56 -180 120q-54 36 -104 68q-50 34 -88 62q-6 16 -6 36z" />
<glyph unicode="&#xbf;" horiz-adv-x="760" d="M44 334q0 -64 22 -122q26 -74 96 -134q50 -44 110 -60q46 -14 92 -12h26q138 12 248 116q106 98 106 220q0 8 -2 14q-2 56 -48 90q-46 32 -88 14q-18 -8 -30 -28q-14 -18 -20 -52q6 -42 -16 -90q-20 -46 -58 -86q-54 -60 -130 -92q-74 -30 -130 8q-78 50 -58 162 q20 110 88 218q44 72 100 132q54 60 106 90q38 24 60 60q20 38 30 80q18 78 14 154q-2 78 18 104q-6 48 -60 58q-8 2 -14 2q-40 0 -52 -52q4 -34 14 -96q10 -64 -6 -124q-8 -30 -28 -56t-54 -38q-124 -48 -224 -178t-112 -274v-28zM414 1468q0 14 4 28q10 36 44 52 q26 14 52 14h12q34 -6 36 -40t16 -50q-6 -40 -38 -72q-26 -30 -52 -30q-4 0 -8 2q-36 4 -54 46q-12 26 -12 50z" />
<glyph unicode="&#xc0;" d="M40 776v60q6 302 34 504t12 226q14 24 36 24q14 0 34 -10q46 -26 50 -56q8 -32 14 -98q6 -64 10 -138q6 -114 10 -212q4 -100 10 -102q2 10 10 36q6 26 16 60q20 66 48 154q30 86 68 166t84 136q44 56 94 54q100 -4 154 -126t80 -300q14 -96 20 -202t8 -214q2 -84 2 -166 v-146q-4 -150 -6 -252v-96q0 -40 4 -56q-22 -40 -86 -40q-14 0 -30 2q-88 10 -118 70q-18 106 -16 290q0 76 2 156q-10 0 -20 -2q-100 -12 -202 -38q-42 -10 -78 -20q0 -6 2 -12q18 -166 26 -368q-14 -40 -106 -24t-108 82q-36 192 -48 374q-10 150 -10 284zM258 828 q8 -194 22 -342q46 12 96 24q102 20 206 32h2q2 92 6 188q4 104 6 208q4 104 6 198q2 174 -6 290q-6 116 -36 120q-32 2 -76 -76t-88 -188q-54 -132 -94 -268q-42 -138 -44 -186zM408 1810q-2 26 22 52q30 34 66 34h4q52 -30 84 -76q32 -44 70 -98q12 -30 12 -62v-2 q0 -36 -32 -36q-20 4 -40 16q-18 12 -38 28q-44 36 -84 80q-38 44 -60 42q-4 10 -4 22z" />
<glyph unicode="&#xc1;" d="M40 776v60q6 302 34 504t12 226q14 24 36 24q14 0 34 -10q46 -26 50 -56q8 -32 14 -98q6 -64 10 -138q6 -114 10 -212q4 -100 10 -102q2 10 10 36q6 26 16 60q20 66 48 154q30 86 68 166t84 136q44 56 94 54q100 -4 154 -126t80 -300q14 -96 20 -202t8 -214q2 -84 2 -166 v-146q-4 -150 -6 -252v-96q0 -40 4 -56q-22 -40 -86 -40q-14 0 -30 2q-88 10 -118 70q-18 106 -16 290q0 76 2 156q-10 0 -20 -2q-100 -12 -202 -38q-42 -10 -78 -20q0 -6 2 -12q18 -166 26 -368q-14 -40 -106 -24t-108 82q-36 192 -48 374q-10 150 -10 284zM258 828 q8 -194 22 -342q46 12 96 24q102 20 206 32h2q2 92 6 188q4 104 6 208q4 104 6 198q2 174 -6 290q-6 116 -36 120q-32 2 -76 -76t-88 -188q-54 -132 -94 -268q-42 -138 -44 -186zM466 1656v2q0 32 14 62q36 54 68 98q32 46 84 76h4q36 0 66 -34q24 -26 24 -52q0 -12 -6 -24 q-22 4 -60 -40q-40 -44 -84 -80q-18 -18 -38 -28q-20 -12 -38 -16q-34 0 -34 36z" />
<glyph unicode="&#xc2;" d="M40 776v60q6 302 34 504t12 226q14 24 36 24q14 0 34 -10q46 -26 50 -56q8 -32 14 -98q6 -64 10 -138q6 -114 10 -212q4 -100 10 -102q2 10 10 36q6 26 16 60q20 66 48 154q30 86 68 166t84 136q44 56 94 54q100 -4 154 -126t80 -300q14 -96 20 -202t8 -214q2 -84 2 -166 v-146q-4 -150 -6 -252v-96q0 -40 4 -56q-22 -40 -86 -40q-14 0 -30 2q-88 10 -118 70q-18 106 -16 290q0 76 2 156q-10 0 -20 -2q-100 -12 -202 -38q-42 -10 -78 -20q0 -6 2 -12q18 -166 26 -368q-14 -40 -106 -24t-108 82q-36 192 -48 374q-10 150 -10 284zM258 828 q8 -194 22 -342q46 12 96 24q102 20 206 32h2q2 92 6 188q4 104 6 208q4 104 6 198q2 174 -6 290q-6 116 -36 120q-32 2 -76 -76t-88 -188q-54 -132 -94 -268q-42 -138 -44 -186zM328 1692q0 8 4 14q16 4 46 32q28 28 58 62q36 44 70 82q32 36 44 36q8 0 40 -42 q30 -42 66 -92q28 -40 52 -74q26 -34 36 -42v-2q0 -16 -32 -16q-34 2 -50 12q-40 52 -64 104q-24 50 -36 62q-12 -6 -30 -72q-16 -66 -64 -116q-6 -2 -14 -2q-26 0 -76 16q-48 14 -50 38z" />
<glyph unicode="&#xc3;" d="M40 776v60q6 302 34 504t12 226q14 24 36 24q14 0 34 -10q46 -26 50 -56q8 -32 14 -98q6 -64 10 -138q6 -114 10 -212q4 -100 10 -102q2 10 10 36q6 26 16 60q20 66 48 154q30 86 68 166t84 136q44 56 94 54q100 -4 154 -126t80 -300q14 -96 20 -202t8 -214q2 -84 2 -166 v-146q-4 -150 -6 -252v-96q0 -40 4 -56q-22 -40 -86 -40q-14 0 -30 2q-88 10 -118 70q-18 106 -16 290q0 76 2 156q-10 0 -20 -2q-100 -12 -202 -38q-42 -10 -78 -20q0 -6 2 -12q18 -166 26 -368q-14 -40 -106 -24t-108 82q-36 192 -48 374q-10 150 -10 284zM222 1734 q0 30 8 68q12 62 68 78q22 8 58 -4q36 -10 76 -26q58 -26 112 -52q56 -24 70 -14q22 14 -4 38q-24 24 -40 32q-8 22 22 44q28 20 54 20h8q30 -10 52 -38t36 -64q14 -42 14 -84v-22q-6 -54 -42 -74q-32 -18 -64 -18q-4 0 -8 2q-38 2 -74 16q-56 24 -106 64q-52 42 -88 70 q-20 14 -34 24q-14 8 -22 4q-24 -8 -34 -40q-12 -34 14 -44q0 -32 -30 -36q-28 -4 -42 22q-4 16 -4 34zM258 828q8 -194 22 -342q46 12 96 24q102 20 206 32h2q2 92 6 188q4 104 6 208q4 104 6 198q2 174 -6 290q-6 116 -36 120q-32 2 -76 -76t-88 -188q-54 -132 -94 -268 q-42 -138 -44 -186z" />
<glyph unicode="&#xc4;" d="M40 776v60q6 302 34 504t12 226q14 24 36 24q14 0 34 -10q46 -26 50 -56q8 -32 14 -98q6 -64 10 -138q6 -114 10 -212q4 -100 10 -102q2 10 10 36q6 26 16 60q20 66 48 154q30 86 68 166t84 136q44 56 94 54q100 -4 154 -126t80 -300q14 -96 20 -202t8 -214q2 -84 2 -166 v-146q-4 -150 -6 -252v-96q0 -40 4 -56q-22 -40 -86 -40q-14 0 -30 2q-88 10 -118 70q-18 106 -16 290q0 76 2 156q-10 0 -20 -2q-100 -12 -202 -38q-42 -10 -78 -20q0 -6 2 -12q18 -166 26 -368q-14 -40 -106 -24t-108 82q-36 192 -48 374q-10 150 -10 284zM258 828 q8 -194 22 -342q46 12 96 24q102 20 206 32h2q2 92 6 188q4 104 6 208q4 104 6 198q2 174 -6 290q-6 116 -36 120q-32 2 -76 -76t-88 -188q-54 -132 -94 -268q-42 -138 -44 -186zM358 1712q0 26 26 56q30 34 68 34q6 -28 38 -36t34 -40v-6q0 -26 -16 -58t-50 -36 q-6 -2 -10 -2q-30 0 -56 26q-28 30 -32 54q-2 4 -2 8zM600 1724q0 24 12 50q18 42 52 48h10q26 0 52 -28q30 -34 36 -72q-14 -18 -14 -52q-2 -34 -36 -38q-6 -2 -14 -2q-24 0 -50 14q-34 16 -44 52q-4 14 -4 28z" />
<glyph unicode="&#xc5;" d="M40 776v60q6 302 34 504t12 226q14 24 36 24q14 0 34 -10q46 -26 50 -56q8 -32 14 -98q6 -64 10 -138q6 -114 10 -212q4 -100 10 -102q2 10 10 36q6 26 16 60q20 66 48 154q30 86 68 166t84 136q44 56 94 54q100 -4 154 -126t80 -300q14 -96 20 -202t8 -214q2 -84 2 -166 v-146q-4 -150 -6 -252v-96q0 -40 4 -56q-22 -40 -86 -40q-14 0 -30 2q-88 10 -118 70q-18 106 -16 290q0 76 2 156q-10 0 -20 -2q-100 -12 -202 -38q-42 -10 -78 -20q0 -6 2 -12q18 -166 26 -368q-14 -40 -106 -24t-108 82q-36 192 -48 374q-10 150 -10 284zM258 828 q8 -194 22 -342q46 12 96 24q102 20 206 32h2q2 92 6 188q4 104 6 208q4 104 6 198q2 174 -6 290q-6 116 -36 120q-32 2 -76 -76t-88 -188q-54 -132 -94 -268q-42 -138 -44 -186zM398 1754q0 38 22 70q16 20 40 34q26 14 64 18q14 2 26 -18v6q-2 26 14 24h12q84 0 110 -76 q10 -30 10 -56q0 -50 -34 -90q-18 -20 -46 -36q-26 -14 -64 -18q-8 -2 -16 -2q-24 0 -42 8q-28 8 -48 28q-36 32 -46 84q-2 12 -2 24zM518 1736q20 -64 66 -54q40 8 52 60t-14 80q-10 10 -24 16q-12 4 -32 2q-6 -2 -8 0q10 -30 -12 -42q-48 2 -28 -62z" />
<glyph unicode="&#xc6;" horiz-adv-x="1388" d="M48 776v60q6 302 34 504t10 226q16 24 38 24q14 0 34 -10q46 -26 50 -56q8 -32 14 -98q6 -64 10 -138q6 -114 10 -212q4 -100 8 -102q4 10 12 36q6 26 16 60q20 66 48 154q30 86 68 166t84 136q44 56 94 54q82 -4 130 -88q50 -84 76 -218q4 -20 6 -40q12 48 26 94 q34 126 82 240q26 20 52 20q12 0 22 -4q38 -10 64 -32q34 -14 130 -12t174 12q14 0 18 -10v-6q0 -6 -4 -12q-76 -34 -166 -40q-92 -4 -128 -14q-8 -16 -20 -108q-12 -94 -22 -222q-6 -68 -12 -144q-6 -74 -10 -150q-12 -172 -16 -310q-6 -138 2 -158q16 -14 100 2 q84 18 142 52q22 0 24 -22t-12 -38q-64 -42 -138 -50q-76 -10 -102 -16q-8 -10 0 -54q6 -44 20 -92q10 -38 26 -66q14 -30 28 -32q26 -2 110 28t144 58q4 -6 6 -16t-6 -22q-64 -38 -150 -72q-84 -36 -114 -42q-20 -4 -40 -4q-48 0 -108 18q-78 26 -108 66q0 -48 4 -66 q-28 -34 -74 -34q-16 0 -32 4q-66 14 -98 74q-16 106 -14 290q0 76 2 156q-10 0 -20 -2q-100 -12 -204 -38q-40 -10 -76 -20q0 -6 2 -12q18 -166 26 -368q-14 -40 -106 -24t-108 82q-36 192 -48 374q-10 150 -10 284zM264 828q10 -194 24 -342q46 12 96 24q102 20 206 32h2 q2 92 6 188q2 104 6 208t6 198q2 174 -6 290q-6 116 -36 120q-32 2 -76 -76t-88 -188q-54 -132 -94 -268q-42 -138 -46 -186z" />
<glyph unicode="&#xc7;" horiz-adv-x="772" d="M48 770v22q0 148 38 326q44 192 136 316q50 68 116 104q52 30 114 30q16 0 32 -2q146 -16 190 -128q46 -110 32 -272q-10 -26 -38 -38q-30 -12 -36 20q12 64 8 150q-2 84 -36 144q-18 34 -44 54q-28 20 -68 24q-64 2 -102 -128t-54 -294q-10 -90 -14 -176q-4 -88 -4 -160 q0 -60 10 -140q10 -78 28 -160q32 -152 90 -274q56 -124 122 -124q34 0 56 56t32 128q8 46 10 94t0 84q8 16 30 12q24 -6 28 -28q0 -50 -6 -160t-50 -186q-18 -32 -48 -52q-28 -22 -68 -22h-2v-10q0 -18 14 -24q32 -14 60 -38q30 -26 50 -58q40 -60 40 -130v-2 q0 -70 -64 -120q-26 -22 -56 -28q-20 -6 -38 -6q-10 0 -20 2q-68 8 -120 60q-48 48 -48 106v12q4 38 68 50q62 10 70 -44q-8 -52 16 -96q26 -44 70 -12q34 24 22 72q-10 48 -42 94q-18 24 -40 46q-20 20 -42 34q-20 14 -26 60q-4 24 -6 40q-34 8 -64 22q-70 32 -128 90 q-104 110 -160 288q-54 180 -58 372z" />
<glyph unicode="&#xc8;" horiz-adv-x="728" d="M62 598v40q0 234 42 466q48 252 136 464q26 20 52 20q12 0 22 -4q38 -10 64 -32q34 -14 130 -12t174 12q14 0 18 -10v-6q0 -6 -4 -12q-76 -34 -166 -40q-92 -4 -128 -14q-10 -20 -26 -158q-14 -138 -28 -310q-6 -74 -10 -150q-6 -74 -10 -144q-6 -128 -8 -220 q-2 -94 4 -110q16 -14 100 2q84 18 142 52q22 -2 24 -22q2 -22 -12 -38q-64 -42 -138 -50q-76 -10 -102 -16q-6 -8 -2 -40q2 -32 12 -72q12 -46 30 -88q16 -42 34 -44q26 -2 110 28t144 56q4 -4 6 -14t-6 -22q-64 -38 -150 -72q-84 -36 -114 -42q-24 -4 -50 -4 q-46 0 -100 12q-88 20 -116 68q-36 122 -54 256q-18 132 -20 270zM290 1804q0 28 22 52q30 34 66 34h4q54 -30 86 -74q32 -46 68 -100q14 -28 12 -62v-2q0 -36 -32 -36q-20 4 -38 16q-20 12 -40 28q-44 38 -82 80q-40 44 -62 42q-4 12 -4 22z" />
<glyph unicode="&#xc9;" horiz-adv-x="728" d="M62 598v40q0 234 42 466q48 252 136 464q26 20 52 20q12 0 22 -4q38 -10 64 -32q34 -14 130 -12t174 12q14 0 18 -10v-6q0 -6 -4 -12q-76 -34 -166 -40q-92 -4 -128 -14q-4 -8 -10 -42q-6 -32 -12 -80q-10 -92 -22 -228t-20 -274q-12 -172 -18 -310q-4 -138 4 -158 q16 -14 100 2q84 18 142 52q22 0 24 -22t-12 -38q-64 -42 -138 -50q-76 -10 -102 -16q-8 -10 -2 -54q8 -44 22 -92q10 -38 26 -66q14 -30 28 -32q26 -2 110 28t144 58q4 -6 6 -16t-6 -22q-64 -38 -150 -72q-84 -36 -114 -42q-24 -4 -50 -4q-46 0 -100 12q-88 20 -116 68 q-36 122 -54 256q-18 132 -20 270zM336 1656v2q0 34 12 62q38 54 70 100t84 74q2 2 4 2q36 0 66 -36q22 -24 22 -50q0 -12 -4 -24q-22 2 -62 -40q-38 -44 -82 -82q-20 -16 -40 -28q-18 -12 -38 -14q-32 0 -32 34z" />
<glyph unicode="&#xca;" horiz-adv-x="728" d="M62 598v40q0 234 42 466q48 252 136 464q26 20 52 20q12 0 22 -4q38 -10 64 -32q34 -14 130 -12t174 12q14 0 18 -10v-6q0 -6 -4 -12q-76 -34 -166 -40q-92 -4 -128 -14q-4 -8 -10 -42q-6 -32 -12 -80q-10 -92 -22 -228t-20 -274q-12 -172 -18 -310q-4 -138 4 -158 q16 -14 100 2q84 18 142 52q22 0 24 -22t-12 -38q-64 -42 -138 -50q-76 -10 -102 -16q-8 -10 -2 -54q8 -44 22 -92q10 -38 26 -66q14 -30 28 -32q26 -2 110 28t144 58q4 -6 6 -16t-6 -22q-64 -38 -150 -72q-84 -36 -114 -42q-24 -4 -50 -4q-46 0 -100 12q-88 20 -116 68 q-36 122 -54 256q-18 132 -20 270zM248 1688q0 8 4 14q16 4 44 32t58 62q38 44 70 82q34 38 44 36q8 0 30 -28q24 -30 52 -70q34 -48 66 -94q34 -48 48 -58v-2q0 -16 -32 -16q-34 2 -52 12q-38 52 -62 104q-24 50 -38 62q-12 -6 -28 -72q-18 -64 -66 -116h-12q-28 -2 -76 14 q-50 14 -50 38z" />
<glyph unicode="&#xcb;" horiz-adv-x="728" d="M62 598v40q0 234 42 466q48 252 136 464q26 20 52 20q12 0 22 -4q38 -10 64 -32q34 -14 130 -12t174 12q14 0 18 -10v-6q0 -6 -4 -12q-76 -34 -166 -40q-92 -4 -128 -14q-4 -8 -10 -42q-6 -32 -12 -80q-10 -92 -22 -228t-20 -274q-12 -172 -18 -310q-4 -138 4 -158 q16 -14 100 2q84 18 142 52q22 0 24 -22t-12 -38q-64 -42 -138 -50q-76 -10 -102 -16q-8 -10 -2 -54q8 -44 22 -92q10 -38 26 -66q14 -30 28 -32q26 -2 110 28t144 58q4 -6 6 -16t-6 -22q-64 -38 -150 -72q-84 -36 -114 -42q-24 -4 -50 -4q-46 0 -100 12q-88 20 -116 68 q-36 122 -54 256q-18 132 -20 270zM248 1742q6 40 36 74q28 28 54 28h8q36 -6 54 -48q10 -26 12 -50q0 -14 -4 -28q-10 -36 -44 -52q-28 -14 -52 -14q-6 0 -12 2q-34 4 -36 38t-16 50zM486 1742v6q2 30 34 40q32 8 40 34q38 2 66 -32q26 -32 26 -56v-8q-4 -24 -32 -54 q-26 -26 -58 -26h-8q-34 4 -52 38q-16 30 -16 58z" />
<glyph unicode="&#xcc;" horiz-adv-x="608" d="M26 1540q0 10 10 20q44 2 86 2q78 0 146 -2q106 -2 166 -2q24 0 18 -14t-16 -24q-58 -2 -94 2q-38 4 -48 0q22 -144 44 -276t42 -260q34 -236 50 -462t-8 -470q20 0 58 -6q40 -6 88 -12q12 -4 12 -14q0 -2 -2 -4q-4 -12 -18 -18q-188 12 -286 22q-100 10 -204 -2 q-8 8 -8 20q0 10 8 18q32 0 64 4t66 0q-8 150 -10 304v308q4 280 8 512q6 232 -4 336q-28 -2 -70 0t-88 2q-12 6 -10 16zM104 1796q-2 26 22 52q30 34 66 34h4q52 -30 84 -76q32 -44 70 -98q12 -30 12 -64v-2q0 -34 -32 -34q-20 4 -40 16q-18 10 -38 28q-44 36 -84 80 q-38 44 -60 40q-4 12 -4 24z" />
<glyph unicode="&#xcd;" horiz-adv-x="608" d="M26 1540q0 10 10 20q44 2 86 2q78 0 146 -2q106 -2 166 -2q24 0 18 -14t-16 -24q-58 -2 -94 2q-38 4 -48 0q22 -144 44 -276t42 -260q34 -236 50 -462t-8 -470q20 0 58 -6q40 -6 88 -12q12 -4 12 -14q0 -2 -2 -4q-4 -12 -18 -18q-188 12 -286 22q-100 10 -204 -2 q-8 8 -8 20q0 10 8 18q32 0 64 4t66 0q-8 150 -10 304v308q4 280 8 512q6 232 -4 336q-28 -2 -70 0t-88 2q-12 6 -10 16zM132 1658v2q0 34 14 62q36 56 68 100q32 46 86 76h4q36 0 66 -34q22 -26 22 -52q0 -12 -4 -24q-24 4 -62 -40t-82 -82q-20 -16 -40 -28 q-20 -10 -38 -14q-32 0 -34 34z" />
<glyph unicode="&#xce;" horiz-adv-x="608" d="M26 1540q0 10 10 20q44 2 86 2q78 0 146 -2q106 -2 166 -2q24 0 18 -14t-16 -24q-58 -2 -94 2q-38 4 -48 0q22 -144 44 -276t42 -260q34 -236 50 -462t-8 -470q20 0 58 -6q40 -6 88 -12q12 -4 12 -14q0 -2 -2 -4q-4 -12 -18 -18q-188 12 -286 22q-100 10 -204 -2 q-8 8 -8 20q0 10 8 18q32 0 64 4t66 0q-8 150 -10 304v308q4 280 8 512q6 232 -4 336q-28 -2 -70 0t-88 2q-12 6 -10 16zM26 1690q0 6 4 14q16 2 44 32q30 28 60 62q36 44 70 80q32 38 42 38q8 0 32 -30q22 -30 50 -68l68 -96q32 -46 46 -56v-2q0 -18 -32 -16q-34 0 -50 10 q-40 54 -64 104q-24 52 -36 64q-12 -6 -30 -72q-16 -66 -66 -116q-4 -2 -12 -2q-26 0 -76 14q-48 16 -50 40z" />
<glyph unicode="&#xcf;" horiz-adv-x="608" d="M26 1540q0 10 10 20q44 2 86 2q78 0 146 -2q106 -2 166 -2q24 0 18 -14t-16 -24q-58 -2 -94 2q-38 4 -48 0q22 -144 44 -276t42 -260q34 -236 50 -462t-8 -470q20 0 58 -6q40 -6 88 -12q12 -4 12 -14q0 -2 -2 -4q-4 -12 -18 -18q-188 12 -286 22q-100 10 -204 -2 q-8 8 -8 20q0 10 8 18q32 0 64 4t66 0q-8 150 -10 304v308q4 280 8 512q6 232 -4 336q-28 -2 -70 0t-88 2q-12 6 -10 16zM72 1726v6q4 26 34 54q26 26 56 26h8q36 -4 52 -38q18 -34 16 -62q-2 -32 -34 -42q-32 -8 -38 -34q-38 0 -68 34q-26 30 -26 56zM314 1712q0 14 4 28 q10 36 44 52q26 14 50 14h14q32 -6 34 -40t16 -50q-6 -40 -36 -72q-26 -30 -52 -30q-6 0 -10 2q-36 4 -54 46q-10 26 -10 50z" />
<glyph unicode="&#xd1;" horiz-adv-x="930" d="M40 378v6q0 172 12 362q6 100 14 200q8 98 16 188q12 168 20 284q6 118 -6 132q26 46 70 46q10 0 18 -2q58 -10 80 -64q22 -212 24 -400q2 -186 -8 -286q6 12 18 46t32 84q38 92 106 218q70 128 182 252q22 22 46 30q26 6 50 2q48 -10 86 -52t44 -92q10 -72 12 -154 q2 -80 -2 -166q-6 -158 -22 -320q-16 -160 -20 -292q-4 -108 8 -186q12 -80 50 -110q4 -12 4 -22t-4 -20q-4 -18 -16 -30q-28 -34 -86 -34h-18q-72 6 -102 52q-56 84 -64 246q-6 162 10 344q16 180 40 350q26 170 38 278q6 58 6 92q-2 34 -12 34q-48 8 -126 -114 q-76 -120 -142 -266q-46 -98 -76 -186q-32 -90 -40 -140q-2 -40 0 -96q0 -58 4 -122q4 -120 6 -236q4 -118 -12 -162q-24 -48 -108 -40t-106 80q-26 98 -26 266zM324 1688q0 28 8 66q14 62 70 80q22 6 56 -4q36 -10 76 -28q60 -24 114 -50t68 -16q22 16 -2 40q-26 24 -40 32 q-8 20 22 44q28 20 54 20q4 0 6 -2q30 -10 54 -38q22 -28 34 -62q16 -42 16 -84q0 -12 -2 -24q-4 -54 -40 -74q-32 -16 -64 -16h-8q-38 2 -74 18q-56 24 -106 64q-52 40 -88 68q-20 16 -34 24q-16 8 -24 6q-22 -8 -34 -42q-10 -32 16 -42q-2 -34 -30 -36q-28 -4 -44 22 q-4 14 -4 34z" />
<glyph unicode="&#xd2;" horiz-adv-x="962" d="M56 644q0 114 8 212q6 102 22 200q16 96 44 180q52 156 158 250q90 76 232 76q32 0 64 -2q44 -6 86 -42q44 -36 80 -94q70 -110 114 -280q46 -170 48 -346v-14q0 -88 -12 -180q-12 -100 -36 -192q-46 -172 -136 -292q-90 -122 -224 -124h-10q-114 0 -190 42 q-82 44 -132 116q-34 48 -54 106q-22 56 -36 120q-24 116 -24 242q-2 12 -2 22zM300 752q0 -44 2 -94q4 -86 14 -176q20 -164 66 -298q48 -134 132 -140h16q106 -2 166 118q62 128 90 296q14 90 20 180t6 166q2 2 2 6q-2 68 -10 146q-8 82 -26 166q-30 152 -80 272 q-52 120 -110 126h-8q-66 0 -126 -106q-62 -114 -102 -268q-22 -84 -34 -170q-14 -86 -16 -164q-2 -28 -2 -60zM378 1810q0 26 22 50q30 36 66 36q2 0 4 -2q52 -28 86 -74q32 -46 68 -100q12 -28 12 -62v-2q0 -34 -32 -34q-20 2 -38 14q-20 12 -40 28q-44 38 -82 82 q-40 42 -62 40q-4 12 -4 24z" />
<glyph unicode="&#xd3;" horiz-adv-x="962" d="M56 644q0 114 8 212q6 102 22 200q16 96 44 180q52 156 158 250q90 76 232 76q32 0 64 -2q44 -6 86 -42q44 -36 80 -94q70 -110 114 -280q46 -170 48 -346v-14q0 -170 -40 -346q-42 -182 -130 -302q-46 -64 -106 -102t-132 -38h-10q-114 0 -190 42q-82 44 -132 116 q-34 48 -54 106q-22 56 -36 120q-24 116 -24 242q-2 12 -2 22zM300 752q0 -44 2 -94q4 -86 14 -176q20 -164 66 -298q48 -134 132 -140h14q54 -2 96 32q48 38 80 104q62 122 86 302q22 180 22 322q2 2 2 6q-2 68 -10 146q-8 82 -26 166q-30 152 -80 272q-52 120 -110 126h-8 q-66 0 -126 -106q-62 -114 -102 -268q-22 -84 -34 -170q-14 -88 -16 -164q-2 -28 -2 -60zM422 1644v2q0 34 12 62q38 54 70 98q32 46 84 76h4q36 0 66 -34q22 -26 22 -52q0 -12 -4 -22q-22 2 -62 -42q-38 -44 -82 -80q-20 -16 -40 -28q-18 -12 -38 -16q-32 0 -32 36z" />
<glyph unicode="&#xd4;" horiz-adv-x="962" d="M56 644q0 114 8 212q6 102 22 200q16 96 44 180q52 156 158 250q90 76 232 76q32 0 64 -2q44 -6 86 -42q44 -36 80 -94q70 -110 114 -280q46 -170 48 -346v-14q0 -88 -12 -180q-12 -100 -36 -192q-46 -172 -136 -292q-90 -122 -224 -124h-10q-114 0 -190 42 q-82 44 -132 116q-34 48 -54 106q-22 56 -36 120q-24 116 -24 242q-2 12 -2 22zM300 752q0 -44 2 -94q4 -86 14 -176q20 -164 66 -298q48 -134 132 -140h16q106 -2 166 118q62 128 90 296q14 90 20 180t6 166q2 2 2 6q-2 68 -10 146q-8 82 -26 166q-30 152 -80 272 q-52 120 -110 126h-8q-66 0 -126 -106q-62 -114 -102 -268q-22 -84 -34 -170q-14 -86 -16 -164q-2 -28 -2 -60zM310 1652q0 6 4 14q20 4 56 44q38 40 74 82q30 34 54 60t32 26t32 -28q22 -30 50 -70q34 -48 68 -94q32 -48 46 -58v-2q0 -16 -32 -16q-34 2 -50 12 q-40 52 -64 104q-24 50 -36 62q-12 -6 -30 -72q-16 -66 -66 -116q-4 -2 -12 -2q-26 0 -76 16q-48 14 -50 38z" />
<glyph unicode="&#xd5;" horiz-adv-x="962" d="M56 644q0 114 8 212q6 102 22 200q16 96 44 180q52 156 158 250q90 76 232 76q32 0 64 -2q44 -6 86 -42q44 -36 80 -94q70 -110 114 -280q46 -170 48 -346v-14q0 -88 -12 -180q-12 -100 -36 -192q-46 -172 -136 -292q-90 -122 -224 -124h-10q-114 0 -190 42 q-82 44 -132 116q-34 48 -54 106q-22 56 -36 120q-24 116 -24 242q-2 12 -2 22zM214 1718q0 30 8 68q14 62 70 78q20 8 56 -4q36 -10 76 -26q60 -26 114 -52q54 -24 68 -14q22 14 -2 38q-26 24 -40 32q-10 22 22 44q28 20 54 20h6q30 -10 54 -38q22 -28 34 -64 q16 -42 16 -84q0 -12 -2 -22q-4 -54 -42 -74q-30 -18 -62 -18h-10q-36 4 -72 18q-56 24 -108 64q-50 42 -86 70q-20 14 -34 24q-16 8 -24 4q-22 -8 -34 -40q-10 -34 16 -44q-2 -32 -30 -36t-44 22q-4 16 -4 34zM300 752q0 -44 2 -94q4 -86 14 -176q20 -164 66 -298 q48 -134 132 -140h16q106 -2 166 118q62 128 90 296q14 90 20 180t6 166q2 2 2 6q-2 68 -10 146q-8 82 -26 166q-30 152 -80 272q-52 120 -110 126h-8q-66 0 -126 -106q-62 -114 -102 -268q-22 -84 -34 -170q-14 -86 -16 -164q-2 -28 -2 -60z" />
<glyph unicode="&#xd6;" horiz-adv-x="962" d="M56 644q0 114 8 212q6 102 22 200q16 96 44 180q52 156 158 250q90 76 232 76q32 0 64 -2q44 -6 86 -42q44 -36 80 -94q70 -110 114 -280q46 -170 48 -346v-14q0 -88 -12 -180q-12 -100 -36 -192q-46 -172 -136 -292q-90 -122 -224 -124h-10q-114 0 -190 42 q-82 44 -132 116q-34 48 -54 106q-22 56 -36 120q-24 116 -24 242q-2 12 -2 22zM300 752q0 -44 2 -94q4 -86 14 -176q20 -164 66 -298q48 -134 132 -140h16q106 -2 166 118q62 128 90 296q14 90 20 180t6 166q2 2 2 6q-2 68 -10 146q-8 82 -26 166q-30 152 -80 272 q-52 120 -110 126h-8q-66 0 -126 -106q-62 -114 -102 -268q-22 -84 -34 -170q-14 -86 -16 -164q-2 -28 -2 -60zM334 1730v6q-2 26 24 56q30 34 68 34q8 -26 40 -36q32 -8 34 -40v-6q0 -26 -16 -56q-18 -34 -52 -38h-8q-32 0 -58 24q-28 30 -32 56zM574 1750q0 24 12 50 q18 40 54 46q4 2 8 2q26 -2 52 -30q32 -32 38 -72q-14 -18 -16 -50q-2 -34 -36 -40h-12q-24 0 -52 12q-34 18 -44 52q-4 14 -4 30z" />
<glyph unicode="&#xd7;" horiz-adv-x="816" d="M66 342q24 38 86 108t138 152q114 124 230 248q118 124 164 182q12 2 22 2q24 0 46 -12q18 -12 18 -28q0 -12 -10 -26q-4 -6 -22 -28q-18 -20 -46 -48q-52 -56 -132 -136l-156 -160q-98 -102 -170 -184q-72 -84 -64 -102q-30 -34 -54 -34q-10 0 -20 8q-30 22 -30 58z M118 930q0 20 22 32q26 12 50 12q14 0 28 -4q30 -28 76 -76t98 -108q98 -108 198 -228t146 -184q10 -18 10 -32q-2 -10 -4 -16q-4 -12 -16 -12q-10 0 -30 10q-14 18 -86 90q-72 74 -162 164q-110 110 -208 210q-100 100 -112 114q-10 16 -10 28z" />
<glyph unicode="&#xd8;" horiz-adv-x="962" d="M56 656q0 112 8 210q6 102 22 200q16 96 44 180q52 158 158 250q90 78 232 78q32 0 64 -4q44 -6 86 -40q24 -22 48 -50l8 28q34 110 20 136q18 30 66 38h12q56 6 66 -36q2 -16 -40 -122q-26 -66 -64 -156q46 -92 78 -214q46 -170 48 -346v-14q0 -88 -12 -180 q-12 -100 -36 -192q-46 -172 -136 -292q-90 -122 -224 -124h-10q-114 0 -190 42q-30 16 -56 36q-18 -48 -34 -88q-58 -152 -44 -158q8 -66 -48 -76q-4 -2 -8 -2q-44 -6 -48 20q2 2 2 6q-4 24 16 82q16 60 48 146q24 62 52 134l-12 18q-34 46 -54 104q-22 58 -36 120 q-24 118 -24 244q-2 10 -2 22zM300 762q0 -44 2 -94q4 -86 14 -174q0 -10 2 -20q80 194 160 386q42 100 82 196q38 98 72 184q36 94 62 170q-50 116 -106 120q-4 2 -8 2q-66 0 -126 -108q-62 -114 -102 -268q-22 -84 -34 -170q-14 -86 -16 -164q-2 -28 -2 -60zM346 320 q14 -66 36 -126q48 -134 132 -140h16q106 -2 166 118q62 128 90 296q14 90 20 180t6 166q2 4 2 8q-2 66 -10 144q-8 82 -26 166q-14 72 -34 138q-4 -8 -6 -16q-34 -86 -78 -186q-42 -100 -86 -204q-52 -126 -108 -254q-54 -128 -102 -246q-10 -22 -18 -44z" />
<glyph unicode="&#xd9;" horiz-adv-x="1030" d="M52 1538q16 46 60 56q16 2 32 2q28 0 56 -10q30 -10 54 -30q26 -22 38 -48q24 -114 32 -294q8 -178 8 -368q2 -184 2 -356q0 -170 12 -276q6 -56 16 -90q10 -32 26 -34q50 -2 122 96q74 98 130 216q38 78 64 150q24 70 24 112q2 24 4 74q2 52 6 116q6 124 18 276 q12 154 40 280q12 46 74 46q62 2 94 -56q-40 -364 -64 -624t-14 -448q4 -100 22 -184q18 -82 50 -152q-16 -24 -46 -24q-18 0 -44 10q-64 28 -58 58q-8 28 -16 66q-10 40 -18 84q-16 82 -28 170q-14 90 -14 150q-10 -30 -52 -132q-44 -104 -108 -196q-42 -62 -90 -104 t-100 -38q-46 2 -86 28q-38 26 -70 70q-56 82 -90 216q-32 134 -50 286q-10 102 -16 206t-8 202q-6 180 -4 318q0 138 -8 176zM418 1788q0 26 22 50q32 36 68 36q2 0 4 -2q52 -28 84 -74t68 -100q14 -28 14 -62v-2q0 -34 -34 -34q-18 2 -38 14t-38 28q-46 38 -84 82 q-38 42 -60 40q-6 12 -6 24z" />
<glyph unicode="&#xda;" horiz-adv-x="1030" d="M52 1538q16 46 60 56q16 2 32 2q28 0 56 -10q30 -10 54 -30q26 -22 38 -48q24 -114 32 -294q8 -178 8 -368q2 -184 2 -356q0 -170 12 -276q6 -56 16 -90q10 -32 26 -34q50 -2 122 96q74 98 130 216q38 78 64 150q24 70 24 112q2 24 4 74q2 52 6 116q6 124 18 276 q12 154 40 280q12 46 74 46q62 2 94 -56q-40 -364 -64 -624t-14 -448q4 -100 22 -184q18 -82 50 -152q-16 -24 -46 -24q-18 0 -44 10q-64 28 -58 58q-8 28 -16 66q-10 40 -18 84q-16 82 -28 170q-14 90 -14 150q-10 -30 -52 -132q-44 -104 -108 -196q-42 -62 -90 -104 t-100 -38q-46 2 -86 28q-38 26 -70 70q-56 82 -90 216q-32 134 -50 286q-10 102 -16 206t-8 202q-6 180 -4 318q0 138 -8 176zM476 1646v2q0 34 12 64q38 54 70 98q32 46 84 76h4q36 0 66 -34q22 -26 22 -52q0 -12 -4 -24q-22 4 -60 -40q-40 -44 -84 -80q-20 -18 -38 -30 q-20 -10 -40 -14q-32 0 -32 34z" />
<glyph unicode="&#xdb;" horiz-adv-x="1030" d="M52 1538q16 46 60 56q16 2 32 2q28 0 56 -10q30 -10 54 -30q26 -22 38 -48q24 -114 32 -294q8 -178 8 -368q2 -184 2 -356q0 -170 12 -276q6 -56 16 -90q10 -32 26 -34q50 -2 122 96q74 98 130 216q38 78 64 150q24 70 24 112q2 24 4 74q2 52 6 116q6 124 18 276 q12 154 40 280q12 46 74 46q62 2 94 -56q-40 -364 -64 -624t-14 -448q4 -100 22 -184q18 -82 50 -152q-16 -24 -46 -24q-18 0 -44 10q-64 28 -58 58q-8 28 -16 66q-10 40 -18 84q-16 82 -28 170q-14 90 -14 150q-10 -30 -52 -132q-44 -104 -108 -196q-42 -62 -90 -104 t-100 -38q-46 2 -86 28q-38 26 -70 70q-56 82 -90 216q-32 134 -50 286q-10 102 -16 206t-8 202q-6 180 -4 318q0 138 -8 176zM334 1670q0 6 4 14q20 4 56 42q36 40 74 82q28 36 52 62t34 26q8 0 30 -30q24 -30 50 -68q36 -48 68 -96q34 -46 48 -56v-2q0 -18 -32 -16 q-34 0 -52 10q-38 54 -62 104q-24 52 -38 64q-12 -6 -28 -72q-18 -66 -66 -116q-6 -2 -12 -2q-28 0 -76 14q-50 16 -50 40z" />
<glyph unicode="&#xdc;" horiz-adv-x="1030" d="M52 1538q16 46 60 56q16 2 32 2q28 0 56 -10q30 -10 54 -30q26 -22 38 -48q24 -114 32 -294q8 -178 8 -368q2 -184 2 -356q0 -170 12 -276q6 -56 16 -90q10 -32 26 -34q50 -2 122 96q74 98 130 216q38 78 64 150q24 70 24 112q2 24 4 74q2 52 6 116q6 124 18 276 q12 154 40 280q12 46 74 46q62 2 94 -56q-40 -364 -64 -624t-14 -448q4 -100 22 -184q18 -82 50 -152q-16 -24 -46 -24q-18 0 -44 10q-64 28 -58 58q-8 28 -16 66q-10 40 -18 84q-16 82 -28 170q-14 90 -14 150q-10 -30 -52 -132q-44 -104 -108 -196q-42 -62 -90 -104 t-100 -38q-46 2 -86 28q-38 26 -70 70q-56 82 -90 216q-32 134 -50 286q-10 102 -16 206t-8 202q-6 180 -4 318q0 138 -8 176zM330 1722q14 18 16 50q2 34 34 40h14q24 0 52 -12q34 -18 42 -52q12 -38 -6 -80q-18 -40 -54 -46h-6l-2 -2q-28 2 -54 30q-30 32 -36 72z M568 1718v6q0 26 16 56q18 34 52 38h8q32 0 56 -24q30 -30 34 -56v-6q0 -26 -26 -56q-28 -34 -66 -34q-8 26 -40 36q-32 8 -34 40z" />
<glyph unicode="&#xdd;" horiz-adv-x="838" d="M38 1468v28q0 24 2 40q26 58 90 78q18 6 34 6q32 0 40 -28q8 -82 22 -194q14 -114 32 -228q28 -174 64 -310q38 -136 78 -138q56 -2 106 78q48 78 54 142q6 32 22 112q18 80 40 172q12 50 24 98q14 50 26 92q20 60 78 68q58 6 66 -48q-32 -84 -52 -242q-20 -160 -38 -346 q-8 -98 -18 -196q-10 -100 -22 -194q-20 -176 -50 -316t-78 -200q-10 -12 -38 -12q-32 0 -88 16q-100 32 -88 90q48 -8 84 84t64 218q20 100 34 202q14 104 22 180q4 40 8 70q2 28 2 40q-12 -32 -46 -94t-120 -62q-74 2 -132 76q-60 74 -104 182q-42 106 -70 226t-40 218 q-6 52 -8 92zM362 1646v2q0 34 14 64q36 54 68 98q32 46 86 76h4q34 0 66 -34q22 -26 22 -52q0 -12 -4 -24q-24 4 -62 -40t-82 -80q-20 -18 -40 -30q-20 -10 -38 -14q-32 0 -34 34z" />
<glyph unicode="&#xdf;" horiz-adv-x="5518" d="M50 286q0 20 20 32t48 6q40 -56 104 -106q64 -48 144 -90q150 -76 342 -114q190 -38 380 -20q154 16 328 92t360 182q120 68 244 146q124 76 248 150q232 140 456 252t426 144q132 20 270 16q136 -4 266 -32q162 -38 298 -118q36 46 80 86q68 64 146 116q148 96 322 142 q134 38 264 38q38 0 76 -4q136 -10 256 -68t204 -168q74 -98 74 -218v-8q-2 -124 -74 -216q-38 -50 -96 -84t-132 -42q-40 -4 -72 4q-34 8 -62 24q-72 46 -102 134q-30 90 -6 170q14 42 44 76t78 52q24 -16 38 -52q12 -34 4 -56q-26 -12 -44 -32q-16 -18 -26 -40 q-26 -68 16 -144q40 -74 118 -68q98 8 154 80t60 162q2 50 -14 100t-48 94q-86 112 -228 148t-304 14q-86 -12 -174 -40q-86 -28 -170 -68q-126 -62 -232 -148q-28 -22 -52 -46l28 -22q184 -144 226 -388q14 -80 2 -144q-10 -64 -38 -110q-54 -90 -152 -108q-98 -20 -182 40 q-46 34 -80 90q-36 56 -52 138q-28 144 4 274q24 104 78 196q-134 86 -292 128q-114 28 -232 34q-120 6 -230 -16q-176 -34 -350 -124t-350 -206q-112 -76 -226 -156q-114 -82 -230 -158q-214 -144 -436 -254q-220 -110 -452 -130q-52 -4 -104 -4q-64 0 -128 6 q-114 14 -224 44q-202 56 -366 162q-166 106 -246 230zM3898 298q32 -158 124 -204q92 -44 144 30q22 32 32 86q8 56 -4 132q-34 196 -196 328q-18 -26 -34 -52q-44 -74 -64 -156q-18 -80 -2 -164z" />
<glyph unicode="&#xe0;" horiz-adv-x="1056" d="M28 252v22q0 140 44 268q48 136 118 234q38 52 78 90t78 58q18 10 44 16q28 6 58 8h24q46 0 92 -12q60 -14 86 -50q6 -8 4 -18q-2 -8 -12 -12q-36 36 -72 38t-72 -20q-62 -40 -116 -146q-52 -104 -86 -222q-42 -150 -44 -276q0 -124 58 -124q26 0 64 84q38 86 76 196 q48 136 84 264t40 144q12 28 78 40q68 10 96 -16q8 -6 10 -16q4 -8 2 -20q-14 4 -38 -104q-24 -106 -46 -246q-10 -60 -20 -122q-8 -60 -16 -116q-12 -104 -16 -176t8 -74q30 -4 88 90q60 96 118 210q48 94 88 178q38 82 54 112q14 4 30 2t32 -12q-14 -26 -54 -116 q-38 -90 -92 -192q-66 -126 -138 -232q-70 -100 -122 -100h-6q-48 6 -76 34t-42 72q-12 36 -16 80t-2 90q4 86 18 170l20 130q-6 -22 -18 -64q-14 -48 -36 -106q-34 -86 -74 -164q-42 -78 -80 -82q-106 -8 -200 42q-94 52 -96 166zM386 1184q0 26 22 52q32 34 68 34h2 q54 -30 86 -76q32 -44 68 -98q14 -30 14 -66q0 -30 -28 -34h-6q-18 4 -38 16q-20 10 -38 28q-46 36 -84 80t-60 40q-6 12 -6 24z" />
<glyph unicode="&#xe1;" horiz-adv-x="1056" d="M28 252v22q0 140 44 268q48 136 118 234q38 52 78 90t78 58q18 10 44 16q28 6 58 8h24q46 0 92 -12q60 -14 86 -50q6 -8 4 -18q-2 -8 -12 -12q-36 36 -72 38t-72 -20q-62 -40 -116 -146q-52 -104 -86 -222q-42 -150 -44 -276q0 -124 58 -124q26 0 64 84q38 86 76 196 q48 136 84 264t40 144q12 28 78 40q68 10 96 -16q8 -6 10 -16q4 -8 2 -20q-14 4 -38 -104q-24 -106 -46 -246q-10 -60 -20 -122q-8 -60 -16 -116q-12 -104 -16 -176t8 -74q30 -4 88 90q60 96 118 210q48 94 88 178q38 82 54 112q14 4 30 2t32 -12q-14 -26 -54 -116 q-38 -90 -92 -192q-66 -126 -138 -232q-70 -100 -122 -100h-6q-48 6 -76 34t-42 72q-12 36 -16 80t-2 90q4 86 18 170l20 130q-6 -22 -18 -64q-14 -48 -36 -106q-34 -86 -74 -164q-42 -78 -80 -82q-106 -8 -200 42q-94 52 -96 166zM414 1020v2q0 34 12 62q38 54 70 100 t84 76h4q36 0 66 -36q32 -36 18 -74q-22 4 -60 -40q-40 -44 -84 -82q-20 -16 -38 -28q-16 -8 -30 -12q-4 -2 -10 -2q-32 0 -32 34z" />
<glyph unicode="&#xe2;" horiz-adv-x="1056" d="M28 252v22q0 140 44 268q48 136 118 234q38 52 78 90t78 58q18 10 44 16q28 6 58 8h24q46 0 92 -12q60 -14 86 -50q6 -8 4 -18q-2 -8 -12 -12q-36 36 -72 38t-72 -20q-62 -40 -116 -146q-52 -104 -86 -222q-42 -150 -44 -276q0 -124 58 -124q26 0 64 84q38 86 76 196 q48 136 84 264t40 144q12 28 78 40q68 10 96 -16q8 -6 10 -16q4 -8 2 -20q-14 4 -38 -104q-24 -106 -46 -246q-10 -60 -20 -122q-8 -60 -16 -116q-12 -104 -16 -176t8 -74q30 -4 88 90q60 96 118 210q48 94 88 178q38 82 54 112q14 4 30 2t32 -12q-14 -26 -54 -116 q-38 -90 -92 -192q-66 -126 -138 -232q-70 -100 -122 -100h-6q-48 6 -76 34t-42 72q-12 36 -16 80t-2 90q4 86 18 170l20 130q-6 -22 -18 -64q-14 -48 -36 -106q-34 -86 -74 -164q-42 -78 -80 -82q-106 -8 -200 42q-94 52 -96 166zM284 1042q-2 6 2 14q20 4 58 44 q36 38 72 82q30 34 54 60t34 26q6 0 30 -30q22 -28 50 -68l68 -96q34 -46 48 -56q0 -16 -24 -18h-10q-34 2 -50 10q-38 54 -64 104q-24 52 -36 64q-12 -6 -30 -72q-16 -66 -64 -116q-6 -2 -14 -2q-26 0 -76 14q-48 16 -48 40z" />
<glyph unicode="&#xe3;" horiz-adv-x="1056" d="M28 252v22q0 140 44 268q48 136 118 234q38 52 78 90t78 58q18 10 44 16q28 6 58 8h24q46 0 92 -12q60 -14 86 -50q6 -8 4 -18q-2 -8 -12 -12q-36 36 -72 38t-72 -20q-62 -40 -116 -146q-52 -104 -86 -222q-42 -150 -44 -276q0 -124 58 -124q26 0 64 84q38 86 76 196 q48 136 84 264t40 144q12 28 78 40q68 10 96 -16q8 -6 10 -16q4 -8 2 -20q-14 4 -38 -104q-24 -106 -46 -246q-10 -60 -20 -122q-8 -60 -16 -116q-12 -104 -16 -176t8 -74q30 -4 88 90q60 96 118 210q48 94 88 178q38 82 54 112q14 4 30 2t32 -12q-14 -26 -54 -116 q-38 -90 -92 -192q-66 -126 -138 -232q-70 -100 -122 -100h-6q-48 6 -76 34t-42 72q-12 36 -16 80t-2 90q4 86 18 170l20 130q-6 -22 -18 -64q-14 -48 -36 -106q-34 -86 -74 -164q-42 -78 -80 -82q-106 -8 -200 42q-94 52 -96 166zM242 1106q0 28 8 66q12 62 68 80 q22 6 58 -4t76 -28q58 -24 114 -50q54 -26 68 -16q22 16 -4 40q-24 24 -38 32q-10 20 22 44q26 20 52 18h8q30 -10 52 -38t36 -62q14 -42 14 -86v-22q-6 -54 -42 -74q-32 -16 -64 -16h-8q-38 2 -74 18q-30 12 -58 30q-30 20 -56 40q-48 36 -84 66q-38 32 -52 26 q-24 -8 -34 -42q-12 -34 14 -42q0 -34 -30 -36q-28 -4 -42 20q-4 16 -4 36z" />
<glyph unicode="&#xe4;" horiz-adv-x="1056" d="M28 252v22q0 140 44 268q48 136 118 234q38 52 78 90t78 58q18 10 44 16q28 6 58 8h24q46 0 92 -12q60 -14 86 -50q6 -8 4 -18q-2 -8 -12 -12q-36 36 -72 38t-72 -20q-62 -40 -116 -146q-52 -104 -86 -222q-42 -150 -44 -276q0 -124 58 -124q26 0 64 84q38 86 76 196 q48 136 84 264t40 144q12 28 78 40q68 10 96 -16q8 -6 10 -16q4 -8 2 -20q-14 4 -38 -104q-24 -106 -46 -246q-10 -60 -20 -122q-8 -60 -16 -116q-12 -104 -16 -176t8 -74q30 -4 88 90q60 96 118 210q48 94 88 178q38 82 54 112q14 4 30 2t32 -12q-14 -26 -54 -116 q-38 -90 -92 -192q-66 -126 -138 -232q-70 -100 -122 -100h-6q-48 6 -76 34t-42 72q-12 36 -16 80t-2 90q4 86 18 170l20 130q-6 -22 -18 -64q-14 -48 -36 -106q-34 -86 -74 -164q-42 -78 -80 -82q-106 -8 -200 42q-94 52 -96 166zM314 1094q6 40 38 74q26 28 52 28h8 q36 -6 54 -48t8 -78t-44 -52q-10 -6 -20 -8q-16 -6 -30 -6q-8 0 -14 2q-34 4 -36 38t-16 50zM562 1106v6q2 32 34 40q32 10 38 36q38 0 68 -34t26 -64q-4 -24 -34 -54q-22 -22 -48 -24h-16q-36 4 -52 38q-16 30 -16 56z" />
<glyph unicode="&#xe5;" horiz-adv-x="1056" d="M28 252v22q0 140 44 268q48 136 118 234q38 52 78 90t78 58q18 10 44 16q28 6 58 8h24q46 0 92 -12q60 -14 86 -50q6 -8 4 -18q-2 -8 -12 -12q-36 36 -72 38t-72 -20q-62 -40 -116 -146q-52 -104 -86 -222q-42 -150 -44 -276q0 -124 58 -124q26 0 64 84q38 86 76 196 q48 136 84 264t40 144q12 28 78 40q68 10 96 -16q8 -6 10 -16q4 -8 2 -20q-14 4 -38 -104q-24 -106 -46 -246q-10 -60 -20 -122q-8 -60 -16 -116q-12 -104 -16 -176t8 -74q30 -4 88 90q60 96 118 210q48 94 88 178q38 82 54 112q14 4 30 2t32 -12q-14 -26 -54 -116 q-38 -90 -92 -192q-66 -126 -138 -232q-70 -100 -122 -100h-6q-48 6 -76 34t-42 72q-12 36 -16 80t-2 90q4 86 18 170l20 130q-6 -22 -18 -64q-14 -48 -36 -106q-34 -86 -74 -164q-42 -78 -80 -82q-106 -8 -200 42q-94 52 -96 166zM356 1146q0 38 22 70q14 20 40 34t62 18 q14 2 26 -22v10q0 26 16 24h12q84 0 110 -78q28 -82 -26 -144q-16 -22 -44 -36q-20 -10 -46 -16q-8 -2 -18 -2q-8 -2 -18 -2q-22 0 -42 8q-26 8 -46 26q-38 34 -46 86q-2 12 -2 24zM476 1128q18 -64 66 -54q38 6 50 60q14 52 -14 80q-8 10 -22 14q-14 6 -32 4q-6 -2 -12 2 q12 -32 -8 -46q-48 4 -28 -60z" />
<glyph unicode="&#xe6;" horiz-adv-x="1366" d="M24 240v22q0 140 46 268q48 136 116 234q38 52 78 90t78 58q18 10 46 16q26 6 58 8h22q46 0 94 -12q58 -14 84 -50q8 -8 6 -18q-2 -8 -14 -12q-68 66 -132 24q-66 -42 -118 -136q-30 -52 -54 -114t-42 -124q-42 -150 -42 -276q-2 -124 56 -124q26 0 66 84q38 86 76 196 q46 136 82 264t42 144q10 28 78 40q30 4 52 2l16 16q48 50 98 72q44 18 84 18h8q80 -4 128 -74q46 -70 20 -170q-40 -156 -164 -214q-58 -26 -128 -38v-2q-20 -52 -32 -104q-22 -94 -14 -170q6 -76 60 -106q56 -32 156 20q98 52 194 132q50 44 96 88q44 44 76 82q18 8 32 4 q14 -6 24 -26q-36 -42 -82 -90q-48 -50 -104 -98q-102 -88 -218 -142q-62 -28 -120 -28q-48 0 -92 20q-68 30 -114 78q-2 -38 -4 -68q-26 -34 -70 -36q-4 -2 -8 -2q-36 0 -46 30q-20 104 2 236q20 128 30 200q-6 -22 -20 -68q-14 -48 -36 -106q-32 -86 -74 -164t-80 -82 q-106 -8 -198 42q-94 52 -98 166zM784 484q58 16 102 48q98 64 124 154q26 88 -8 106q-30 18 -90 -62q-58 -78 -108 -196q-12 -24 -20 -50z" />
<glyph unicode="&#xe7;" horiz-adv-x="934" d="M20 458v24q4 196 86 354q30 56 68 90q40 34 82 48q36 14 72 14q60 0 116 -38q88 -58 90 -178q0 -22 -2 -42t-6 -40q-16 -16 -42 -4q-26 14 -28 34q8 42 4 92q-6 52 -38 56q-38 4 -76 -102t-58 -250q-16 -112 -14 -228t30 -194q14 -44 38 -72t58 -36q68 -16 156 80 q86 94 162 214q42 66 74 128q34 64 58 112q16 10 32 10q16 -2 30 -16q-24 -54 -58 -124q-36 -68 -80 -140q-80 -130 -184 -232q-78 -74 -160 -82v-28q0 -16 14 -22q32 -14 60 -40q30 -24 50 -56q38 -60 40 -130v-2q0 -70 -64 -122q-26 -20 -56 -26q-20 -6 -40 -6q-8 0 -18 2 q-68 8 -120 60q-48 48 -48 106v12q4 38 66 50q64 10 72 -46q-10 -50 16 -94q24 -44 70 -12q34 22 22 70q-10 48 -44 94q-16 26 -38 48q-20 20 -42 34q-20 14 -28 60q-4 34 -4 56q-74 18 -130 62q-70 56 -114 134q-74 136 -74 318z" />
<glyph unicode="&#xe8;" horiz-adv-x="916" d="M16 480v2q0 94 22 184q22 92 66 170q36 64 82 100q44 36 90 46q20 4 40 4q60 0 112 -44q68 -60 70 -170q2 -174 -110 -268q-52 -44 -120 -76v-6q-8 -138 18 -252t104 -132q68 -16 156 66t164 190q40 60 74 118q34 60 56 108q16 14 32 12t32 -18q-26 -54 -60 -120 q-36 -64 -80 -128q-80 -122 -184 -210q-86 -72 -178 -72q-18 0 -38 2q-180 32 -264 176q-84 146 -84 318zM172 1218q0 28 24 52q30 34 66 34h4q52 -30 84 -74q32 -46 68 -100q14 -28 14 -62v-2q0 -36 -34 -36q-18 4 -38 16t-38 28q-44 38 -84 80q-38 44 -60 42q-4 12 -6 22z M272 484q58 36 96 80q80 94 82 194t-38 110q-30 6 -60 -58q-30 -62 -52 -160q-12 -52 -20 -112q-6 -26 -8 -54z" />
<glyph unicode="&#xe9;" horiz-adv-x="916" d="M16 480v2q0 94 22 184q22 92 66 170q36 64 82 100q44 36 90 46q20 4 40 4q60 0 112 -44q68 -60 70 -170q2 -174 -110 -268q-52 -44 -120 -76v-6q-8 -138 18 -252t104 -132q68 -16 156 66t164 190q40 60 74 118q34 60 56 108q16 14 32 12t32 -18q-26 -54 -60 -120 q-36 -64 -80 -128q-80 -122 -184 -210q-86 -72 -178 -72q-18 0 -38 2q-180 32 -264 176q-84 146 -84 318zM244 1058v2q0 34 14 64q36 54 68 98q32 46 86 76h4q36 0 66 -34q22 -26 22 -52q0 -12 -4 -24q-24 4 -62 -40t-82 -80q-20 -18 -40 -28q-20 -12 -38 -16q-32 0 -34 34z M272 484q58 36 96 80q80 94 82 194t-38 110q-30 6 -60 -58q-30 -62 -52 -160q-12 -52 -20 -112q-6 -26 -8 -54z" />
<glyph unicode="&#xea;" horiz-adv-x="916" d="M16 480v2q0 94 22 184q22 92 66 170q36 64 82 100q44 36 90 46q20 4 40 4q60 0 112 -44q68 -60 70 -170q2 -174 -110 -268q-52 -44 -120 -76v-6q-8 -138 18 -252t104 -132q68 -16 156 66t164 190q40 60 74 118q34 60 56 108q16 14 32 12t32 -18q-26 -54 -60 -120 q-36 -64 -80 -128q-80 -122 -184 -210q-86 -72 -178 -72q-18 0 -38 2q-180 32 -264 176q-84 146 -84 318zM88 1062q0 6 4 14q16 4 44 32t58 62q38 44 70 82q32 36 44 36q8 0 30 -30q24 -28 50 -68q36 -48 68 -94q34 -48 48 -58v-2q0 -18 -32 -16q-34 2 -52 10 q-38 54 -62 104q-24 52 -38 64q-12 -6 -28 -72q-18 -66 -66 -116q-6 -2 -12 -2q-28 0 -76 16q-50 14 -50 38zM272 484q58 36 96 80q80 94 82 194t-38 110q-30 6 -60 -58q-30 -62 -52 -160q-12 -52 -20 -112q-6 -26 -8 -54z" />
<glyph unicode="&#xeb;" horiz-adv-x="916" d="M16 480v2q0 94 22 184q22 92 66 170q36 64 82 100q44 36 90 46q20 4 40 4q60 0 112 -44q68 -60 70 -170q2 -174 -110 -268q-52 -44 -120 -76v-6q-8 -138 18 -252t104 -132q68 -16 156 66t164 190q40 60 74 118q34 60 56 108q16 14 32 12t32 -18q-26 -54 -60 -120 q-36 -64 -80 -128q-80 -122 -184 -210q-86 -72 -178 -72q-18 0 -38 2q-180 32 -264 176q-84 146 -84 318zM122 1128v6q0 26 26 56q30 34 68 34q6 -26 38 -34q32 -10 34 -42q2 -28 -16 -62t-52 -38h-8q-32 0 -56 26q-30 28 -34 54zM272 484q58 36 96 80q80 94 82 194t-38 110 q-30 6 -60 -58q-30 -62 -52 -160q-12 -52 -20 -112q-6 -26 -8 -54zM364 1148q0 24 10 50q18 42 54 46q4 2 10 2q26 0 52 -30q30 -32 36 -72q-14 -16 -16 -50t-34 -40h-14q-24 0 -50 14q-34 16 -44 52q-4 14 -4 28z" />
<glyph unicode="&#xec;" horiz-adv-x="694" d="M22 200v22q0 72 8 146q16 160 46 298q28 138 10 164q14 40 68 60q28 10 50 10q24 0 40 -10q12 -8 20 -20q6 -12 6 -30q-2 -10 -20 -124t-32 -258q-14 -114 -20 -226q-8 -112 -2 -182q2 -40 10 -62t22 -24q32 -2 108 102t148 222q46 78 84 144t50 92q16 8 32 6 q14 -2 30 -16q-6 -14 -20 -42q-14 -26 -34 -64q-38 -66 -90 -154t-108 -164q-58 -80 -112 -134q-52 -50 -90 -50h-6q-72 6 -114 44q-42 40 -62 102q-20 66 -22 148zM50 1236q0 26 22 52q30 34 66 34h4q54 -30 86 -76q32 -44 68 -98q14 -30 14 -64v-2q-2 -34 -34 -34 q-18 4 -38 14q-20 12 -40 30q-44 36 -82 80t-62 40q-4 12 -4 24z" />
<glyph unicode="&#xed;" horiz-adv-x="694" d="M22 200v22q0 72 8 146q16 160 46 298q28 138 10 164q14 40 68 60q28 10 50 10q24 0 40 -10q12 -8 20 -20q6 -12 6 -30q-2 -10 -20 -124t-32 -258q-14 -114 -20 -226q-8 -112 -2 -182q2 -40 10 -62t22 -24q32 -2 108 102t148 222q46 78 84 144t50 92q16 8 32 6 q14 -2 30 -16q-6 -14 -20 -42q-14 -26 -34 -64q-38 -66 -90 -154t-108 -164q-58 -80 -112 -134q-52 -50 -90 -50h-6q-72 6 -114 44q-42 40 -62 102q-20 66 -22 148zM96 1040v2q0 34 14 62q36 54 68 100q32 44 86 74h4q36 0 66 -34q22 -26 22 -52q0 -10 -4 -22q-22 2 -62 -42 q-38 -42 -82 -80q-20 -16 -40 -28q-18 -12 -38 -16q-32 0 -34 36z" />
<glyph unicode="&#xee;" horiz-adv-x="694" d="M-4 1056q0 6 4 14q16 4 44 32t58 62q38 44 70 80q34 38 44 38q8 0 30 -30q24 -28 52 -68l68 -96q32 -46 46 -56v-2q0 -18 -32 -16q-34 2 -52 10q-38 54 -62 104q-24 52 -36 64q-14 -6 -30 -72q-18 -66 -66 -116q-4 -2 -12 -2q-26 0 -76 14q-50 16 -50 40zM22 200v22 q0 72 8 146q16 160 46 298q28 138 10 164q14 40 68 60q28 10 50 10q24 0 40 -10q12 -8 20 -20q6 -12 6 -30q-2 -10 -20 -124t-32 -258q-14 -114 -20 -226q-8 -112 -2 -182q2 -40 10 -62t22 -24q32 -2 108 102t148 222q46 78 84 144t50 92q16 8 32 6q14 -2 30 -16 q-6 -14 -20 -42q-14 -26 -34 -64q-38 -66 -90 -154t-108 -164q-58 -80 -112 -134q-52 -50 -90 -50h-6q-72 6 -114 44q-42 40 -62 102q-20 66 -22 148z" />
<glyph unicode="&#xef;" horiz-adv-x="694" d="M-20 1118v8q0 26 26 56q28 34 66 34q8 -26 40 -36q32 -8 34 -40v-6q0 -26 -16 -56q-18 -34 -52 -38q-4 -2 -8 -2q-32 0 -58 26q-28 30 -32 54zM22 200v22q0 72 8 146q16 160 46 298q28 138 10 164q14 40 68 60q28 10 50 10q24 0 40 -10q12 -8 20 -20q6 -12 6 -30 q-2 -10 -20 -124t-32 -258q-14 -114 -20 -226q-8 -112 -2 -182q2 -40 10 -62t22 -24q32 -2 108 102t148 222q46 78 84 144t50 92q16 8 32 6q14 -2 30 -16q-6 -14 -20 -42q-14 -26 -34 -64q-38 -66 -90 -154t-108 -164q-58 -80 -112 -134q-52 -50 -90 -50h-6q-72 6 -114 44 q-42 40 -62 102q-20 66 -22 148zM222 1138q0 26 10 50q18 42 54 48h8q26 0 54 -28q30 -34 36 -72q-14 -18 -16 -52t-36 -38h-12q-24 0 -52 12q-34 16 -44 52q-4 14 -2 28z" />
<glyph unicode="&#xf1;" horiz-adv-x="1054" d="M12 244q0 42 2 84q6 90 18 176q22 158 40 282q20 122 -18 150q20 32 52 44q24 8 48 8q10 0 18 -2q22 -2 36 -20t22 -46q16 -54 18 -134q2 -78 6 -156q12 46 52 124q40 76 98 132q28 30 62 48q32 18 66 16q66 -4 92 -88t26 -204q2 -64 -2 -136q-4 -70 -10 -140 q-14 -162 -28 -290q-14 -126 6 -132q40 -10 104 78q66 90 126 200q40 74 76 142q34 68 52 108q16 8 32 8q18 2 34 -14q-20 -42 -54 -116q-36 -76 -80 -158q-68 -122 -150 -222q-68 -84 -132 -84q-10 0 -22 2q-44 12 -74 46t-48 86q-26 82 -28 194t8 228q16 172 38 306 q20 136 0 138q-34 2 -80 -56q-48 -58 -88 -132q-22 -42 -40 -82q-18 -42 -30 -76q-2 -74 -4 -158q-4 -84 -10 -146q-4 -34 -8 -60q-4 -24 -8 -34q-52 -54 -112 -74t-104 70q-2 44 -2 90zM146 1146q0 30 8 68q12 62 68 78q22 8 58 -4q36 -10 76 -26q58 -26 114 -52 q54 -24 68 -14q22 14 -4 38q-24 24 -40 32q-8 22 22 44q28 20 54 20h8q30 -10 52 -38t36 -64q14 -42 14 -84v-22q-6 -54 -42 -74q-32 -18 -64 -18q-4 0 -8 2q-38 2 -74 16q-30 14 -58 32q-30 18 -56 38q-48 38 -84 68q-38 30 -52 24q-24 -8 -34 -40q-12 -34 14 -44 q0 -32 -30 -36q-28 -4 -42 22q-4 16 -4 34z" />
<glyph unicode="&#xf2;" horiz-adv-x="1014" d="M22 440v2q0 174 64 298t162 172q52 24 112 24q58 0 120 -30q22 -8 8 -18t-28 -6q-86 28 -142 -42q-56 -72 -84 -180q-16 -58 -22 -120q-8 -62 -6 -120q0 -42 6 -92q6 -48 18 -94q22 -88 64 -152q44 -64 112 -62q30 2 60 22t56 54q40 50 70 130q-58 18 -114 72 q-62 58 -106 132q-68 110 -82 226t64 162q132 76 220 -10q88 -84 108 -330q8 -106 -12 -204q12 0 24 4q36 6 68 24q62 32 108 90q48 58 66 100q18 6 34 4q16 0 32 -4q-14 -36 -38 -76q-24 -38 -56 -74q-58 -64 -136 -104q-56 -30 -118 -26q-30 -94 -84 -156q-34 -38 -78 -58 q-42 -22 -92 -22h-2q-186 0 -282 122q-94 122 -94 342zM224 1176q0 26 22 52q30 34 66 34h4q54 -30 86 -76q32 -44 68 -98q14 -30 14 -62v-2q-2 -36 -34 -36q-18 4 -38 16q-20 10 -40 28q-44 36 -82 80t-62 40q-4 12 -4 24zM390 590q26 -80 78 -162q34 -54 74 -94 q36 -38 68 -50q22 88 12 186q-16 136 -92 194t-136 24q-32 -16 -4 -98z" />
<glyph unicode="&#xf3;" horiz-adv-x="1014" d="M22 440v2q0 174 64 298t162 172q52 24 112 24q58 0 120 -30q22 -8 8 -18t-28 -6q-86 28 -142 -42q-56 -72 -84 -180q-16 -58 -22 -120q-8 -62 -6 -120q0 -42 6 -92q6 -48 18 -94q22 -88 64 -152q44 -64 112 -62q30 2 60 22t56 54q40 50 70 130q-58 18 -114 72 q-62 58 -106 132q-68 110 -82 226t64 162q132 76 220 -10q88 -84 108 -330q8 -106 -12 -204q12 0 24 4q36 6 68 24q62 32 108 90q48 58 66 100q18 6 34 4q16 0 32 -4q-14 -36 -38 -76q-24 -38 -56 -74q-58 -64 -136 -104q-56 -30 -118 -26q-30 -94 -84 -156q-34 -38 -78 -58 q-42 -22 -92 -22h-2q-186 0 -282 122q-94 122 -94 342zM282 1018v4q0 32 14 62q36 54 68 98q32 46 84 76h4q36 0 66 -34q24 -26 24 -52q-2 -12 -6 -24q-22 4 -60 -40q-40 -44 -84 -80q-20 -18 -38 -28q-20 -12 -40 -16q-32 0 -32 34zM390 590q26 -80 78 -162q34 -54 74 -94 q36 -38 68 -50q22 88 12 186q-16 136 -92 194t-136 24q-32 -16 -4 -98z" />
<glyph unicode="&#xf4;" horiz-adv-x="1014" d="M22 440v2q0 174 64 298t162 172q52 24 112 24q58 0 120 -30q22 -8 8 -18t-28 -6q-86 28 -142 -42q-56 -72 -84 -180q-16 -58 -22 -120q-8 -62 -6 -120q0 -42 6 -92q6 -48 18 -94q22 -88 64 -152q44 -64 112 -62q30 2 60 22t56 54q40 50 70 130q-58 18 -114 72 q-62 58 -106 132q-68 110 -82 226t64 162q132 76 220 -10q88 -84 108 -330q8 -106 -12 -204q12 0 24 4q36 6 68 24q62 32 108 90q48 58 66 100q18 6 34 4q16 0 32 -4q-14 -36 -38 -76q-24 -38 -56 -74q-58 -64 -136 -104q-56 -30 -118 -26q-30 -94 -84 -156q-34 -38 -78 -58 q-42 -22 -92 -22h-2q-186 0 -282 122q-94 122 -94 342zM162 1034q0 6 2 14q18 2 46 30q28 30 58 64q38 42 70 80t44 38q8 0 30 -30t50 -68q36 -50 68 -96q34 -46 48 -56v-2q0 -18 -32 -16q-34 0 -52 10q-38 52 -62 104q-26 52 -38 64q-12 -6 -28 -72q-18 -66 -66 -118h-12 q-28 0 -78 14q-48 14 -48 40zM390 590q26 -80 78 -162q34 -54 74 -94q36 -38 68 -50q22 88 12 186q-16 136 -92 194t-136 24q-32 -16 -4 -98z" />
<glyph unicode="&#xf5;" horiz-adv-x="1014" d="M22 440v2q0 174 64 298t162 172q52 24 112 24q58 0 120 -30q22 -8 8 -18t-28 -6q-86 28 -142 -42q-56 -72 -84 -180q-16 -58 -22 -120q-8 -62 -6 -120q0 -42 6 -92q6 -48 18 -94q22 -88 64 -152q44 -64 112 -62q30 2 60 22t56 54q40 50 70 130q-58 18 -114 72 q-62 58 -106 132q-68 110 -82 226t64 162q132 76 220 -10q88 -84 108 -330q8 -106 -12 -204q12 0 24 4q36 6 68 24q62 32 108 90q48 58 66 100q18 6 34 4q16 0 32 -4q-14 -36 -38 -76q-24 -38 -56 -74q-58 -64 -136 -104q-56 -30 -118 -26q-30 -94 -84 -156q-34 -38 -78 -58 q-42 -22 -92 -22h-2q-186 0 -282 122q-94 122 -94 342zM88 1070q0 28 8 66q12 62 68 80q22 6 58 -4q34 -10 74 -28q60 -26 114 -50q56 -26 70 -16q20 16 -4 40q-24 22 -40 32q-8 20 22 44q28 18 54 18h8q30 -10 52 -38t36 -62q14 -42 14 -86v-22q-6 -54 -42 -74 q-32 -16 -64 -16h-8q-38 2 -74 18q-30 12 -58 30q-30 20 -56 40q-48 36 -86 66q-36 30 -50 26q-24 -8 -34 -42q-12 -34 14 -44q0 -32 -30 -36q-28 -2 -44 22q-2 16 -2 36zM390 590q26 -80 78 -162q34 -54 74 -94q36 -38 68 -50q22 88 12 186q-16 136 -92 194t-136 24 q-32 -16 -4 -98z" />
<glyph unicode="&#xf6;" horiz-adv-x="1014" d="M22 440v2q0 174 64 298t162 172q52 24 112 24q58 0 120 -30q22 -8 8 -18t-28 -6q-86 28 -142 -42q-56 -72 -84 -180q-16 -58 -22 -120q-8 -62 -6 -120q0 -42 6 -92q6 -48 18 -94q22 -88 64 -152q44 -64 112 -62q30 2 60 22t56 54q40 50 70 130q-58 18 -114 72 q-62 58 -106 132q-68 110 -82 226t64 162q132 76 220 -10q88 -84 108 -330q8 -106 -12 -204q12 0 24 4q36 6 68 24q62 32 108 90q48 58 66 100q18 6 34 4q16 0 32 -4q-14 -36 -38 -76q-24 -38 -56 -74q-58 -64 -136 -104q-56 -30 -118 -26q-30 -94 -84 -156q-34 -38 -78 -58 q-42 -22 -92 -22h-2q-186 0 -282 122q-94 122 -94 342zM164 1086v8q-2 26 24 56q30 34 68 34q8 -26 40 -36q32 -8 34 -40q0 -30 -16 -62q-18 -34 -52 -38h-8q-32 -2 -58 24q-28 30 -32 54zM390 590q26 -80 78 -162q34 -54 74 -94q36 -38 68 -50q22 88 12 186 q-16 136 -92 194t-136 24q-32 -16 -4 -98zM404 1106q0 26 12 52q18 40 54 46h8q26 0 52 -28q32 -32 38 -72q-14 -18 -16 -52t-36 -38h-12q-26 0 -52 12q-34 16 -44 52q-4 14 -4 28z" />
<glyph unicode="&#xf7;" horiz-adv-x="864" d="M20 632q0 6 2 12q12 46 44 62q42 8 106 10h44q44 0 92 -2q138 -4 280 -18t222 -20q26 -16 26 -40q0 -6 -2 -14q-10 -32 -58 -38q-2 -2 -8 -2q-22 0 -100 8q-90 6 -200 12q-136 8 -258 8t-130 -26q-60 12 -60 48zM334 374q0 24 12 50q18 44 56 50h8q28 0 54 -30 q32 -34 38 -74q-14 -18 -16 -54q-2 -34 -36 -40h-14q-24 0 -52 12q-36 18 -46 56q-4 14 -4 30zM360 896q-2 4 0 10q0 26 26 56q30 36 70 36q8 -28 42 -38q32 -8 34 -42v-6q0 -26 -16 -58q-18 -36 -54 -40h-10q-32 0 -58 26q-30 30 -34 56z" />
<glyph unicode="&#xf8;" horiz-adv-x="1014" d="M22 440v2q0 174 64 298t162 172q52 24 112 24q58 0 120 -30q22 -8 8 -18t-28 -6q-86 28 -142 -42q-56 -72 -84 -180q-16 -58 -22 -120q-8 -62 -6 -120q0 -42 6 -92q6 -48 18 -94q20 -80 56 -140q50 158 98 314q-6 12 -12 22q-68 110 -82 226t64 162q94 54 166 26 q14 48 28 92q48 164 70 276q24 112 8 136q16 32 62 44q6 0 12 2q56 10 68 -30q4 -16 -28 -126q-34 -110 -88 -278q-26 -84 -56 -176q68 -92 86 -306q8 -106 -12 -204q12 0 24 4q36 6 68 24q62 32 108 90q48 58 66 100q18 6 34 4q16 0 32 -4q-14 -36 -38 -76q-24 -38 -56 -74 q-58 -64 -136 -104q-56 -30 -118 -26q-30 -94 -84 -156q-34 -38 -78 -58q-42 -22 -92 -22h-2q-32 0 -62 4q-58 -186 -96 -320q-44 -156 -32 -162q16 -64 -40 -80q-4 0 -8 -2q-42 -10 -48 14v6q-6 24 8 86q12 60 36 148q38 140 98 328q-84 30 -138 100q-94 122 -94 342z M352 30q24 -12 54 -10t60 22t56 54q40 50 70 130q-58 18 -114 72q-16 14 -30 28l-10 -34q-44 -130 -82 -252zM390 590q12 -36 28 -72l8 28l48 148q-44 14 -80 -6q-32 -16 -4 -98zM476 414q30 -46 66 -80q36 -38 68 -50q22 88 12 186q-14 116 -72 174q-14 -42 -28 -88z" />
<glyph unicode="&#xf9;" horiz-adv-x="1110" d="M22 872q16 50 56 50h6q46 -6 92 -52q24 -24 44 -60q22 -36 36 -80q2 -52 -4 -134t-12 -170q-10 -130 -6 -240q2 -108 50 -110q50 0 108 124q56 124 92 284q20 86 30 172q10 84 8 156q10 44 86 32t80 -74q-4 -54 -16 -148q-12 -96 -24 -202q-10 -102 -16 -200t4 -162 q4 -36 14 -56q10 -22 26 -24q36 -8 102 84q66 94 128 204q40 74 74 138q34 66 48 100q16 4 32 4q16 -2 32 -14q-6 -14 -18 -40t-30 -62q-30 -66 -76 -152q-44 -86 -96 -160q-52 -76 -106 -124q-44 -40 -84 -40q-10 0 -18 2q-48 12 -78 46t-48 78q-34 84 -34 180 q-2 96 -2 142q-10 -26 -34 -98q-26 -74 -66 -138q-28 -44 -60 -74q-32 -28 -66 -28q-72 2 -118 34q-44 34 -72 86q-28 56 -40 128q-12 74 -14 152q-4 142 6 274q10 130 -16 172zM240 1136q0 26 22 50q32 36 66 36q2 0 4 -2q54 -28 86 -74t68 -100q14 -28 14 -64 q0 -30 -26 -34h-8q-18 2 -38 14t-38 28q-46 38 -84 82q-38 42 -62 40q-4 12 -4 24z" />
<glyph unicode="&#xfa;" horiz-adv-x="1110" d="M22 872q16 50 56 50h6q46 -6 92 -52q24 -24 44 -60q22 -36 36 -80q2 -52 -4 -134t-12 -170q-10 -130 -6 -240q2 -108 50 -110q50 0 108 124q56 124 92 284q20 86 30 172q10 84 8 156q10 44 86 32t80 -74q-4 -54 -16 -148q-12 -96 -24 -202q-10 -102 -16 -200t4 -162 q4 -36 14 -56q10 -22 26 -24q36 -8 102 84q66 94 128 204q40 74 74 138q34 66 48 100q16 4 32 4q16 -2 32 -14q-6 -14 -18 -40t-30 -62q-30 -66 -76 -152q-44 -86 -96 -160q-52 -76 -106 -124q-44 -40 -84 -40q-10 0 -18 2q-48 12 -78 46t-48 78q-34 84 -34 180 q-2 96 -2 142q-10 -26 -34 -98q-26 -74 -66 -138q-28 -44 -60 -74q-32 -28 -66 -28q-72 2 -118 34q-44 34 -72 86q-28 56 -40 128q-12 74 -14 152q-4 142 6 274q10 130 -16 172zM290 968v2q0 34 12 62q36 54 68 100q34 44 86 74h4q36 0 66 -34q32 -36 18 -74q-22 2 -62 -42 q-38 -42 -82 -80q-20 -16 -40 -28q-14 -8 -28 -12q-6 -2 -10 -4q-32 0 -32 36z" />
<glyph unicode="&#xfb;" horiz-adv-x="1110" d="M22 872q16 50 56 50h6q46 -6 92 -52q24 -24 44 -60q22 -36 36 -80q2 -52 -4 -134t-12 -170q-10 -130 -6 -240q2 -108 50 -110q50 0 108 124q56 124 92 284q20 86 30 172q10 84 8 156q10 44 86 32t80 -74q-4 -54 -16 -148q-12 -96 -24 -202q-10 -102 -16 -200t4 -162 q4 -36 14 -56q10 -22 26 -24q36 -8 102 84q66 94 128 204q40 74 74 138q34 66 48 100q16 4 32 4q16 -2 32 -14q-6 -14 -18 -40t-30 -62q-30 -66 -76 -152q-44 -86 -96 -160q-52 -76 -106 -124q-44 -40 -84 -40q-10 0 -18 2q-48 12 -78 46t-48 78q-34 84 -34 180 q-2 96 -2 142q-10 -26 -34 -98q-26 -74 -66 -138q-28 -44 -60 -74q-32 -28 -66 -28q-72 2 -118 34q-44 34 -72 86q-28 56 -40 128q-12 74 -14 152q-4 142 6 274q10 130 -16 172zM180 984q-2 6 2 14q20 4 58 44q36 40 72 82q30 34 54 60t34 26q6 0 30 -28q22 -30 50 -70 q34 -48 68 -94q34 -48 48 -58q0 -18 -26 -18h-8q-34 2 -50 12q-38 52 -64 104q-24 50 -36 62q-12 -6 -30 -72q-16 -66 -64 -116q-6 -2 -14 -2q-26 0 -76 16q-48 14 -48 38z" />
<glyph unicode="&#xfc;" horiz-adv-x="1110" d="M22 872q16 50 56 50h6q46 -6 92 -52q24 -24 44 -60q22 -36 36 -80q2 -52 -4 -134t-12 -170q-10 -130 -6 -240q2 -108 50 -110q50 0 108 124q56 124 92 284q20 86 30 172q10 84 8 156q10 44 86 32t80 -74q-4 -54 -16 -148q-12 -96 -24 -202q-10 -102 -16 -200t4 -162 q4 -36 14 -56q10 -22 26 -24q36 -8 102 84q66 94 128 204q40 74 74 138q34 66 48 100q16 4 32 4q16 -2 32 -14q-6 -14 -18 -40t-30 -62q-30 -66 -76 -152q-44 -86 -96 -160q-52 -76 -106 -124q-44 -40 -84 -40q-10 0 -18 2q-48 12 -78 46t-48 78q-34 84 -34 180 q-2 96 -2 142q-10 -26 -34 -98q-26 -74 -66 -138q-28 -44 -60 -74q-32 -28 -66 -28q-72 2 -118 34q-44 34 -72 86q-28 56 -40 128q-12 74 -14 152q-4 142 6 274q10 130 -16 172zM184 1100q14 16 16 50t34 38q6 2 14 2q24 0 50 -14q34 -16 44 -52t-6 -78q-16 -36 -46 -46 q-4 0 -8 -2h-10q-26 0 -52 28q-30 34 -36 74zM422 1096v4q0 28 16 58q16 34 52 38h8q30 0 56 -26q30 -28 34 -54q4 -28 -26 -62q-26 -32 -58 -34h-10q-6 26 -38 34q-32 10 -34 42z" />
<glyph unicode="&#xfd;" horiz-adv-x="1012" d="M42 668q0 96 4 208q12 60 82 76q10 2 20 2q58 2 92 -72q-14 -74 -26 -178q-14 -104 -18 -210q-6 -158 16 -282t100 -122q48 2 94 114t74 252q18 94 26 184q10 92 4 156q4 26 12 42q10 16 24 22q30 16 68 -6q38 -24 44 -58q-16 -4 -18 -90q-2 -88 0 -222q2 -72 4 -154 v-170q0 -28 -2 -56q66 62 140 146q96 110 166 254q14 8 32 10q16 2 32 -18q-54 -100 -110 -180q-56 -78 -110 -140q-82 -90 -152 -148q-6 -126 -20 -254q-20 -192 -80 -312q-34 -66 -80 -102t-108 -36h-4q-32 2 -54 16q-22 16 -34 42q-32 68 -8 188q24 118 76 222 q30 58 64 102q36 46 72 70q6 4 12 10l4 140q2 118 2 188q-22 -110 -74 -182t-120 -72q-144 0 -202 192q-44 144 -44 428zM302 1010v2q0 34 14 62q36 54 68 100q32 44 86 74h4q36 0 66 -34q22 -26 22 -52q0 -12 -4 -22q-24 2 -62 -42q-38 -42 -82 -80q-20 -16 -40 -28 t-38 -16q-32 0 -34 36zM336 -550q-4 -84 20 -84q18 0 32 22q16 22 28 60q22 70 36 186q12 114 20 236l2 30l-2 -2q-32 -28 -60 -104q-28 -74 -48 -158q-24 -102 -28 -186z" />
<glyph unicode="&#xff;" horiz-adv-x="1012" d="M42 668q0 96 4 208q12 60 82 76q10 2 20 2q58 2 92 -72q-14 -74 -26 -178q-14 -104 -18 -210q-6 -158 16 -282t100 -122q48 2 94 114t74 252q18 94 26 184q10 92 4 156q4 26 12 42q10 16 24 22q30 16 68 -6q38 -24 44 -58q-16 -4 -18 -90q-2 -88 0 -222q2 -72 4 -154 v-170q0 -28 -2 -56q66 62 140 146q96 110 166 254q14 8 32 10q16 2 32 -18q-54 -100 -110 -180q-56 -78 -110 -140q-82 -90 -152 -148q-6 -126 -20 -254q-20 -192 -80 -312q-34 -66 -80 -102t-108 -36h-4q-32 2 -54 16q-22 16 -34 42q-32 68 -8 188q24 118 76 222 q30 58 64 102q36 46 72 70q6 4 12 10l4 140q2 118 2 188q-22 -110 -74 -182t-120 -72q-144 0 -202 192q-44 144 -44 428zM208 1084q14 16 16 50t34 38q6 2 14 2q24 0 50 -14q34 -16 44 -52q10 -38 -8 -78q-16 -40 -48 -46q-2 -2 -4 -2h-10q-26 0 -52 28q-30 34 -36 74z M336 -550q-4 -84 20 -84q18 0 32 22q16 22 28 60q22 70 36 186q12 114 20 236l2 30l-2 -2q-32 -28 -60 -104q-28 -74 -48 -158q-24 -102 -28 -186zM446 1078v6q0 26 16 58t52 36q4 2 8 2q30 0 56 -26q30 -30 34 -54v-8q0 -26 -26 -56q-30 -34 -68 -34q-6 28 -38 36t-34 40z " />
<glyph unicode="&#x152;" horiz-adv-x="1432" d="M24 614v130q2 64 6 122q8 102 22 200q16 96 44 180q52 158 160 250q88 78 232 78q30 0 64 -4q44 -6 86 -40q42 -36 80 -96q66 -108 112 -274q46 220 124 408q26 20 54 20q10 0 22 -4q36 -10 64 -32q32 -14 128 -12t174 12q16 0 18 -10q2 -2 2 -6q0 -6 -4 -12 q-76 -34 -168 -40q-92 -4 -128 -14q-10 -20 -24 -158q-16 -138 -28 -310q-6 -74 -12 -150q-4 -74 -8 -144q-8 -128 -10 -220q-2 -94 4 -110q16 -14 100 2q84 18 142 52q22 -2 24 -22q2 -22 -12 -38q-62 -42 -138 -50q-76 -10 -100 -16q-6 -8 -4 -40q4 -32 12 -72 q12 -46 30 -88t34 -44q26 -2 110 28q86 30 144 56q4 -4 6 -14t-6 -22q-64 -38 -148 -72q-86 -36 -116 -42q-22 -4 -50 -4q-44 0 -98 12q-90 20 -116 68q-36 118 -54 248q-40 -108 -102 -190q-90 -122 -226 -124h-10q-112 0 -190 42q-80 44 -132 118q-60 88 -84 206 q-26 120 -30 242zM268 762q0 -44 2 -94q2 -86 14 -174q18 -164 66 -300q46 -134 132 -140h12q56 -2 98 32q46 38 80 104q62 122 84 302q20 162 24 290v40q0 66 -8 144q-10 82 -26 166q-30 152 -82 272q-50 122 -110 126q-4 2 -8 2q-66 0 -124 -108q-64 -114 -104 -268 q-20 -84 -34 -170q-12 -86 -16 -164v-60z" />
<glyph unicode="&#x153;" horiz-adv-x="1572" d="M44 452v2q0 92 20 172t54 144q64 116 166 160q46 18 94 20q60 0 124 -32q22 -10 8 -18q-14 -10 -28 -6q-46 16 -84 0t-66 -54q-54 -68 -80 -186q-26 -116 -24 -222q0 -44 6 -94t18 -98q20 -92 62 -160q42 -70 110 -66q30 0 60 22q32 22 58 58q52 66 84 172l8 32 q-26 0 -52 6q-36 8 -70 26q-46 26 -84 68q-40 42 -68 92q-50 94 -52 192t70 148q124 86 216 -4q56 -56 84 -174q22 74 58 140q36 62 80 96q42 36 88 46q20 4 38 4q60 0 110 -44q66 -58 68 -164q2 -170 -106 -260q-52 -44 -120 -74q-2 -50 0 -100q0 -106 28 -180 q14 -40 38 -66q22 -26 56 -34q66 -16 150 64q86 78 158 186q40 56 74 114q32 58 54 104q16 14 30 12q16 -2 32 -18q-24 -52 -58 -116q-36 -62 -78 -126q-78 -116 -180 -202q-82 -72 -172 -72q-18 0 -38 4q-94 16 -160 66q-66 52 -108 124q-22 38 -38 80q-2 -4 -2 -8 q-34 -110 -100 -184q-68 -76 -162 -76h-2q-186 0 -278 132q-94 132 -94 352zM404 620q6 -60 34 -124q16 -34 38 -64t50 -52q26 -20 60 -28q26 -6 56 -4q8 66 2 132q-6 48 -20 88q-16 40 -38 72q-42 56 -90 74q-50 20 -80 -14q-18 -18 -12 -80zM900 450q56 34 92 78 q80 92 82 188t-38 106q-36 8 -72 -88q-38 -96 -56 -228z" />
<glyph unicode="&#x2c6;" horiz-adv-x="518" d="M68 1366q0 8 4 14q16 4 44 32t58 62q38 44 70 82t44 36q8 0 30 -28q24 -30 50 -70q36 -48 68 -94q34 -48 48 -58v-2q0 -16 -32 -16q-34 2 -52 12q-38 52 -62 104q-24 50 -38 62q-12 -6 -28 -72q-18 -64 -66 -116h-12q-28 -2 -76 14q-50 14 -50 38z" />
<glyph unicode="&#x2dc;" horiz-adv-x="598" d="M30 1444v10q0 38 18 90q22 60 80 68q4 2 8 2q20 0 48 -14q34 -14 72 -36q54 -34 104 -68q52 -32 66 -24q24 12 2 40q-20 26 -34 36q-6 22 28 40t62 12q30 -16 48 -46q18 -32 26 -68q6 -26 4 -52q0 -28 -6 -56q-12 -52 -52 -66q-24 -10 -46 -10q-14 0 -26 4q-36 6 -72 28 q-50 30 -96 78q-44 48 -76 80q-18 18 -32 28q-12 10 -20 10q-24 -6 -40 -38q-16 -30 8 -44q-4 -32 -34 -32q-28 2 -40 28z" />
<glyph unicode="&#x2000;" horiz-adv-x="959" />
<glyph unicode="&#x2001;" horiz-adv-x="1918" />
<glyph unicode="&#x2002;" horiz-adv-x="959" />
<glyph unicode="&#x2003;" horiz-adv-x="1918" />
<glyph unicode="&#x2004;" horiz-adv-x="639" />
<glyph unicode="&#x2005;" horiz-adv-x="479" />
<glyph unicode="&#x2006;" horiz-adv-x="319" />
<glyph unicode="&#x2007;" horiz-adv-x="319" />
<glyph unicode="&#x2008;" horiz-adv-x="239" />
<glyph unicode="&#x2009;" horiz-adv-x="383" />
<glyph unicode="&#x200a;" horiz-adv-x="106" />
<glyph unicode="&#x2010;" horiz-adv-x="632" d="M40 722q0 48 48 54q2 2 4 2q22 0 90 -16q74 -16 152 -28q64 -10 114 -10t60 22q68 -14 66 -50v-2q-4 -38 -36 -54q-72 -6 -144 -8q-42 0 -84 4q-114 6 -236 18q-34 20 -34 68z" />
<glyph unicode="&#x2011;" horiz-adv-x="632" d="M40 722q0 48 48 54q2 2 4 2q22 0 90 -16q74 -16 152 -28q64 -10 114 -10t60 22q68 -14 66 -50v-2q-4 -38 -36 -54q-72 -6 -144 -8q-42 0 -84 4q-114 6 -236 18q-34 20 -34 68z" />
<glyph unicode="&#x2012;" horiz-adv-x="632" d="M40 722q0 48 48 54q2 2 4 2q22 0 90 -16q74 -16 152 -28q64 -10 114 -10t60 22q68 -14 66 -50v-2q-4 -38 -36 -54q-72 -6 -144 -8q-42 0 -84 4q-114 6 -236 18q-34 20 -34 68z" />
<glyph unicode="&#x2013;" horiz-adv-x="1121" d="M40 722q0 48 92 54q4 2 8 2q42 0 172 -16q142 -16 292 -28q122 -10 218 -10t115 22q131 -14 127 -50v-2q-8 -38 -69 -54q-138 -6 -276 -8q-81 0 -161 4q-219 6 -453 18q-65 20 -65 68z" />
<glyph unicode="&#x2014;" horiz-adv-x="2145" d="M40 722q0 48 184 54q8 2 15 2q85 0 346 -16q283 -16 582 -28q246 -10 438 -10q191 0 230 22q260 -14 253 -50v-2q-16 -38 -138 -54q-276 -6 -552 -8q-162 0 -323 4q-437 6 -905 18q-130 20 -130 68z" />
<glyph unicode="&#x2019;" horiz-adv-x="220" d="M56 1462v2q0 54 4 106q6 50 -4 62q20 34 66 34h2q50 0 72 -30q12 -60 -2 -114q-12 -54 -30 -116q-14 -30 -40 -52q-8 -6 -16 -10h-8q-14 -2 -24 12q-12 20 -16 48t-4 58z" />
<glyph unicode="&#x201c;" horiz-adv-x="388" d="M24 1474q0 20 2 44q6 68 10 106q6 56 34 68q6 4 12 4q20 -2 36 -40q-14 -58 14 -118q28 -62 16 -126q-18 -22 -58 -40q-4 -2 -6 -2q-6 -2 -12 -2q-28 0 -42 48q-6 22 -6 58zM208 1462q0 30 8 60q14 54 30 116q14 30 42 52q12 10 24 10t24 -12q10 -20 14 -48q6 -28 6 -58 q0 -56 -6 -108q-6 -50 4 -62q-14 -28 -46 -34q-10 -2 -20 -2h-2q-48 2 -72 32q-4 28 -6 54z" />
<glyph unicode="&#x201d;" horiz-adv-x="394" d="M38 1456v2q0 56 4 106q6 52 -4 62q20 36 66 36h2q48 -2 72 -32q12 -58 -2 -112t-30 -118q-14 -30 -40 -52q-10 -6 -18 -8q-2 -2 -6 -2q-14 0 -24 12q-12 20 -16 48t-4 58zM240 1588q0 20 4 40q18 20 60 38q8 6 16 6q28 0 42 -50q8 -34 4 -102q-6 -66 -8 -104 q-8 -58 -36 -70q-4 -2 -6 -2h-6q-20 0 -36 38q16 58 -14 120q-20 42 -20 86z" />
<glyph unicode="&#x202f;" horiz-adv-x="383" />
<glyph unicode="&#x205f;" horiz-adv-x="479" />
<glyph unicode="&#x20ac;" horiz-adv-x="968" d="M30 568q0 6 2 14q12 44 48 64q70 6 150 8q-6 64 -6 124h-50q-60 -4 -70 -26q-66 16 -66 50v4q6 36 38 52q68 6 150 12q4 68 16 136q18 100 50 192q58 168 168 278q104 106 256 104h12q40 0 68 -20q30 -22 48 -54q44 -76 50 -186q6 -108 6 -160q-4 -22 -28 -28 q-22 -4 -30 12q2 36 0 84t-8 96q-12 72 -34 126q-22 56 -56 56q-66 2 -122 -122t-90 -276q-18 -82 -28 -160q-6 -38 -8 -74q66 -2 124 -6q36 -22 34 -66q-4 -46 -52 -54h-4q-26 0 -104 10q0 -52 4 -108v-4q68 -4 126 -10q32 -16 28 -40q-4 -26 -40 -36q-18 0 -84 -4 q-12 -2 -26 -2q4 -42 10 -82q18 -164 56 -294t100 -126q40 2 68 22q26 22 44 54q34 60 36 146q4 84 -8 148q8 32 36 20t40 -36q12 -164 -34 -274q-44 -110 -190 -128q-16 -2 -32 -2q-62 0 -114 30q-66 36 -116 104q-92 124 -134 316q-10 44 -18 86l-64 -4q-72 -4 -100 -4 h-14q-38 8 -38 38z" />
<glyph unicode="&#x2122;" horiz-adv-x="1148" d="M36 1478v2q0 10 14 12q80 8 162 14q50 2 92 2h46q2 -10 0 -18q-2 -10 -16 -12q-34 0 -100 2q42 -200 62 -402q20 -200 4 -362q-6 -10 -18 -14q-10 -4 -24 -4t-34 4q-56 12 -62 50q14 6 14 136q-2 128 -6 274q-2 96 -4 182t2 128q-22 2 -56 -4t-70 -4q-4 4 -6 14z M396 1508q4 20 38 20h10q42 -2 56 -30q8 -36 14 -86t12 -102q8 -76 14 -138t8 -68q2 16 6 50q4 36 12 78q10 66 26 132t34 96q12 20 58 12t56 -60q4 -26 8 -80q4 -52 10 -112q8 -92 14 -172q8 -80 10 -86q6 4 18 98q14 92 42 200q20 70 50 136q28 64 70 98q20 18 56 0 q34 -18 48 -50q10 -36 12 -108q2 -70 2 -154q-2 -124 -2 -246t16 -166v-8q0 -30 -52 -30h-6q-64 2 -76 52q-24 194 -10 340q12 144 28 226q8 42 12 66t-2 26q-28 6 -62 -74q-32 -80 -60 -186q-18 -70 -30 -138q-14 -70 -18 -120q-12 -50 -62 -44q-52 8 -60 36 q-18 48 -22 112q-6 66 -6 130q-2 98 2 176q2 76 -10 76q-10 2 -26 -42q-14 -44 -28 -102q-18 -74 -32 -148q-12 -72 -12 -98q6 -52 14 -90q6 -38 12 -88q-6 -62 -68 -86q-62 -26 -70 16q-14 58 -22 136q-10 80 -12 162q-8 156 -8 288q0 134 -12 150z" />
<glyph unicode="&#x25fc;" horiz-adv-x="950" d="M0 0v950h950v-950h-950z" />
</font>
</defs>
</svg>
